M48
;Layer_Color=9474304
;FILE_FORMAT=4:4
METRIC,LZ
;TYPE=PLATED
T1F00S00C0.3000
T3F00S00C1.0000
T4F00S00C1.1000
T5F00S00C1.5000
T6F00S00C1.7000
T7F00S00C3.2000
%
T01
X00637Y000565
Y000675
X0069342Y0012573
X0067818Y0016002
X006477Y0017272
X0064516Y0018161
X005842Y0017653
X0046228Y0015367
Y0011176
X0047752Y0008509
X0048895Y000889
X0047244Y0004064
X0045085Y0004445
X0042291Y0005715
X004145Y0005775
X00407
X0040259Y000762
X0040386Y0010922
X0037211Y0006477
X00331Y00064
X00323
X0030734Y0007747
X0028956Y000635
X0023368Y0013081
X0019558Y0013843
X0020066Y0011303
X0018923Y0019304
X002032Y0020447
X0021971Y002032
X0024511Y0019558
X0025654Y001778
X00304386Y0017526
X0033147
X0030425Y0023
X0026416Y0022479
X0023241Y0024511
X00201Y0028075
X0023114Y0032893
X003302Y0026416
X0040259Y0025527
X0044577Y0022098
X0047879Y00254
X001651Y0026416
X0011176Y0026924
X0011557Y0024638
X0008382
Y0022606
X0006223Y0022098
Y0023241
X000508Y0028321
X0008509Y0028575
X00108573Y00312862
X0011938Y0021209
X0011811Y0019431
X001315Y0016925
X001415
Y00161
X0014175Y001775
X0016Y001965
X0016764Y0019939
X0018161Y0020193
X0013875Y002175
X0012475Y001425
X0011675
X0010725
X00098Y0014225
X0009017Y0011557
Y0010541
X00149606Y00127762
X0016383Y0012827
X0008382Y0018161
X0001651Y0028575
X0010795Y0035814
X0011684
X0011975Y004095
X00127Y0040513
X0012725Y0041425
X00066Y004495
X0005715Y0051816
X0023241Y004826
X0023368Y004445
X0021425Y0043425
X0019685Y0042037
X0018542Y004191
X0022479Y0040894
X00314953Y00428401
X0032875Y004245
X00329Y0043375
X0028956Y0047625
X004055Y004805
X0041425Y0048075
X004145Y0047175
X00405Y004715
X0040513Y0039624
X004145Y00396
Y0038675
X00405
X0027813Y0035179
X0058Y0038275
Y00392
X0058039Y0040132
X005785Y004135
X005735Y0042825
X005665Y004215
X005885Y00435
X0063246Y0045085
T03
X00616724Y00267568
Y00312568
X00681724
Y00267568
X0024856Y0008076
X0020356
Y0001576
X0024856
T04
X00589788Y00022606
X00615188
X00640588
X00623316Y00127762
X00597916
Y00203962
X00623316
X00572516
X00547116
X00521716
X00496316
X00470916
X00445516
X00420116
X00394716
X00369316
X00343916
X00318516
X00293116
Y00127762
X00318516
X00343916
X00369316
X00394716
X00420116
X00445516
X00470916
X00496316
X00521716
X00547116
X00572516
X00564388Y00022606
X00538988
X00513588
X00463296Y00022352
X00437896
X00412496
X00387096
X00361696
X00336296
X00310896
X00285496
X00177038Y00081788
X00151638
X00126238
X00154432Y00362712
Y00388112
Y00413512
Y00438912
X00193548Y00506476
X00218948
X00244348
X00269748
X00295148
X00320548
X00345948
X00371348
X00396748
X00422148
X0045974
X0048514
X0051054
X0053594
X0056134
X0058674
X0061214
X0063754
X00670306Y0046736
Y0044196
Y0041656
T05
X00027178Y00030734
Y00136906
T06
X0003556Y00316484
X0006096
Y00341884
X0003556
X0002921Y00385572
X0005461
X0008001
Y00410972
X0005461
X0002921
Y004699
X0005461
X0008001
Y004953
X0005461
X0002921
T07
X006858Y000762
X001524Y000254
X00157988Y00506476
X006858Y0036195
M30
