G04*
G04 #@! TF.GenerationSoftware,Altium Limited,Altium Designer,21.3.1 (25)*
G04*
G04 Layer_Color=32896*
%FSLAX44Y44*%
%MOMM*%
G71*
G04*
G04 #@! TF.SameCoordinates,472AA62F-3F09-4C21-BF2B-41C26AEB2B16*
G04*
G04*
G04 #@! TF.FilePolarity,Positive*
G04*
G01*
G75*
%ADD12C,0.2540*%
D12*
X1061506Y521331D02*
Y506096D01*
X1071663D01*
X1076741Y521331D02*
X1081820D01*
X1079280D01*
Y506096D01*
X1076741D01*
X1081820D01*
X1099594Y518792D02*
X1097055Y521331D01*
X1091976D01*
X1089437Y518792D01*
Y508635D01*
X1091976Y506096D01*
X1097055D01*
X1099594Y508635D01*
X1114829Y521331D02*
X1104672D01*
Y506096D01*
X1114829D01*
X1104672Y513713D02*
X1109750D01*
X1119907Y506096D02*
Y521331D01*
X1130064Y506096D01*
Y521331D01*
X1145299Y518792D02*
X1142760Y521331D01*
X1137681D01*
X1135142Y518792D01*
Y508635D01*
X1137681Y506096D01*
X1142760D01*
X1145299Y508635D01*
X1160534Y521331D02*
X1150377D01*
Y506096D01*
X1160534D01*
X1150377Y513713D02*
X1155456D01*
X1063506Y461096D02*
Y471253D01*
X1068584Y476331D01*
X1073663Y471253D01*
Y461096D01*
Y468713D01*
X1063506D01*
X1078741Y476331D02*
Y463635D01*
X1081280Y461096D01*
X1086359D01*
X1088898Y463635D01*
Y476331D01*
X1093976D02*
X1104133D01*
X1099054D01*
Y461096D01*
X1109211Y476331D02*
Y461096D01*
Y468713D01*
X1119368D01*
Y476331D01*
Y461096D01*
X1132064Y476331D02*
X1126985D01*
X1124446Y473792D01*
Y463635D01*
X1126985Y461096D01*
X1132064D01*
X1134603Y463635D01*
Y473792D01*
X1132064Y476331D01*
X1139681Y461096D02*
Y476331D01*
X1147299D01*
X1149838Y473792D01*
Y468713D01*
X1147299Y466174D01*
X1139681D01*
X1144760D02*
X1149838Y461096D01*
X1154917Y471253D02*
X1157456D01*
Y468713D01*
X1154917D01*
Y471253D01*
Y463635D02*
X1157456D01*
Y461096D01*
X1154917D01*
Y463635D01*
X1193004Y476331D02*
X1182847D01*
Y468713D01*
X1187926D01*
X1182847D01*
Y461096D01*
X1208239Y476331D02*
X1198083D01*
Y461096D01*
X1208239D01*
X1198083Y468713D02*
X1203161D01*
X1213318Y476331D02*
Y461096D01*
X1220935D01*
X1223474Y463635D01*
Y473792D01*
X1220935Y476331D01*
X1213318D01*
X1238709D02*
X1228553D01*
Y461096D01*
X1238709D01*
X1228553Y468713D02*
X1233631D01*
X1243788Y476331D02*
Y466174D01*
X1248866Y461096D01*
X1253944Y466174D01*
Y476331D01*
X1269180D02*
X1259023D01*
Y461096D01*
X1269180D01*
X1259023Y468713D02*
X1264101D01*
X1274258Y476331D02*
Y461096D01*
X1284415D01*
X1314885D02*
X1304728D01*
X1314885Y471253D01*
Y473792D01*
X1312345Y476331D01*
X1307267D01*
X1304728Y473792D01*
X1319963D02*
X1322502Y476331D01*
X1327581D01*
X1330120Y473792D01*
Y463635D01*
X1327581Y461096D01*
X1322502D01*
X1319963Y463635D01*
Y473792D01*
X1335198Y461096D02*
X1340276D01*
X1337737D01*
Y476331D01*
X1335198Y473792D01*
X1358051Y476331D02*
X1347894D01*
Y468713D01*
X1352972Y471253D01*
X1355512D01*
X1358051Y468713D01*
Y463635D01*
X1355512Y461096D01*
X1350433D01*
X1347894Y463635D01*
X1063506Y451331D02*
Y436096D01*
X1068584Y441174D01*
X1073663Y436096D01*
Y451331D01*
X1088898D02*
X1078741D01*
Y436096D01*
X1088898D01*
X1078741Y443713D02*
X1083819D01*
X1093976Y451331D02*
Y436096D01*
X1101594D01*
X1104133Y438635D01*
Y441174D01*
X1101594Y443713D01*
X1093976D01*
X1101594D01*
X1104133Y446253D01*
Y448792D01*
X1101594Y451331D01*
X1093976D01*
X1119368Y448792D02*
X1116829Y451331D01*
X1111750D01*
X1109211Y448792D01*
Y446253D01*
X1111750Y443713D01*
X1116829D01*
X1119368Y441174D01*
Y438635D01*
X1116829Y436096D01*
X1111750D01*
X1109211Y438635D01*
X1124446Y451331D02*
X1129525D01*
X1126985D01*
Y436096D01*
X1124446D01*
X1129525D01*
X1137142Y451331D02*
X1147299D01*
X1142221D01*
Y436096D01*
X1162534Y451331D02*
X1152377D01*
Y436096D01*
X1162534D01*
X1152377Y443713D02*
X1157456D01*
X1167612Y446253D02*
X1170152D01*
Y443713D01*
X1167612D01*
Y446253D01*
Y438635D02*
X1170152D01*
Y436096D01*
X1167612D01*
Y438635D01*
X1195543Y451331D02*
Y436096D01*
Y443713D01*
X1198083Y446253D01*
X1203161D01*
X1205700Y443713D01*
Y436096D01*
X1213318Y448792D02*
Y446253D01*
X1210778D01*
X1215857D01*
X1213318D01*
Y438635D01*
X1215857Y436096D01*
X1226013Y448792D02*
Y446253D01*
X1223474D01*
X1228553D01*
X1226013D01*
Y438635D01*
X1228553Y436096D01*
X1236170Y431018D02*
Y446253D01*
X1243788D01*
X1246327Y443713D01*
Y438635D01*
X1243788Y436096D01*
X1236170D01*
X1251405Y446253D02*
X1253944D01*
Y443713D01*
X1251405D01*
Y446253D01*
Y438635D02*
X1253944D01*
Y436096D01*
X1251405D01*
Y438635D01*
X1264101Y436096D02*
X1274258Y446253D01*
X1279336Y436096D02*
X1289493Y446253D01*
X1294571D02*
Y438635D01*
X1297110Y436096D01*
X1299650Y438635D01*
X1302189Y436096D01*
X1304728Y438635D01*
Y446253D01*
X1309806D02*
Y438635D01*
X1312345Y436096D01*
X1314885Y438635D01*
X1317424Y436096D01*
X1319963Y438635D01*
Y446253D01*
X1325041D02*
Y438635D01*
X1327581Y436096D01*
X1330120Y438635D01*
X1332659Y436096D01*
X1335198Y438635D01*
Y446253D01*
X1340276Y436096D02*
Y438635D01*
X1342816D01*
Y436096D01*
X1340276D01*
X1363129D02*
X1352972D01*
X1363129Y446253D01*
Y448792D01*
X1360590Y451331D01*
X1355511D01*
X1352972Y448792D01*
X1368207D02*
X1370747Y451331D01*
X1375825D01*
X1378364Y448792D01*
Y446253D01*
X1375825Y443713D01*
X1378364Y441174D01*
Y438635D01*
X1375825Y436096D01*
X1370747D01*
X1368207Y438635D01*
Y441174D01*
X1370747Y443713D01*
X1368207Y446253D01*
Y448792D01*
X1370747Y443713D02*
X1375825D01*
X1383443Y431018D02*
Y446253D01*
X1391060D01*
X1393599Y443713D01*
Y438635D01*
X1391060Y436096D01*
X1383443D01*
X1398678D02*
X1403756D01*
X1401217D01*
Y446253D01*
X1398678D01*
X1411373Y436096D02*
Y446253D01*
X1418991D01*
X1421530Y443713D01*
Y436096D01*
X1426608D02*
X1434226D01*
X1436765Y438635D01*
X1434226Y441174D01*
X1429148D01*
X1426608Y443713D01*
X1429148Y446253D01*
X1436765D01*
X1441844Y436096D02*
Y438635D01*
X1444383D01*
Y436096D01*
X1441844D01*
X1464696Y446253D02*
X1457079D01*
X1454539Y443713D01*
Y438635D01*
X1457079Y436096D01*
X1464696D01*
X1472314D02*
X1477392D01*
X1479931Y438635D01*
Y443713D01*
X1477392Y446253D01*
X1472314D01*
X1469775Y443713D01*
Y438635D01*
X1472314Y436096D01*
X1485010D02*
Y446253D01*
X1487549D01*
X1490088Y443713D01*
Y436096D01*
Y443713D01*
X1492627Y446253D01*
X1495166Y443713D01*
Y436096D01*
X1063506Y401331D02*
X1073663D01*
X1068584D01*
Y386096D01*
X1078741Y401331D02*
Y386096D01*
Y393713D01*
X1081280Y396253D01*
X1086359D01*
X1088898Y393713D01*
Y386096D01*
X1093976D02*
X1099054D01*
X1096515D01*
Y396253D01*
X1093976D01*
X1106672Y386096D02*
X1114290D01*
X1116829Y388635D01*
X1114290Y391174D01*
X1109211D01*
X1106672Y393713D01*
X1109211Y396253D01*
X1116829D01*
X1137142Y386096D02*
X1142221D01*
X1139681D01*
Y396253D01*
X1137142D01*
X1149838Y386096D02*
X1157456D01*
X1159995Y388635D01*
X1157456Y391174D01*
X1152377D01*
X1149838Y393713D01*
X1152377Y396253D01*
X1159995D01*
X1182847D02*
X1187926D01*
X1190465Y393713D01*
Y386096D01*
X1182847D01*
X1180308Y388635D01*
X1182847Y391174D01*
X1190465D01*
X1210778Y401331D02*
Y386096D01*
Y393713D01*
X1213318Y396253D01*
X1218396D01*
X1220935Y393713D01*
Y386096D01*
X1226013Y396253D02*
Y388635D01*
X1228553Y386096D01*
X1236170D01*
Y396253D01*
X1241248Y386096D02*
Y396253D01*
X1243788D01*
X1246327Y393713D01*
Y386096D01*
Y393713D01*
X1248866Y396253D01*
X1251405Y393713D01*
Y386096D01*
X1259023Y396253D02*
X1264101D01*
X1266640Y393713D01*
Y386096D01*
X1259023D01*
X1256484Y388635D01*
X1259023Y391174D01*
X1266640D01*
X1271719Y386096D02*
Y396253D01*
X1279336D01*
X1281875Y393713D01*
Y386096D01*
X1286954Y393713D02*
X1297110D01*
X1302189Y396253D02*
Y386096D01*
Y391174D01*
X1304728Y393713D01*
X1307267Y396253D01*
X1309806D01*
X1325041Y386096D02*
X1319963D01*
X1317424Y388635D01*
Y393713D01*
X1319963Y396253D01*
X1325041D01*
X1327581Y393713D01*
Y391174D01*
X1317424D01*
X1335198Y396253D02*
X1340276D01*
X1342816Y393713D01*
Y386096D01*
X1335198D01*
X1332659Y388635D01*
X1335198Y391174D01*
X1342816D01*
X1358051Y401331D02*
Y386096D01*
X1350433D01*
X1347894Y388635D01*
Y393713D01*
X1350433Y396253D01*
X1358051D01*
X1365668D02*
X1370747D01*
X1373286Y393713D01*
Y386096D01*
X1365668D01*
X1363129Y388635D01*
X1365668Y391174D01*
X1373286D01*
X1378364Y401331D02*
Y386096D01*
X1385982D01*
X1388521Y388635D01*
Y391174D01*
Y393713D01*
X1385982Y396253D01*
X1378364D01*
X1393599Y386096D02*
X1398678D01*
X1396138D01*
Y401331D01*
X1393599D01*
X1413913Y386096D02*
X1408834D01*
X1406295Y388635D01*
Y393713D01*
X1408834Y396253D01*
X1413913D01*
X1416452Y393713D01*
Y391174D01*
X1406295D01*
X1436765Y386096D02*
X1444383D01*
X1446922Y388635D01*
X1444383Y391174D01*
X1439305D01*
X1436765Y393713D01*
X1439305Y396253D01*
X1446922D01*
X1452000D02*
Y388635D01*
X1454539Y386096D01*
X1462157D01*
Y396253D01*
X1467235Y386096D02*
Y396253D01*
X1469775D01*
X1472314Y393713D01*
Y386096D01*
Y393713D01*
X1474853Y396253D01*
X1477392Y393713D01*
Y386096D01*
X1482471D02*
Y396253D01*
X1485010D01*
X1487549Y393713D01*
Y386096D01*
Y393713D01*
X1490088Y396253D01*
X1492627Y393713D01*
Y386096D01*
X1500245Y396253D02*
X1505323D01*
X1507862Y393713D01*
Y386096D01*
X1500245D01*
X1497706Y388635D01*
X1500245Y391174D01*
X1507862D01*
X1512941Y396253D02*
Y386096D01*
Y391174D01*
X1515480Y393713D01*
X1518019Y396253D01*
X1520558D01*
X1528176D02*
Y388635D01*
X1530715Y386096D01*
X1538332D01*
Y383557D01*
X1535793Y381018D01*
X1533254D01*
X1538332Y386096D02*
Y396253D01*
X1561185Y386096D02*
X1566263D01*
X1568803Y388635D01*
Y393713D01*
X1566263Y396253D01*
X1561185D01*
X1558646Y393713D01*
Y388635D01*
X1561185Y386096D01*
X1576420D02*
Y398792D01*
Y393713D01*
X1573881D01*
X1578959D01*
X1576420D01*
Y398792D01*
X1578959Y401331D01*
X1604351Y398792D02*
Y396253D01*
X1601812D01*
X1606890D01*
X1604351D01*
Y388635D01*
X1606890Y386096D01*
X1614508Y401331D02*
Y386096D01*
Y393713D01*
X1617047Y396253D01*
X1622125D01*
X1624664Y393713D01*
Y386096D01*
X1637360D02*
X1632282D01*
X1629743Y388635D01*
Y393713D01*
X1632282Y396253D01*
X1637360D01*
X1639900Y393713D01*
Y391174D01*
X1629743D01*
X1660213Y386096D02*
X1665291D01*
X1662752D01*
Y401331D01*
X1660213D01*
X1672909Y386096D02*
X1677987D01*
X1675448D01*
Y396253D01*
X1672909D01*
X1695762D02*
X1688144D01*
X1685605Y393713D01*
Y388635D01*
X1688144Y386096D01*
X1695762D01*
X1708457D02*
X1703379D01*
X1700840Y388635D01*
Y393713D01*
X1703379Y396253D01*
X1708457D01*
X1710997Y393713D01*
Y391174D01*
X1700840D01*
X1716075Y386096D02*
Y396253D01*
X1723692D01*
X1726232Y393713D01*
Y386096D01*
X1741467Y396253D02*
X1733849D01*
X1731310Y393713D01*
Y388635D01*
X1733849Y386096D01*
X1741467D01*
X1754163D02*
X1749084D01*
X1746545Y388635D01*
Y393713D01*
X1749084Y396253D01*
X1754163D01*
X1756702Y393713D01*
Y391174D01*
X1746545D01*
X1761780Y386096D02*
Y388635D01*
X1764319D01*
Y386096D01*
X1761780D01*
X1789711D02*
Y401331D01*
X1797329D01*
X1799868Y398792D01*
Y393713D01*
X1797329Y391174D01*
X1789711D01*
X1794789D02*
X1799868Y386096D01*
X1812564D02*
X1807485D01*
X1804946Y388635D01*
Y393713D01*
X1807485Y396253D01*
X1812564D01*
X1815103Y393713D01*
Y391174D01*
X1804946D01*
X1822720Y396253D02*
X1827799D01*
X1830338Y393713D01*
Y386096D01*
X1822720D01*
X1820181Y388635D01*
X1822720Y391174D01*
X1830338D01*
X1845573Y401331D02*
Y386096D01*
X1837955D01*
X1835416Y388635D01*
Y393713D01*
X1837955Y396253D01*
X1845573D01*
X1868426Y386096D02*
Y398792D01*
Y393713D01*
X1865886D01*
X1870965D01*
X1868426D01*
Y398792D01*
X1870965Y401331D01*
X1878582Y396253D02*
Y388635D01*
X1881122Y386096D01*
X1888739D01*
Y396253D01*
X1893817Y386096D02*
X1898896D01*
X1896357D01*
Y401331D01*
X1893817D01*
X1906513Y386096D02*
X1911592D01*
X1909052D01*
Y401331D01*
X1906513D01*
X1934444Y386096D02*
X1939523D01*
X1936983D01*
Y401331D01*
X1934444D01*
X1947140Y386096D02*
X1952218D01*
X1949679D01*
Y396253D01*
X1947140D01*
X1969993D02*
X1962375D01*
X1959836Y393713D01*
Y388635D01*
X1962375Y386096D01*
X1969993D01*
X1982689D02*
X1977610D01*
X1975071Y388635D01*
Y393713D01*
X1977610Y396253D01*
X1982689D01*
X1985228Y393713D01*
Y391174D01*
X1975071D01*
X1990306Y386096D02*
Y396253D01*
X1997924D01*
X2000463Y393713D01*
Y386096D01*
X2015698Y396253D02*
X2008080D01*
X2005541Y393713D01*
Y388635D01*
X2008080Y386096D01*
X2015698D01*
X2028394D02*
X2023315D01*
X2020776Y388635D01*
Y393713D01*
X2023315Y396253D01*
X2028394D01*
X2030933Y393713D01*
Y391174D01*
X2020776D01*
X2053786Y396253D02*
X2058864D01*
X2061403Y393713D01*
Y386096D01*
X2053786D01*
X2051246Y388635D01*
X2053786Y391174D01*
X2061403D01*
X2069021Y398792D02*
Y396253D01*
X2066481D01*
X2071560D01*
X2069021D01*
Y388635D01*
X2071560Y386096D01*
X2079177Y396253D02*
X2081717D01*
Y393713D01*
X2079177D01*
Y396253D01*
Y388635D02*
X2081717D01*
Y386096D01*
X2079177D01*
Y388635D01*
X1063506Y376331D02*
Y361096D01*
Y368713D01*
X1066045Y371253D01*
X1071124D01*
X1073663Y368713D01*
Y361096D01*
X1081280Y373792D02*
Y371253D01*
X1078741D01*
X1083819D01*
X1081280D01*
Y363635D01*
X1083819Y361096D01*
X1093976Y373792D02*
Y371253D01*
X1091437D01*
X1096515D01*
X1093976D01*
Y363635D01*
X1096515Y361096D01*
X1104133Y356018D02*
Y371253D01*
X1111750D01*
X1114290Y368713D01*
Y363635D01*
X1111750Y361096D01*
X1104133D01*
X1119368D02*
X1126985D01*
X1129525Y363635D01*
X1126985Y366174D01*
X1121907D01*
X1119368Y368713D01*
X1121907Y371253D01*
X1129525D01*
X1134603D02*
X1137142D01*
Y368713D01*
X1134603D01*
Y371253D01*
Y363635D02*
X1137142D01*
Y361096D01*
X1134603D01*
Y363635D01*
X1147299Y361096D02*
X1157456Y371253D01*
X1162534Y361096D02*
X1172691Y371253D01*
X1187926D02*
X1180308D01*
X1177769Y368713D01*
Y363635D01*
X1180308Y361096D01*
X1187926D01*
X1193004Y371253D02*
Y361096D01*
Y366174D01*
X1195543Y368713D01*
X1198083Y371253D01*
X1200622D01*
X1215857Y361096D02*
X1210778D01*
X1208239Y363635D01*
Y368713D01*
X1210778Y371253D01*
X1215857D01*
X1218396Y368713D01*
Y366174D01*
X1208239D01*
X1226013Y371253D02*
X1231092D01*
X1233631Y368713D01*
Y361096D01*
X1226013D01*
X1223474Y363635D01*
X1226013Y366174D01*
X1233631D01*
X1241248Y373792D02*
Y371253D01*
X1238709D01*
X1243788D01*
X1241248D01*
Y363635D01*
X1243788Y361096D01*
X1251405D02*
X1256484D01*
X1253944D01*
Y371253D01*
X1251405D01*
X1264101D02*
X1269180Y361096D01*
X1274258Y371253D01*
X1286954Y361096D02*
X1281875D01*
X1279336Y363635D01*
Y368713D01*
X1281875Y371253D01*
X1286954D01*
X1289493Y368713D01*
Y366174D01*
X1279336D01*
X1304728Y371253D02*
X1297110D01*
X1294571Y368713D01*
Y363635D01*
X1297110Y361096D01*
X1304728D01*
X1312345D02*
X1317424D01*
X1319963Y363635D01*
Y368713D01*
X1317424Y371253D01*
X1312345D01*
X1309806Y368713D01*
Y363635D01*
X1312345Y361096D01*
X1325041D02*
Y371253D01*
X1327581D01*
X1330120Y368713D01*
Y361096D01*
Y368713D01*
X1332659Y371253D01*
X1335198Y368713D01*
Y361096D01*
X1340276D02*
Y371253D01*
X1342816D01*
X1345355Y368713D01*
Y361096D01*
Y368713D01*
X1347894Y371253D01*
X1350433Y368713D01*
Y361096D01*
X1358051D02*
X1363129D01*
X1365668Y363635D01*
Y368713D01*
X1363129Y371253D01*
X1358051D01*
X1355511Y368713D01*
Y363635D01*
X1358051Y361096D01*
X1370747D02*
Y371253D01*
X1378364D01*
X1380903Y368713D01*
Y361096D01*
X1385982D02*
X1393599D01*
X1396138Y363635D01*
X1393599Y366174D01*
X1388521D01*
X1385982Y368713D01*
X1388521Y371253D01*
X1396138D01*
X1401217Y361096D02*
Y363635D01*
X1403756D01*
Y361096D01*
X1401217D01*
X1416452D02*
X1421530D01*
X1424069Y363635D01*
Y368713D01*
X1421530Y371253D01*
X1416452D01*
X1413913Y368713D01*
Y363635D01*
X1416452Y361096D01*
X1429148Y371253D02*
Y361096D01*
Y366174D01*
X1431687Y368713D01*
X1434226Y371253D01*
X1436765D01*
X1449461Y356018D02*
X1452000D01*
X1454539Y358557D01*
Y371253D01*
X1446922D01*
X1444383Y368713D01*
Y363635D01*
X1446922Y361096D01*
X1454539D01*
X1459618D02*
X1469775Y371253D01*
X1474853Y361096D02*
X1479931D01*
X1477392D01*
Y376331D01*
X1474853D01*
X1487549Y361096D02*
X1492627D01*
X1490088D01*
Y371253D01*
X1487549D01*
X1510401D02*
X1502784D01*
X1500245Y368713D01*
Y363635D01*
X1502784Y361096D01*
X1510401D01*
X1523097D02*
X1518019D01*
X1515480Y363635D01*
Y368713D01*
X1518019Y371253D01*
X1523097D01*
X1525636Y368713D01*
Y366174D01*
X1515480D01*
X1530715Y361096D02*
Y371253D01*
X1538332D01*
X1540872Y368713D01*
Y361096D01*
X1545950D02*
X1553568D01*
X1556107Y363635D01*
X1553568Y366174D01*
X1548489D01*
X1545950Y368713D01*
X1548489Y371253D01*
X1556107D01*
X1568802Y361096D02*
X1563724D01*
X1561185Y363635D01*
Y368713D01*
X1563724Y371253D01*
X1568802D01*
X1571342Y368713D01*
Y366174D01*
X1561185D01*
X1576420Y361096D02*
X1584038D01*
X1586577Y363635D01*
X1584038Y366174D01*
X1578959D01*
X1576420Y368713D01*
X1578959Y371253D01*
X1586577D01*
X1591655Y361096D02*
X1601812Y371253D01*
X1606890Y376331D02*
Y361096D01*
X1614508D01*
X1617047Y363635D01*
Y366174D01*
Y368713D01*
X1614508Y371253D01*
X1606890D01*
X1622125D02*
Y363635D01*
X1624664Y361096D01*
X1632282D01*
Y358557D01*
X1629743Y356018D01*
X1627204D01*
X1632282Y361096D02*
Y371253D01*
X1637360Y368713D02*
X1647517D01*
X1652595Y361096D02*
X1660213D01*
X1662752Y363635D01*
X1660213Y366174D01*
X1655135D01*
X1652595Y368713D01*
X1655135Y371253D01*
X1662752D01*
X1670370D02*
X1675448D01*
X1677987Y368713D01*
Y361096D01*
X1670370D01*
X1667831Y363635D01*
X1670370Y366174D01*
X1677987D01*
X1683066Y361096D02*
X1693222Y371253D01*
X1698301Y373792D02*
X1700840Y376331D01*
X1705918D01*
X1708457Y373792D01*
Y371253D01*
X1705918Y368713D01*
X1703379D01*
X1705918D01*
X1708457Y366174D01*
Y363635D01*
X1705918Y361096D01*
X1700840D01*
X1698301Y363635D01*
X1713536Y361096D02*
Y363635D01*
X1716075D01*
Y361096D01*
X1713536D01*
X1726232Y373792D02*
X1728771Y376331D01*
X1733849D01*
X1736388Y373792D01*
Y363635D01*
X1733849Y361096D01*
X1728771D01*
X1726232Y363635D01*
Y373792D01*
X1741467Y361096D02*
X1751623Y371253D01*
X1756702Y361096D02*
X1761780D01*
X1759241D01*
Y376331D01*
X1756702D01*
X1777015Y361096D02*
X1771937D01*
X1769398Y363635D01*
Y368713D01*
X1771937Y371253D01*
X1777015D01*
X1779554Y368713D01*
Y366174D01*
X1769398D01*
X1789711Y356018D02*
X1792250D01*
X1794789Y358557D01*
Y371253D01*
X1787172D01*
X1784633Y368713D01*
Y363635D01*
X1787172Y361096D01*
X1794789D01*
X1802407Y371253D02*
X1807485D01*
X1810025Y368713D01*
Y361096D01*
X1802407D01*
X1799868Y363635D01*
X1802407Y366174D01*
X1810025D01*
X1815103Y361096D02*
X1820181D01*
X1817642D01*
Y376331D01*
X1815103D01*
X1837955Y371253D02*
X1830338D01*
X1827799Y368713D01*
Y363635D01*
X1830338Y361096D01*
X1837955D01*
X1845573D02*
X1850651D01*
X1853190Y363635D01*
Y368713D01*
X1850651Y371253D01*
X1845573D01*
X1843034Y368713D01*
Y363635D01*
X1845573Y361096D01*
X1868426Y376331D02*
Y361096D01*
X1860808D01*
X1858269Y363635D01*
Y368713D01*
X1860808Y371253D01*
X1868426D01*
X1881122Y361096D02*
X1876043D01*
X1873504Y363635D01*
Y368713D01*
X1876043Y371253D01*
X1881122D01*
X1883661Y368713D01*
Y366174D01*
X1873504D01*
X1073663Y298792D02*
X1071124Y301331D01*
X1066045D01*
X1063506Y298792D01*
Y296253D01*
X1066045Y293713D01*
X1071124D01*
X1073663Y291174D01*
Y288635D01*
X1071124Y286096D01*
X1066045D01*
X1063506Y288635D01*
X1078741Y301331D02*
Y286096D01*
Y293713D01*
X1081280Y296253D01*
X1086359D01*
X1088898Y293713D01*
Y286096D01*
X1096515Y296253D02*
X1101594D01*
X1104133Y293713D01*
Y286096D01*
X1096515D01*
X1093976Y288635D01*
X1096515Y291174D01*
X1104133D01*
X1109211Y296253D02*
Y286096D01*
Y291174D01*
X1111750Y293713D01*
X1114290Y296253D01*
X1116829D01*
X1132064Y286096D02*
X1126985D01*
X1124446Y288635D01*
Y293713D01*
X1126985Y296253D01*
X1132064D01*
X1134603Y293713D01*
Y291174D01*
X1124446D01*
X1154917Y293713D02*
X1165073D01*
X1195543Y296253D02*
X1187926D01*
X1185387Y293713D01*
Y288635D01*
X1187926Y286096D01*
X1195543D01*
X1203161D02*
X1208239D01*
X1210778Y288635D01*
Y293713D01*
X1208239Y296253D01*
X1203161D01*
X1200622Y293713D01*
Y288635D01*
X1203161Y286096D01*
X1215857Y281018D02*
Y296253D01*
X1223474D01*
X1226013Y293713D01*
Y288635D01*
X1223474Y286096D01*
X1215857D01*
X1231092Y296253D02*
Y288635D01*
X1233631Y286096D01*
X1241248D01*
Y283557D01*
X1238709Y281018D01*
X1236170D01*
X1241248Y286096D02*
Y296253D01*
X1264101D02*
X1269180D01*
X1271719Y293713D01*
Y286096D01*
X1264101D01*
X1261562Y288635D01*
X1264101Y291174D01*
X1271719D01*
X1276797Y286096D02*
Y296253D01*
X1284415D01*
X1286954Y293713D01*
Y286096D01*
X1302189Y301331D02*
Y286096D01*
X1294571D01*
X1292032Y288635D01*
Y293713D01*
X1294571Y296253D01*
X1302189D01*
X1322502D02*
Y286096D01*
Y291174D01*
X1325041Y293713D01*
X1327581Y296253D01*
X1330120D01*
X1345355Y286096D02*
X1340276D01*
X1337737Y288635D01*
Y293713D01*
X1340276Y296253D01*
X1345355D01*
X1347894Y293713D01*
Y291174D01*
X1337737D01*
X1363129Y301331D02*
Y286096D01*
X1355512D01*
X1352972Y288635D01*
Y293713D01*
X1355512Y296253D01*
X1363129D01*
X1368208Y286096D02*
X1373286D01*
X1370747D01*
Y296253D01*
X1368208D01*
X1380903Y286096D02*
X1388521D01*
X1391060Y288635D01*
X1388521Y291174D01*
X1383443D01*
X1380903Y293713D01*
X1383443Y296253D01*
X1391060D01*
X1398678Y298792D02*
Y296253D01*
X1396138D01*
X1401217D01*
X1398678D01*
Y288635D01*
X1401217Y286096D01*
X1408834Y296253D02*
Y286096D01*
Y291174D01*
X1411373Y293713D01*
X1413913Y296253D01*
X1416452D01*
X1424069Y286096D02*
X1429148D01*
X1426609D01*
Y296253D01*
X1424069D01*
X1436765Y301331D02*
Y286096D01*
X1444383D01*
X1446922Y288635D01*
Y291174D01*
Y293713D01*
X1444383Y296253D01*
X1436765D01*
X1452000D02*
Y288635D01*
X1454539Y286096D01*
X1462157D01*
Y296253D01*
X1469775Y298792D02*
Y296253D01*
X1467235D01*
X1472314D01*
X1469775D01*
Y288635D01*
X1472314Y286096D01*
X1487549D02*
X1482471D01*
X1479931Y288635D01*
Y293713D01*
X1482471Y296253D01*
X1487549D01*
X1490088Y293713D01*
Y291174D01*
X1479931D01*
X1512941Y298792D02*
Y296253D01*
X1510401D01*
X1515480D01*
X1512941D01*
Y288635D01*
X1515480Y286096D01*
X1523097Y301331D02*
Y286096D01*
Y293713D01*
X1525636Y296253D01*
X1530715D01*
X1533254Y293713D01*
Y286096D01*
X1545950D02*
X1540872D01*
X1538332Y288635D01*
Y293713D01*
X1540872Y296253D01*
X1545950D01*
X1548489Y293713D01*
Y291174D01*
X1538332D01*
X1568803Y286096D02*
Y296253D01*
X1571342D01*
X1573881Y293713D01*
Y286096D01*
Y293713D01*
X1576420Y296253D01*
X1578959Y293713D01*
Y286096D01*
X1586577Y296253D02*
X1591655D01*
X1594194Y293713D01*
Y286096D01*
X1586577D01*
X1584038Y288635D01*
X1586577Y291174D01*
X1594194D01*
X1601812Y298792D02*
Y296253D01*
X1599273D01*
X1604351D01*
X1601812D01*
Y288635D01*
X1604351Y286096D01*
X1619586D02*
X1614508D01*
X1611969Y288635D01*
Y293713D01*
X1614508Y296253D01*
X1619586D01*
X1622125Y293713D01*
Y291174D01*
X1611969D01*
X1627204Y296253D02*
Y286096D01*
Y291174D01*
X1629743Y293713D01*
X1632282Y296253D01*
X1634821D01*
X1642439Y286096D02*
X1647517D01*
X1644978D01*
Y296253D01*
X1642439D01*
X1657674D02*
X1662752D01*
X1665291Y293713D01*
Y286096D01*
X1657674D01*
X1655135Y288635D01*
X1657674Y291174D01*
X1665291D01*
X1670370Y286096D02*
X1675448D01*
X1672909D01*
Y301331D01*
X1670370D01*
X1698301Y286096D02*
X1703379D01*
X1700840D01*
Y296253D01*
X1698301D01*
X1710997Y286096D02*
Y296253D01*
X1718614D01*
X1721153Y293713D01*
Y286096D01*
X1744006Y296253D02*
X1749084D01*
X1751623Y293713D01*
Y286096D01*
X1744006D01*
X1741467Y288635D01*
X1744006Y291174D01*
X1751623D01*
X1756702Y286096D02*
Y296253D01*
X1764319D01*
X1766859Y293713D01*
Y286096D01*
X1771937Y296253D02*
Y288635D01*
X1774476Y286096D01*
X1782094D01*
Y283557D01*
X1779554Y281018D01*
X1777015D01*
X1782094Y286096D02*
Y296253D01*
X1802407Y286096D02*
Y296253D01*
X1804946D01*
X1807485Y293713D01*
Y286096D01*
Y293713D01*
X1810025Y296253D01*
X1812564Y293713D01*
Y286096D01*
X1825260D02*
X1820181D01*
X1817642Y288635D01*
Y293713D01*
X1820181Y296253D01*
X1825260D01*
X1827799Y293713D01*
Y291174D01*
X1817642D01*
X1843034Y301331D02*
Y286096D01*
X1835416D01*
X1832877Y288635D01*
Y293713D01*
X1835416Y296253D01*
X1843034D01*
X1848112Y286096D02*
X1853190D01*
X1850651D01*
Y296253D01*
X1848112D01*
X1860808D02*
Y288635D01*
X1863347Y286096D01*
X1870965D01*
Y296253D01*
X1876043Y286096D02*
Y296253D01*
X1878582D01*
X1881122Y293713D01*
Y286096D01*
Y293713D01*
X1883661Y296253D01*
X1886200Y293713D01*
Y286096D01*
X1909052D02*
X1914131D01*
X1916670Y288635D01*
Y293713D01*
X1914131Y296253D01*
X1909052D01*
X1906513Y293713D01*
Y288635D01*
X1909052Y286096D01*
X1921748Y296253D02*
Y286096D01*
Y291174D01*
X1924288Y293713D01*
X1926827Y296253D01*
X1929366D01*
X1954758Y286096D02*
Y298792D01*
Y293713D01*
X1952218D01*
X1957297D01*
X1954758D01*
Y298792D01*
X1957297Y301331D01*
X1967454Y286096D02*
X1972532D01*
X1975071Y288635D01*
Y293713D01*
X1972532Y296253D01*
X1967454D01*
X1964914Y293713D01*
Y288635D01*
X1967454Y286096D01*
X1980150Y296253D02*
Y286096D01*
Y291174D01*
X1982689Y293713D01*
X1985228Y296253D01*
X1987767D01*
X1995385Y286096D02*
Y296253D01*
X1997924D01*
X2000463Y293713D01*
Y286096D01*
Y293713D01*
X2003002Y296253D01*
X2005541Y293713D01*
Y286096D01*
X2013159Y296253D02*
X2018237D01*
X2020776Y293713D01*
Y286096D01*
X2013159D01*
X2010620Y288635D01*
X2013159Y291174D01*
X2020776D01*
X2028394Y298792D02*
Y296253D01*
X2025855D01*
X2030933D01*
X2028394D01*
Y288635D01*
X2030933Y286096D01*
X1063506Y261096D02*
Y271253D01*
X1068584Y276331D01*
X1073663Y271253D01*
Y261096D01*
Y268713D01*
X1063506D01*
X1088898Y276331D02*
Y261096D01*
X1081280D01*
X1078741Y263635D01*
Y268713D01*
X1081280Y271253D01*
X1088898D01*
X1096515D02*
X1101594D01*
X1104133Y268713D01*
Y261096D01*
X1096515D01*
X1093976Y263635D01*
X1096515Y266174D01*
X1104133D01*
X1109211Y256018D02*
Y271253D01*
X1116829D01*
X1119368Y268713D01*
Y263635D01*
X1116829Y261096D01*
X1109211D01*
X1126985Y273792D02*
Y271253D01*
X1124446D01*
X1129525D01*
X1126985D01*
Y263635D01*
X1129525Y261096D01*
X1152377Y268713D02*
X1162534D01*
X1182847Y271253D02*
Y261096D01*
Y266174D01*
X1185387Y268713D01*
X1187926Y271253D01*
X1190465D01*
X1205700Y261096D02*
X1200622D01*
X1198083Y263635D01*
Y268713D01*
X1200622Y271253D01*
X1205700D01*
X1208239Y268713D01*
Y266174D01*
X1198083D01*
X1213318Y261096D02*
Y271253D01*
X1215857D01*
X1218396Y268713D01*
Y261096D01*
Y268713D01*
X1220935Y271253D01*
X1223474Y268713D01*
Y261096D01*
X1228553D02*
X1233631D01*
X1231092D01*
Y271253D01*
X1228553D01*
X1241248D02*
X1251405Y261096D01*
X1246327Y266174D01*
X1251405Y271253D01*
X1241248Y261096D01*
X1259023Y258557D02*
X1261562Y261096D01*
Y263635D01*
X1259023D01*
Y261096D01*
X1261562D01*
X1259023Y258557D01*
X1256484Y256018D01*
X1289493Y273792D02*
Y271253D01*
X1286954D01*
X1292032D01*
X1289493D01*
Y263635D01*
X1292032Y261096D01*
X1299650Y271253D02*
Y261096D01*
Y266174D01*
X1302189Y268713D01*
X1304728Y271253D01*
X1307267D01*
X1317424D02*
X1322502D01*
X1325041Y268713D01*
Y261096D01*
X1317424D01*
X1314885Y263635D01*
X1317424Y266174D01*
X1325041D01*
X1330120Y261096D02*
Y271253D01*
X1337737D01*
X1340276Y268713D01*
Y261096D01*
X1345355D02*
X1352972D01*
X1355512Y263635D01*
X1352972Y266174D01*
X1347894D01*
X1345355Y268713D01*
X1347894Y271253D01*
X1355512D01*
X1363129Y261096D02*
Y273792D01*
Y268713D01*
X1360590D01*
X1365668D01*
X1363129D01*
Y273792D01*
X1365668Y276331D01*
X1375825Y261096D02*
X1380903D01*
X1383443Y263635D01*
Y268713D01*
X1380903Y271253D01*
X1375825D01*
X1373286Y268713D01*
Y263635D01*
X1375825Y261096D01*
X1388521Y271253D02*
Y261096D01*
Y266174D01*
X1391060Y268713D01*
X1393599Y271253D01*
X1396138D01*
X1403756Y261096D02*
Y271253D01*
X1406295D01*
X1408834Y268713D01*
Y261096D01*
Y268713D01*
X1411373Y271253D01*
X1413913Y268713D01*
Y261096D01*
X1421530Y258557D02*
X1424069Y261096D01*
Y263635D01*
X1421530D01*
Y261096D01*
X1424069D01*
X1421530Y258557D01*
X1418991Y256018D01*
X1452000Y271253D02*
X1457079D01*
X1459618Y268713D01*
Y261096D01*
X1452000D01*
X1449461Y263635D01*
X1452000Y266174D01*
X1459618D01*
X1464696Y261096D02*
Y271253D01*
X1472314D01*
X1474853Y268713D01*
Y261096D01*
X1490088Y276331D02*
Y261096D01*
X1482471D01*
X1479931Y263635D01*
Y268713D01*
X1482471Y271253D01*
X1490088D01*
X1510401Y276331D02*
Y261096D01*
X1518019D01*
X1520558Y263635D01*
Y266174D01*
Y268713D01*
X1518019Y271253D01*
X1510401D01*
X1525636D02*
Y263635D01*
X1528176Y261096D01*
X1535793D01*
Y271253D01*
X1540872Y261096D02*
X1545950D01*
X1543411D01*
Y271253D01*
X1540872D01*
X1553568Y261096D02*
X1558646D01*
X1556107D01*
Y276331D01*
X1553568D01*
X1576420D02*
Y261096D01*
X1568803D01*
X1566263Y263635D01*
Y268713D01*
X1568803Y271253D01*
X1576420D01*
X1596734D02*
Y263635D01*
X1599273Y261096D01*
X1606890D01*
Y271253D01*
X1611969Y256018D02*
Y271253D01*
X1619586D01*
X1622125Y268713D01*
Y263635D01*
X1619586Y261096D01*
X1611969D01*
X1629743D02*
X1634821D01*
X1637360Y263635D01*
Y268713D01*
X1634821Y271253D01*
X1629743D01*
X1627204Y268713D01*
Y263635D01*
X1629743Y261096D01*
X1642439D02*
Y271253D01*
X1650056D01*
X1652596Y268713D01*
Y261096D01*
X1675448Y273792D02*
Y271253D01*
X1672909D01*
X1677987D01*
X1675448D01*
Y263635D01*
X1677987Y261096D01*
X1685605Y276331D02*
Y261096D01*
Y268713D01*
X1688144Y271253D01*
X1693222D01*
X1695762Y268713D01*
Y261096D01*
X1708457D02*
X1703379D01*
X1700840Y263635D01*
Y268713D01*
X1703379Y271253D01*
X1708457D01*
X1710997Y268713D01*
Y266174D01*
X1700840D01*
X1731310Y261096D02*
Y271253D01*
X1733849D01*
X1736388Y268713D01*
Y261096D01*
Y268713D01*
X1738927Y271253D01*
X1741467Y268713D01*
Y261096D01*
X1749084Y271253D02*
X1754163D01*
X1756702Y268713D01*
Y261096D01*
X1749084D01*
X1746545Y263635D01*
X1749084Y266174D01*
X1756702D01*
X1764319Y273792D02*
Y271253D01*
X1761780D01*
X1766859D01*
X1764319D01*
Y263635D01*
X1766859Y261096D01*
X1782094D02*
X1777015D01*
X1774476Y263635D01*
Y268713D01*
X1777015Y271253D01*
X1782094D01*
X1784633Y268713D01*
Y266174D01*
X1774476D01*
X1789711Y271253D02*
Y261096D01*
Y266174D01*
X1792250Y268713D01*
X1794789Y271253D01*
X1797329D01*
X1804946Y261096D02*
X1810025D01*
X1807485D01*
Y271253D01*
X1804946D01*
X1820181D02*
X1825260D01*
X1827799Y268713D01*
Y261096D01*
X1820181D01*
X1817642Y263635D01*
X1820181Y266174D01*
X1827799D01*
X1832877Y261096D02*
X1837955D01*
X1835416D01*
Y276331D01*
X1832877D01*
X1066045Y236096D02*
Y248792D01*
Y243713D01*
X1063506D01*
X1068584D01*
X1066045D01*
Y248792D01*
X1068584Y251331D01*
X1078741Y236096D02*
X1083819D01*
X1086359Y238635D01*
Y243713D01*
X1083819Y246253D01*
X1078741D01*
X1076202Y243713D01*
Y238635D01*
X1078741Y236096D01*
X1091437Y246253D02*
Y236096D01*
Y241174D01*
X1093976Y243713D01*
X1096515Y246253D01*
X1099054D01*
X1124446D02*
X1129525D01*
X1132064Y243713D01*
Y236096D01*
X1124446D01*
X1121907Y238635D01*
X1124446Y241174D01*
X1132064D01*
X1137142Y236096D02*
Y246253D01*
X1144760D01*
X1147299Y243713D01*
Y236096D01*
X1152377Y246253D02*
Y238635D01*
X1154917Y236096D01*
X1162534D01*
Y233557D01*
X1159995Y231018D01*
X1157456D01*
X1162534Y236096D02*
Y246253D01*
X1182847Y231018D02*
Y246253D01*
X1190465D01*
X1193004Y243713D01*
Y238635D01*
X1190465Y236096D01*
X1182847D01*
X1198083Y246253D02*
Y238635D01*
X1200622Y236096D01*
X1208239D01*
Y246253D01*
X1213318D02*
Y236096D01*
Y241174D01*
X1215857Y243713D01*
X1218396Y246253D01*
X1220935D01*
X1228553Y231018D02*
Y246253D01*
X1236170D01*
X1238709Y243713D01*
Y238635D01*
X1236170Y236096D01*
X1228553D01*
X1246327D02*
X1251405D01*
X1253944Y238635D01*
Y243713D01*
X1251405Y246253D01*
X1246327D01*
X1243788Y243713D01*
Y238635D01*
X1246327Y236096D01*
X1259023D02*
X1266640D01*
X1269180Y238635D01*
X1266640Y241174D01*
X1261562D01*
X1259023Y243713D01*
X1261562Y246253D01*
X1269180D01*
X1281875Y236096D02*
X1276797D01*
X1274258Y238635D01*
Y243713D01*
X1276797Y246253D01*
X1281875D01*
X1284415Y243713D01*
Y241174D01*
X1274258D01*
X1292032Y233557D02*
X1294571Y236096D01*
Y238635D01*
X1292032D01*
Y236096D01*
X1294571D01*
X1292032Y233557D01*
X1289493Y231018D01*
X1327581Y236096D02*
X1322502D01*
X1319963Y238635D01*
Y243713D01*
X1322502Y246253D01*
X1327581D01*
X1330120Y243713D01*
Y241174D01*
X1319963D01*
X1335198Y246253D02*
X1340276Y236096D01*
X1345355Y246253D01*
X1358051Y236096D02*
X1352972D01*
X1350433Y238635D01*
Y243713D01*
X1352972Y246253D01*
X1358051D01*
X1360590Y243713D01*
Y241174D01*
X1350433D01*
X1365668Y236096D02*
Y246253D01*
X1373286D01*
X1375825Y243713D01*
Y236096D01*
X1406295Y246253D02*
X1398678D01*
X1396138Y243713D01*
Y238635D01*
X1398678Y236096D01*
X1406295D01*
X1413913D02*
X1418991D01*
X1421530Y238635D01*
Y243713D01*
X1418991Y246253D01*
X1413913D01*
X1411373Y243713D01*
Y238635D01*
X1413913Y236096D01*
X1426609D02*
Y246253D01*
X1429148D01*
X1431687Y243713D01*
Y236096D01*
Y243713D01*
X1434226Y246253D01*
X1436765Y243713D01*
Y236096D01*
X1441844D02*
Y246253D01*
X1444383D01*
X1446922Y243713D01*
Y236096D01*
Y243713D01*
X1449461Y246253D01*
X1452000Y243713D01*
Y236096D01*
X1464696D02*
X1459618D01*
X1457079Y238635D01*
Y243713D01*
X1459618Y246253D01*
X1464696D01*
X1467235Y243713D01*
Y241174D01*
X1457079D01*
X1472314Y246253D02*
Y236096D01*
Y241174D01*
X1474853Y243713D01*
X1477392Y246253D01*
X1479931D01*
X1497706D02*
X1490088D01*
X1487549Y243713D01*
Y238635D01*
X1490088Y236096D01*
X1497706D01*
X1502784D02*
X1507862D01*
X1505323D01*
Y246253D01*
X1502784D01*
X1518019D02*
X1523097D01*
X1525636Y243713D01*
Y236096D01*
X1518019D01*
X1515480Y238635D01*
X1518019Y241174D01*
X1525636D01*
X1530715Y236096D02*
X1535793D01*
X1533254D01*
Y251331D01*
X1530715D01*
X1543411Y236096D02*
X1548489D01*
X1545950D01*
Y251331D01*
X1543411D01*
X1556107Y246253D02*
Y238635D01*
X1558646Y236096D01*
X1566263D01*
Y233557D01*
X1563724Y231018D01*
X1561185D01*
X1566263Y236096D02*
Y246253D01*
X1571342Y236096D02*
Y238635D01*
X1573881D01*
Y236096D01*
X1571342D01*
X1063506Y201331D02*
X1073663D01*
X1068584D01*
Y186096D01*
X1078741Y201331D02*
Y186096D01*
Y193713D01*
X1081280Y196253D01*
X1086359D01*
X1088898Y193713D01*
Y186096D01*
X1101594D02*
X1096515D01*
X1093976Y188635D01*
Y193713D01*
X1096515Y196253D01*
X1101594D01*
X1104133Y193713D01*
Y191174D01*
X1093976D01*
X1124446Y186096D02*
X1129525D01*
X1126985D01*
Y201331D01*
X1124446D01*
X1137142Y186096D02*
X1142221D01*
X1139681D01*
Y196253D01*
X1137142D01*
X1159995D02*
X1152377D01*
X1149838Y193713D01*
Y188635D01*
X1152377Y186096D01*
X1159995D01*
X1172691D02*
X1167612D01*
X1165073Y188635D01*
Y193713D01*
X1167612Y196253D01*
X1172691D01*
X1175230Y193713D01*
Y191174D01*
X1165073D01*
X1180308Y186096D02*
Y196253D01*
X1187926D01*
X1190465Y193713D01*
Y186096D01*
X1195543D02*
X1203161D01*
X1205700Y188635D01*
X1203161Y191174D01*
X1198083D01*
X1195543Y193713D01*
X1198083Y196253D01*
X1205700D01*
X1213318Y186096D02*
X1218396D01*
X1220935Y188635D01*
Y193713D01*
X1218396Y196253D01*
X1213318D01*
X1210778Y193713D01*
Y188635D01*
X1213318Y186096D01*
X1226013Y196253D02*
Y186096D01*
Y191174D01*
X1228553Y193713D01*
X1231092Y196253D01*
X1233631D01*
X1266640D02*
X1259023D01*
X1256484Y193713D01*
Y188635D01*
X1259023Y186096D01*
X1266640D01*
X1274258Y196253D02*
X1279336D01*
X1281875Y193713D01*
Y186096D01*
X1274258D01*
X1271719Y188635D01*
X1274258Y191174D01*
X1281875D01*
X1286954Y186096D02*
Y196253D01*
X1294571D01*
X1297110Y193713D01*
Y186096D01*
X1302189D02*
Y196253D01*
X1309806D01*
X1312345Y193713D01*
Y186096D01*
X1319963D02*
X1325041D01*
X1327581Y188635D01*
Y193713D01*
X1325041Y196253D01*
X1319963D01*
X1317424Y193713D01*
Y188635D01*
X1319963Y186096D01*
X1335198Y198792D02*
Y196253D01*
X1332659D01*
X1337737D01*
X1335198D01*
Y188635D01*
X1337737Y186096D01*
X1360590Y196253D02*
Y186096D01*
Y191174D01*
X1363129Y193713D01*
X1365668Y196253D01*
X1368207D01*
X1383443Y186096D02*
X1378364D01*
X1375825Y188635D01*
Y193713D01*
X1378364Y196253D01*
X1383443D01*
X1385982Y193713D01*
Y191174D01*
X1375825D01*
X1391060Y196253D02*
X1396138Y186096D01*
X1401217Y196253D01*
X1408834Y186096D02*
X1413913D01*
X1416452Y188635D01*
Y193713D01*
X1413913Y196253D01*
X1408834D01*
X1406295Y193713D01*
Y188635D01*
X1408834Y186096D01*
X1421530D02*
Y201331D01*
Y191174D02*
X1429148Y196253D01*
X1421530Y191174D02*
X1429148Y186096D01*
X1444383D02*
X1439305D01*
X1436765Y188635D01*
Y193713D01*
X1439305Y196253D01*
X1444383D01*
X1446922Y193713D01*
Y191174D01*
X1436765D01*
X1469775Y198792D02*
Y196253D01*
X1467235D01*
X1472314D01*
X1469775D01*
Y188635D01*
X1472314Y186096D01*
X1479931Y201331D02*
Y186096D01*
Y193713D01*
X1482471Y196253D01*
X1487549D01*
X1490088Y193713D01*
Y186096D01*
X1502784D02*
X1497706D01*
X1495166Y188635D01*
Y193713D01*
X1497706Y196253D01*
X1502784D01*
X1505323Y193713D01*
Y191174D01*
X1495166D01*
X1510401Y186096D02*
X1518019D01*
X1520558Y188635D01*
X1518019Y191174D01*
X1512941D01*
X1510401Y193713D01*
X1512941Y196253D01*
X1520558D01*
X1533254Y186096D02*
X1528176D01*
X1525636Y188635D01*
Y193713D01*
X1528176Y196253D01*
X1533254D01*
X1535793Y193713D01*
Y191174D01*
X1525636D01*
X1558646Y186096D02*
Y198792D01*
Y193713D01*
X1556107D01*
X1561185D01*
X1558646D01*
Y198792D01*
X1561185Y201331D01*
X1568803Y196253D02*
Y186096D01*
Y191174D01*
X1571342Y193713D01*
X1573881Y196253D01*
X1576420D01*
X1591655Y186096D02*
X1586577D01*
X1584038Y188635D01*
Y193713D01*
X1586577Y196253D01*
X1591655D01*
X1594194Y193713D01*
Y191174D01*
X1584038D01*
X1606890Y186096D02*
X1601812D01*
X1599273Y188635D01*
Y193713D01*
X1601812Y196253D01*
X1606890D01*
X1609429Y193713D01*
Y191174D01*
X1599273D01*
X1624664Y201331D02*
Y186096D01*
X1617047D01*
X1614508Y188635D01*
Y193713D01*
X1617047Y196253D01*
X1624664D01*
X1632282Y186096D02*
X1637360D01*
X1639900Y188635D01*
Y193713D01*
X1637360Y196253D01*
X1632282D01*
X1629743Y193713D01*
Y188635D01*
X1632282Y186096D01*
X1644978D02*
Y196253D01*
X1647517D01*
X1650056Y193713D01*
Y186096D01*
Y193713D01*
X1652596Y196253D01*
X1655135Y193713D01*
Y186096D01*
X1660213D02*
X1667831D01*
X1670370Y188635D01*
X1667831Y191174D01*
X1662752D01*
X1660213Y193713D01*
X1662752Y196253D01*
X1670370D01*
X1693222D02*
X1698301D01*
X1700840Y193713D01*
Y186096D01*
X1693222D01*
X1690683Y188635D01*
X1693222Y191174D01*
X1700840D01*
X1705918Y186096D02*
X1713536D01*
X1716075Y188635D01*
X1713536Y191174D01*
X1708457D01*
X1705918Y193713D01*
X1708457Y196253D01*
X1716075D01*
X1736388Y186096D02*
X1741467D01*
X1738927D01*
Y201331D01*
X1736388D01*
X1751623Y186096D02*
X1756702D01*
X1759241Y188635D01*
Y193713D01*
X1756702Y196253D01*
X1751623D01*
X1749084Y193713D01*
Y188635D01*
X1751623Y186096D01*
X1764319D02*
Y196253D01*
X1771937D01*
X1774476Y193713D01*
Y186096D01*
X1784633Y181018D02*
X1787172D01*
X1789711Y183557D01*
Y196253D01*
X1782094D01*
X1779554Y193713D01*
Y188635D01*
X1782094Y186096D01*
X1789711D01*
X1812564Y196253D02*
X1817642D01*
X1820181Y193713D01*
Y186096D01*
X1812564D01*
X1810025Y188635D01*
X1812564Y191174D01*
X1820181D01*
X1825260Y186096D02*
X1832877D01*
X1835416Y188635D01*
X1832877Y191174D01*
X1827799D01*
X1825260Y193713D01*
X1827799Y196253D01*
X1835416D01*
X1855730D02*
Y188635D01*
X1858269Y186096D01*
X1865887D01*
Y183557D01*
X1863347Y181018D01*
X1860808D01*
X1865887Y186096D02*
Y196253D01*
X1873504Y186096D02*
X1878582D01*
X1881122Y188635D01*
Y193713D01*
X1878582Y196253D01*
X1873504D01*
X1870965Y193713D01*
Y188635D01*
X1873504Y186096D01*
X1886200Y196253D02*
Y188635D01*
X1888739Y186096D01*
X1896357D01*
Y196253D01*
X1919209Y186096D02*
Y198792D01*
Y193713D01*
X1916670D01*
X1921748D01*
X1919209D01*
Y198792D01*
X1921748Y201331D01*
X1931905Y186096D02*
X1936983D01*
X1939523Y188635D01*
Y193713D01*
X1936983Y196253D01*
X1931905D01*
X1929366Y193713D01*
Y188635D01*
X1931905Y186096D01*
X1944601D02*
X1949679D01*
X1947140D01*
Y201331D01*
X1944601D01*
X1957297Y186096D02*
X1962375D01*
X1959836D01*
Y201331D01*
X1957297D01*
X1972532Y186096D02*
X1977610D01*
X1980150Y188635D01*
Y193713D01*
X1977610Y196253D01*
X1972532D01*
X1969993Y193713D01*
Y188635D01*
X1972532Y186096D01*
X1985228Y196253D02*
Y188635D01*
X1987767Y186096D01*
X1990306Y188635D01*
X1992845Y186096D01*
X1995385Y188635D01*
Y196253D01*
X2018237Y198792D02*
Y196253D01*
X2015698D01*
X2020776D01*
X2018237D01*
Y188635D01*
X2020776Y186096D01*
X2028394Y201331D02*
Y186096D01*
Y193713D01*
X2030933Y196253D01*
X2036011D01*
X2038551Y193713D01*
Y186096D01*
X2051246D02*
X2046168D01*
X2043629Y188635D01*
Y193713D01*
X2046168Y196253D01*
X2051246D01*
X2053786Y193713D01*
Y191174D01*
X2043629D01*
X2074099Y186096D02*
X2079177D01*
X2076638D01*
Y201331D01*
X2074099D01*
X2086795Y186096D02*
X2091873D01*
X2089334D01*
Y196253D01*
X2086795D01*
X2109648D02*
X2102030D01*
X2099491Y193713D01*
Y188635D01*
X2102030Y186096D01*
X2109648D01*
X2122343D02*
X2117265D01*
X2114726Y188635D01*
Y193713D01*
X2117265Y196253D01*
X2122343D01*
X2124883Y193713D01*
Y191174D01*
X2114726D01*
X2129961Y186096D02*
Y196253D01*
X2137578D01*
X2140118Y193713D01*
Y186096D01*
X2145196D02*
X2152814D01*
X2155353Y188635D01*
X2152814Y191174D01*
X2147735D01*
X2145196Y193713D01*
X2147735Y196253D01*
X2155353D01*
X2168049Y186096D02*
X2162970D01*
X2160431Y188635D01*
Y193713D01*
X2162970Y196253D01*
X2168049D01*
X2170588Y193713D01*
Y191174D01*
X2160431D01*
X2193441Y198792D02*
Y196253D01*
X2190901D01*
X2195980D01*
X2193441D01*
Y188635D01*
X2195980Y186096D01*
X2211215D02*
X2206136D01*
X2203597Y188635D01*
Y193713D01*
X2206136Y196253D01*
X2211215D01*
X2213754Y193713D01*
Y191174D01*
X2203597D01*
X2218832Y196253D02*
Y186096D01*
Y191174D01*
X2221371Y193713D01*
X2223911Y196253D01*
X2226450D01*
X2234067Y186096D02*
Y196253D01*
X2236606D01*
X2239146Y193713D01*
Y186096D01*
Y193713D01*
X2241685Y196253D01*
X2244224Y193713D01*
Y186096D01*
X2249302D02*
X2256920D01*
X2259459Y188635D01*
X2256920Y191174D01*
X2251842D01*
X2249302Y193713D01*
X2251842Y196253D01*
X2259459D01*
X2264538Y186096D02*
Y188635D01*
X2267077D01*
Y186096D01*
X2264538D01*
X1063506Y151331D02*
Y138635D01*
X1066045Y136096D01*
X1071124D01*
X1073663Y138635D01*
Y151331D01*
X1078741Y136096D02*
Y146253D01*
X1086359D01*
X1088898Y143714D01*
Y136096D01*
X1104133Y151331D02*
Y136096D01*
X1096515D01*
X1093976Y138635D01*
Y143714D01*
X1096515Y146253D01*
X1104133D01*
X1116829Y136096D02*
X1111750D01*
X1109211Y138635D01*
Y143714D01*
X1111750Y146253D01*
X1116829D01*
X1119368Y143714D01*
Y141174D01*
X1109211D01*
X1124446Y146253D02*
Y136096D01*
Y141174D01*
X1126985Y143714D01*
X1129525Y146253D01*
X1132064D01*
X1157456Y148792D02*
Y146253D01*
X1154917D01*
X1159995D01*
X1157456D01*
Y138635D01*
X1159995Y136096D01*
X1167612Y151331D02*
Y136096D01*
Y143714D01*
X1170152Y146253D01*
X1175230D01*
X1177769Y143714D01*
Y136096D01*
X1190465D02*
X1185387D01*
X1182847Y138635D01*
Y143714D01*
X1185387Y146253D01*
X1190465D01*
X1193004Y143714D01*
Y141174D01*
X1182847D01*
X1215857Y136096D02*
Y148792D01*
Y143714D01*
X1213318D01*
X1218396D01*
X1215857D01*
Y148792D01*
X1218396Y151331D01*
X1228553Y136096D02*
X1233631D01*
X1236170Y138635D01*
Y143714D01*
X1233631Y146253D01*
X1228553D01*
X1226013Y143714D01*
Y138635D01*
X1228553Y136096D01*
X1241248D02*
X1246327D01*
X1243788D01*
Y151331D01*
X1241248D01*
X1253944Y136096D02*
X1259023D01*
X1256484D01*
Y151331D01*
X1253944D01*
X1269180Y136096D02*
X1274258D01*
X1276797Y138635D01*
Y143714D01*
X1274258Y146253D01*
X1269180D01*
X1266640Y143714D01*
Y138635D01*
X1269180Y136096D01*
X1281875Y146253D02*
Y138635D01*
X1284415Y136096D01*
X1286954Y138635D01*
X1289493Y136096D01*
X1292032Y138635D01*
Y146253D01*
X1297110Y136096D02*
X1302189D01*
X1299650D01*
Y146253D01*
X1297110D01*
X1309806Y136096D02*
Y146253D01*
X1317424D01*
X1319963Y143714D01*
Y136096D01*
X1330120Y131018D02*
X1332659D01*
X1335198Y133557D01*
Y146253D01*
X1327581D01*
X1325041Y143714D01*
Y138635D01*
X1327581Y136096D01*
X1335198D01*
X1358051Y148792D02*
Y146253D01*
X1355511D01*
X1360590D01*
X1358051D01*
Y138635D01*
X1360590Y136096D01*
X1375825D02*
X1370747D01*
X1368207Y138635D01*
Y143714D01*
X1370747Y146253D01*
X1375825D01*
X1378364Y143714D01*
Y141174D01*
X1368207D01*
X1383443Y146253D02*
Y136096D01*
Y141174D01*
X1385982Y143714D01*
X1388521Y146253D01*
X1391060D01*
X1398678Y136096D02*
Y146253D01*
X1401217D01*
X1403756Y143714D01*
Y136096D01*
Y143714D01*
X1406295Y146253D01*
X1408834Y143714D01*
Y136096D01*
X1413913D02*
X1421530D01*
X1424069Y138635D01*
X1421530Y141174D01*
X1416452D01*
X1413913Y143714D01*
X1416452Y146253D01*
X1424069D01*
X1429148D02*
X1431687D01*
Y143714D01*
X1429148D01*
Y146253D01*
Y138635D02*
X1431687D01*
Y136096D01*
X1429148D01*
Y138635D01*
X1063506Y111096D02*
Y121253D01*
X1068584Y126331D01*
X1073663Y121253D01*
Y111096D01*
Y118714D01*
X1063506D01*
X1081280Y123792D02*
Y121253D01*
X1078741D01*
X1083819D01*
X1081280D01*
Y113635D01*
X1083819Y111096D01*
X1093976Y123792D02*
Y121253D01*
X1091437D01*
X1096515D01*
X1093976D01*
Y113635D01*
X1096515Y111096D01*
X1104133Y121253D02*
Y111096D01*
Y116174D01*
X1106672Y118714D01*
X1109211Y121253D01*
X1111750D01*
X1119368Y111096D02*
X1124446D01*
X1121907D01*
Y121253D01*
X1119368D01*
X1132064Y126331D02*
Y111096D01*
X1139681D01*
X1142221Y113635D01*
Y116174D01*
Y118714D01*
X1139681Y121253D01*
X1132064D01*
X1147299D02*
Y113635D01*
X1149838Y111096D01*
X1157456D01*
Y121253D01*
X1165073Y123792D02*
Y121253D01*
X1162534D01*
X1167612D01*
X1165073D01*
Y113635D01*
X1167612Y111096D01*
X1175230D02*
X1180308D01*
X1177769D01*
Y121253D01*
X1175230D01*
X1190465Y111096D02*
X1195543D01*
X1198083Y113635D01*
Y118714D01*
X1195543Y121253D01*
X1190465D01*
X1187926Y118714D01*
Y113635D01*
X1190465Y111096D01*
X1203161D02*
Y121253D01*
X1210778D01*
X1213317Y118714D01*
Y111096D01*
X1233631Y118714D02*
X1243788D01*
X1264101Y126331D02*
Y123792D01*
X1269180Y118714D01*
X1274258Y123792D01*
Y126331D01*
X1269180Y118714D02*
Y111096D01*
X1281875D02*
X1286954D01*
X1289493Y113635D01*
Y118714D01*
X1286954Y121253D01*
X1281875D01*
X1279336Y118714D01*
Y113635D01*
X1281875Y111096D01*
X1294571Y121253D02*
Y113635D01*
X1297110Y111096D01*
X1304728D01*
Y121253D01*
X1325041Y111096D02*
Y121253D01*
X1327581D01*
X1330120Y118714D01*
Y111096D01*
Y118714D01*
X1332659Y121253D01*
X1335198Y118714D01*
Y111096D01*
X1340276Y121253D02*
Y113635D01*
X1342816Y111096D01*
X1350433D01*
Y121253D01*
X1355511Y111096D02*
X1363129D01*
X1365668Y113635D01*
X1363129Y116174D01*
X1358051D01*
X1355511Y118714D01*
X1358051Y121253D01*
X1365668D01*
X1373286Y123792D02*
Y121253D01*
X1370747D01*
X1375825D01*
X1373286D01*
Y113635D01*
X1375825Y111096D01*
X1403756Y106018D02*
X1406295D01*
X1408834Y108557D01*
Y121253D01*
X1401217D01*
X1398678Y118714D01*
Y113635D01*
X1401217Y111096D01*
X1408834D01*
X1413913D02*
X1418991D01*
X1416452D01*
Y121253D01*
X1413913D01*
X1426608D02*
X1431687Y111096D01*
X1436765Y121253D01*
X1449461Y111096D02*
X1444383D01*
X1441844Y113635D01*
Y118714D01*
X1444383Y121253D01*
X1449461D01*
X1452000Y118714D01*
Y116174D01*
X1441844D01*
X1474853Y121253D02*
X1479931D01*
X1482471Y118714D01*
Y111096D01*
X1474853D01*
X1472314Y113635D01*
X1474853Y116174D01*
X1482471D01*
X1487549Y106018D02*
Y121253D01*
X1495166D01*
X1497706Y118714D01*
Y113635D01*
X1495166Y111096D01*
X1487549D01*
X1502784Y106018D02*
Y121253D01*
X1510401D01*
X1512941Y118714D01*
Y113635D01*
X1510401Y111096D01*
X1502784D01*
X1518019Y121253D02*
Y111096D01*
Y116174D01*
X1520558Y118714D01*
X1523097Y121253D01*
X1525636D01*
X1535793Y111096D02*
X1540872D01*
X1543411Y113635D01*
Y118714D01*
X1540872Y121253D01*
X1535793D01*
X1533254Y118714D01*
Y113635D01*
X1535793Y111096D01*
X1548489Y106018D02*
Y121253D01*
X1556107D01*
X1558646Y118714D01*
Y113635D01*
X1556107Y111096D01*
X1548489D01*
X1563724Y121253D02*
Y111096D01*
Y116174D01*
X1566263Y118714D01*
X1568802Y121253D01*
X1571342D01*
X1578959Y111096D02*
X1584038D01*
X1581498D01*
Y121253D01*
X1578959D01*
X1594194D02*
X1599273D01*
X1601812Y118714D01*
Y111096D01*
X1594194D01*
X1591655Y113635D01*
X1594194Y116174D01*
X1601812D01*
X1609429Y123792D02*
Y121253D01*
X1606890D01*
X1611969D01*
X1609429D01*
Y113635D01*
X1611969Y111096D01*
X1627204D02*
X1622125D01*
X1619586Y113635D01*
Y118714D01*
X1622125Y121253D01*
X1627204D01*
X1629743Y118714D01*
Y116174D01*
X1619586D01*
X1660213Y121253D02*
X1652595D01*
X1650056Y118714D01*
Y113635D01*
X1652595Y111096D01*
X1660213D01*
X1665291Y121253D02*
Y111096D01*
Y116174D01*
X1667831Y118714D01*
X1670370Y121253D01*
X1672909D01*
X1688144Y111096D02*
X1683066D01*
X1680526Y113635D01*
Y118714D01*
X1683066Y121253D01*
X1688144D01*
X1690683Y118714D01*
Y116174D01*
X1680526D01*
X1705918Y126331D02*
Y111096D01*
X1698301D01*
X1695762Y113635D01*
Y118714D01*
X1698301Y121253D01*
X1705918D01*
X1710997Y111096D02*
X1716075D01*
X1713536D01*
Y121253D01*
X1710997D01*
X1726232Y123792D02*
Y121253D01*
X1723692D01*
X1728771D01*
X1726232D01*
Y113635D01*
X1728771Y111096D01*
X1738927Y108557D02*
X1741467Y111096D01*
Y113635D01*
X1738927D01*
Y111096D01*
X1741467D01*
X1738927Y108557D01*
X1736388Y106018D01*
X1766858D02*
Y121253D01*
X1774476D01*
X1777015Y118714D01*
Y113635D01*
X1774476Y111096D01*
X1766858D01*
X1782094Y121253D02*
Y111096D01*
Y116174D01*
X1784633Y118714D01*
X1787172Y121253D01*
X1789711D01*
X1799868Y111096D02*
X1804946D01*
X1807485Y113635D01*
Y118714D01*
X1804946Y121253D01*
X1799868D01*
X1797329Y118714D01*
Y113635D01*
X1799868Y111096D01*
X1812564Y121253D02*
X1817642Y111096D01*
X1822720Y121253D01*
X1827799Y111096D02*
X1832877D01*
X1830338D01*
Y121253D01*
X1827799D01*
X1850651Y126331D02*
Y111096D01*
X1843034D01*
X1840495Y113635D01*
Y118714D01*
X1843034Y121253D01*
X1850651D01*
X1863347Y111096D02*
X1858269D01*
X1855730Y113635D01*
Y118714D01*
X1858269Y121253D01*
X1863347D01*
X1865886Y118714D01*
Y116174D01*
X1855730D01*
X1888739Y121253D02*
X1893817D01*
X1896357Y118714D01*
Y111096D01*
X1888739D01*
X1886200Y113635D01*
X1888739Y116174D01*
X1896357D01*
X1916670Y111096D02*
X1921748D01*
X1919209D01*
Y126331D01*
X1916670D01*
X1929366Y111096D02*
X1934444D01*
X1931905D01*
Y121253D01*
X1929366D01*
X1942062Y111096D02*
Y121253D01*
X1949679D01*
X1952218Y118714D01*
Y111096D01*
X1957297D02*
Y126331D01*
Y116174D02*
X1964914Y121253D01*
X1957297Y116174D02*
X1964914Y111096D01*
X1990306Y123792D02*
Y121253D01*
X1987767D01*
X1992845D01*
X1990306D01*
Y113635D01*
X1992845Y111096D01*
X2003002D02*
X2008080D01*
X2010620Y113635D01*
Y118714D01*
X2008080Y121253D01*
X2003002D01*
X2000463Y118714D01*
Y113635D01*
X2003002Y111096D01*
X2033472Y123792D02*
Y121253D01*
X2030933D01*
X2036011D01*
X2033472D01*
Y113635D01*
X2036011Y111096D01*
X2043629Y126331D02*
Y111096D01*
Y118714D01*
X2046168Y121253D01*
X2051246D01*
X2053786Y118714D01*
Y111096D01*
X2066481D02*
X2061403D01*
X2058864Y113635D01*
Y118714D01*
X2061403Y121253D01*
X2066481D01*
X2069021Y118714D01*
Y116174D01*
X2058864D01*
X2089334Y111096D02*
X2094412D01*
X2091873D01*
Y126331D01*
X2089334D01*
X2102030Y111096D02*
X2107108D01*
X2104569D01*
Y121253D01*
X2102030D01*
X2124883D02*
X2117265D01*
X2114726Y118714D01*
Y113635D01*
X2117265Y111096D01*
X2124883D01*
X2137578D02*
X2132500D01*
X2129961Y113635D01*
Y118714D01*
X2132500Y121253D01*
X2137578D01*
X2140118Y118714D01*
Y116174D01*
X2129961D01*
X2145196Y111096D02*
Y121253D01*
X2152814D01*
X2155353Y118714D01*
Y111096D01*
X2160431D02*
X2168049D01*
X2170588Y113635D01*
X2168049Y116174D01*
X2162970D01*
X2160431Y118714D01*
X2162970Y121253D01*
X2170588D01*
X2183284Y111096D02*
X2178205D01*
X2175666Y113635D01*
Y118714D01*
X2178205Y121253D01*
X2183284D01*
X2185823Y118714D01*
Y116174D01*
X2175666D01*
X2193440Y108557D02*
X2195980Y111096D01*
Y113635D01*
X2193440D01*
Y111096D01*
X2195980D01*
X2193440Y108557D01*
X2190901Y106018D01*
X2223911Y121253D02*
X2228989D01*
X2231528Y118714D01*
Y111096D01*
X2223911D01*
X2221371Y113635D01*
X2223911Y116174D01*
X2231528D01*
X2236606Y111096D02*
Y121253D01*
X2244224D01*
X2246763Y118714D01*
Y111096D01*
X2261998Y126331D02*
Y111096D01*
X2254381D01*
X2251841Y113635D01*
Y118714D01*
X2254381Y121253D01*
X2261998D01*
X1063506Y86096D02*
X1068584D01*
X1066045D01*
Y96253D01*
X1063506D01*
X1076202Y86096D02*
Y96253D01*
X1083819D01*
X1086359Y93714D01*
Y86096D01*
X1101594Y101331D02*
Y86096D01*
X1093976D01*
X1091437Y88635D01*
Y93714D01*
X1093976Y96253D01*
X1101594D01*
X1106672Y86096D02*
X1111750D01*
X1109211D01*
Y96253D01*
X1106672D01*
X1129525D02*
X1121907D01*
X1119368Y93714D01*
Y88635D01*
X1121907Y86096D01*
X1129525D01*
X1137142Y96253D02*
X1142221D01*
X1144760Y93714D01*
Y86096D01*
X1137142D01*
X1134603Y88635D01*
X1137142Y91174D01*
X1144760D01*
X1152377Y98792D02*
Y96253D01*
X1149838D01*
X1154916D01*
X1152377D01*
Y88635D01*
X1154916Y86096D01*
X1170152D02*
X1165073D01*
X1162534Y88635D01*
Y93714D01*
X1165073Y96253D01*
X1170152D01*
X1172691Y93714D01*
Y91174D01*
X1162534D01*
X1193004Y86096D02*
X1198083D01*
X1195543D01*
Y96253D01*
X1193004D01*
X1208239Y86096D02*
Y98792D01*
Y93714D01*
X1205700D01*
X1210778D01*
X1208239D01*
Y98792D01*
X1210778Y101331D01*
X1243788Y96253D02*
X1236170D01*
X1233631Y93714D01*
Y88635D01*
X1236170Y86096D01*
X1243788D01*
X1248866Y101331D02*
Y86096D01*
Y93714D01*
X1251405Y96253D01*
X1256484D01*
X1259023Y93714D01*
Y86096D01*
X1266640Y96253D02*
X1271719D01*
X1274258Y93714D01*
Y86096D01*
X1266640D01*
X1264101Y88635D01*
X1266640Y91174D01*
X1274258D01*
X1279336Y86096D02*
Y96253D01*
X1286954D01*
X1289493Y93714D01*
Y86096D01*
X1299650Y81018D02*
X1302189D01*
X1304728Y83557D01*
Y96253D01*
X1297110D01*
X1294571Y93714D01*
Y88635D01*
X1297110Y86096D01*
X1304728D01*
X1317424D02*
X1312345D01*
X1309806Y88635D01*
Y93714D01*
X1312345Y96253D01*
X1317424D01*
X1319963Y93714D01*
Y91174D01*
X1309806D01*
X1325041Y86096D02*
X1332659D01*
X1335198Y88635D01*
X1332659Y91174D01*
X1327581D01*
X1325041Y93714D01*
X1327581Y96253D01*
X1335198D01*
X1355511D02*
Y88635D01*
X1358051Y86096D01*
X1360590Y88635D01*
X1363129Y86096D01*
X1365668Y88635D01*
Y96253D01*
X1378364Y86096D02*
X1373286D01*
X1370747Y88635D01*
Y93714D01*
X1373286Y96253D01*
X1378364D01*
X1380903Y93714D01*
Y91174D01*
X1370747D01*
X1385982Y96253D02*
Y86096D01*
Y91174D01*
X1388521Y93714D01*
X1391060Y96253D01*
X1393599D01*
X1408834Y86096D02*
X1403756D01*
X1401217Y88635D01*
Y93714D01*
X1403756Y96253D01*
X1408834D01*
X1411373Y93714D01*
Y91174D01*
X1401217D01*
X1431687Y86096D02*
Y96253D01*
X1434226D01*
X1436765Y93714D01*
Y86096D01*
Y93714D01*
X1439304Y96253D01*
X1441844Y93714D01*
Y86096D01*
X1449461Y96253D02*
X1454539D01*
X1457079Y93714D01*
Y86096D01*
X1449461D01*
X1446922Y88635D01*
X1449461Y91174D01*
X1457079D01*
X1472314Y101331D02*
Y86096D01*
X1464696D01*
X1462157Y88635D01*
Y93714D01*
X1464696Y96253D01*
X1472314D01*
X1485010Y86096D02*
X1479931D01*
X1477392Y88635D01*
Y93714D01*
X1479931Y96253D01*
X1485010D01*
X1487549Y93714D01*
Y91174D01*
X1477392D01*
X1492627Y86096D02*
Y88635D01*
X1495166D01*
Y86096D01*
X1492627D01*
X1520558Y101331D02*
Y98792D01*
X1525636Y93714D01*
X1530715Y98792D01*
Y101331D01*
X1525636Y93714D02*
Y86096D01*
X1538332D02*
X1543411D01*
X1545950Y88635D01*
Y93714D01*
X1543411Y96253D01*
X1538332D01*
X1535793Y93714D01*
Y88635D01*
X1538332Y86096D01*
X1551028Y96253D02*
Y88635D01*
X1553568Y86096D01*
X1561185D01*
Y96253D01*
X1581498Y86096D02*
Y96253D01*
X1584038D01*
X1586577Y93714D01*
Y86096D01*
Y93714D01*
X1589116Y96253D01*
X1591655Y93714D01*
Y86096D01*
X1599273Y96253D02*
X1604351D01*
X1606890Y93714D01*
Y86096D01*
X1599273D01*
X1596734Y88635D01*
X1599273Y91174D01*
X1606890D01*
X1611969Y96253D02*
Y88635D01*
X1614508Y86096D01*
X1622125D01*
Y83557D01*
X1619586Y81018D01*
X1617047D01*
X1622125Y86096D02*
Y96253D01*
X1652596Y101331D02*
Y86096D01*
X1644978D01*
X1642439Y88635D01*
Y93714D01*
X1644978Y96253D01*
X1652596D01*
X1660213Y86096D02*
X1665291D01*
X1667831Y88635D01*
Y93714D01*
X1665291Y96253D01*
X1660213D01*
X1657674Y93714D01*
Y88635D01*
X1660213Y86096D01*
X1688144D02*
X1695762D01*
X1698301Y88635D01*
X1695762Y91174D01*
X1690683D01*
X1688144Y93714D01*
X1690683Y96253D01*
X1698301D01*
X1705918Y86096D02*
X1710997D01*
X1713536Y88635D01*
Y93714D01*
X1710997Y96253D01*
X1705918D01*
X1703379Y93714D01*
Y88635D01*
X1705918Y86096D01*
X1733849D02*
X1738927D01*
X1736388D01*
Y96253D01*
X1733849D01*
X1746545Y86096D02*
Y96253D01*
X1754163D01*
X1756702Y93714D01*
Y86096D01*
X1779554Y96253D02*
X1784633D01*
X1787172Y93714D01*
Y86096D01*
X1779554D01*
X1777015Y88635D01*
X1779554Y91174D01*
X1787172D01*
X1792250Y86096D02*
Y96253D01*
X1799868D01*
X1802407Y93714D01*
Y86096D01*
X1807485Y96253D02*
Y88635D01*
X1810025Y86096D01*
X1817642D01*
Y83557D01*
X1815103Y81018D01*
X1812564D01*
X1817642Y86096D02*
Y96253D01*
X1837955D02*
Y86096D01*
Y91174D01*
X1840495Y93714D01*
X1843034Y96253D01*
X1845573D01*
X1860808Y86096D02*
X1855730D01*
X1853191Y88635D01*
Y93714D01*
X1855730Y96253D01*
X1860808D01*
X1863347Y93714D01*
Y91174D01*
X1853191D01*
X1870965Y96253D02*
X1876043D01*
X1878582Y93714D01*
Y86096D01*
X1870965D01*
X1868426Y88635D01*
X1870965Y91174D01*
X1878582D01*
X1883661Y86096D02*
X1891278D01*
X1893817Y88635D01*
X1891278Y91174D01*
X1886200D01*
X1883661Y93714D01*
X1886200Y96253D01*
X1893817D01*
X1901435Y86096D02*
X1906513D01*
X1909052Y88635D01*
Y93714D01*
X1906513Y96253D01*
X1901435D01*
X1898896Y93714D01*
Y88635D01*
X1901435Y86096D01*
X1914131D02*
Y96253D01*
X1921748D01*
X1924288Y93714D01*
Y86096D01*
X1931905Y96253D02*
X1936983D01*
X1939523Y93714D01*
Y86096D01*
X1931905D01*
X1929366Y88635D01*
X1931905Y91174D01*
X1939523D01*
X1944601Y101331D02*
Y86096D01*
X1952218D01*
X1954758Y88635D01*
Y91174D01*
Y93714D01*
X1952218Y96253D01*
X1944601D01*
X1959836Y86096D02*
X1964914D01*
X1962375D01*
Y101331D01*
X1959836D01*
X1980150Y86096D02*
X1975071D01*
X1972532Y88635D01*
Y93714D01*
X1975071Y96253D01*
X1980150D01*
X1982689Y93714D01*
Y91174D01*
X1972532D01*
X2003002Y86096D02*
Y96253D01*
X2005541D01*
X2008080Y93714D01*
Y86096D01*
Y93714D01*
X2010620Y96253D01*
X2013159Y93714D01*
Y86096D01*
X2020776Y96253D02*
X2025855D01*
X2028394Y93714D01*
Y86096D01*
X2020776D01*
X2018237Y88635D01*
X2020776Y91174D01*
X2028394D01*
X2033472Y86096D02*
Y96253D01*
X2041090D01*
X2043629Y93714D01*
Y86096D01*
X2048707D02*
Y96253D01*
X2056325D01*
X2058864Y93714D01*
Y86096D01*
X2071560D02*
X2066482D01*
X2063942Y88635D01*
Y93714D01*
X2066482Y96253D01*
X2071560D01*
X2074099Y93714D01*
Y91174D01*
X2063942D01*
X2079178Y96253D02*
Y86096D01*
Y91174D01*
X2081717Y93714D01*
X2084256Y96253D01*
X2086795D01*
X2096952Y83557D02*
X2099491Y86096D01*
Y88635D01*
X2096952D01*
Y86096D01*
X2099491D01*
X2096952Y83557D01*
X2094413Y81018D01*
X2124883Y101331D02*
Y86096D01*
X2132500D01*
X2135039Y88635D01*
Y91174D01*
Y93714D01*
X2132500Y96253D01*
X2124883D01*
X2140118D02*
Y88635D01*
X2142657Y86096D01*
X2150275D01*
Y96253D01*
X2157892Y98792D02*
Y96253D01*
X2155353D01*
X2160431D01*
X2157892D01*
Y88635D01*
X2160431Y86096D01*
X2183284D02*
Y96253D01*
X2190901D01*
X2193441Y93714D01*
Y86096D01*
X2201058D02*
X2206136D01*
X2208676Y88635D01*
Y93714D01*
X2206136Y96253D01*
X2201058D01*
X2198519Y93714D01*
Y88635D01*
X2201058Y86096D01*
X2216293Y98792D02*
Y96253D01*
X2213754D01*
X2218832D01*
X2216293D01*
Y88635D01*
X2218832Y86096D01*
X2241685D02*
X2246763D01*
X2244224D01*
Y96253D01*
X2241685D01*
X2254381Y86096D02*
Y96253D01*
X2261998D01*
X2264538Y93714D01*
Y86096D01*
X2287390Y96253D02*
X2292468D01*
X2295008Y93714D01*
Y86096D01*
X2287390D01*
X2284851Y88635D01*
X2287390Y91174D01*
X2295008D01*
X2300086Y86096D02*
Y96253D01*
X2307704D01*
X2310243Y93714D01*
Y86096D01*
X2315321Y96253D02*
Y88635D01*
X2317860Y86096D01*
X2325478D01*
Y83557D01*
X2322939Y81018D01*
X2320399D01*
X2325478Y86096D02*
Y96253D01*
X1063506Y71253D02*
Y63635D01*
X1066045Y61096D01*
X1068584Y63635D01*
X1071124Y61096D01*
X1073663Y63635D01*
Y71253D01*
X1081280D02*
X1086359D01*
X1088898Y68713D01*
Y61096D01*
X1081280D01*
X1078741Y63635D01*
X1081280Y66174D01*
X1088898D01*
X1093976Y71253D02*
Y63635D01*
X1096515Y61096D01*
X1104133D01*
Y58557D01*
X1101594Y56018D01*
X1099054D01*
X1104133Y61096D02*
Y71253D01*
X1126985Y73792D02*
Y71253D01*
X1124446D01*
X1129525D01*
X1126985D01*
Y63635D01*
X1129525Y61096D01*
X1137142Y76331D02*
Y61096D01*
Y68713D01*
X1139681Y71253D01*
X1144760D01*
X1147299Y68713D01*
Y61096D01*
X1154917Y71253D02*
X1159995D01*
X1162534Y68713D01*
Y61096D01*
X1154917D01*
X1152377Y63635D01*
X1154917Y66174D01*
X1162534D01*
X1170152Y73792D02*
Y71253D01*
X1167612D01*
X1172691D01*
X1170152D01*
Y63635D01*
X1172691Y61096D01*
X1195543D02*
X1203161D01*
X1205700Y63635D01*
X1203161Y66174D01*
X1198083D01*
X1195543Y68713D01*
X1198083Y71253D01*
X1205700D01*
X1210778D02*
Y63635D01*
X1213318Y61096D01*
X1220935D01*
Y71253D01*
X1231092Y56018D02*
X1233631D01*
X1236170Y58557D01*
Y71253D01*
X1228553D01*
X1226013Y68713D01*
Y63635D01*
X1228553Y61096D01*
X1236170D01*
X1246327Y56018D02*
X1248866D01*
X1251405Y58557D01*
Y71253D01*
X1243788D01*
X1241248Y68713D01*
Y63635D01*
X1243788Y61096D01*
X1251405D01*
X1264101D02*
X1259023D01*
X1256484Y63635D01*
Y68713D01*
X1259023Y71253D01*
X1264101D01*
X1266640Y68713D01*
Y66174D01*
X1256484D01*
X1271719Y61096D02*
X1279336D01*
X1281875Y63635D01*
X1279336Y66174D01*
X1274258D01*
X1271719Y68713D01*
X1274258Y71253D01*
X1281875D01*
X1289493Y73792D02*
Y71253D01*
X1286954D01*
X1292032D01*
X1289493D01*
Y63635D01*
X1292032Y61096D01*
X1299650D02*
X1307267D01*
X1309806Y63635D01*
X1307267Y66174D01*
X1302189D01*
X1299650Y68713D01*
X1302189Y71253D01*
X1309806D01*
X1332659Y73792D02*
Y71253D01*
X1330120D01*
X1335198D01*
X1332659D01*
Y63635D01*
X1335198Y61096D01*
X1342816Y76331D02*
Y61096D01*
Y68713D01*
X1345355Y71253D01*
X1350433D01*
X1352972Y68713D01*
Y61096D01*
X1365668D02*
X1360590D01*
X1358051Y63635D01*
Y68713D01*
X1360590Y71253D01*
X1365668D01*
X1368207Y68713D01*
Y66174D01*
X1358051D01*
X1388521Y61096D02*
X1393599D01*
X1391060D01*
Y76331D01*
X1388521D01*
X1401217Y61096D02*
X1406295D01*
X1403756D01*
Y71253D01*
X1401217D01*
X1424069D02*
X1416452D01*
X1413913Y68713D01*
Y63635D01*
X1416452Y61096D01*
X1424069D01*
X1436765D02*
X1431687D01*
X1429148Y63635D01*
Y68713D01*
X1431687Y71253D01*
X1436765D01*
X1439304Y68713D01*
Y66174D01*
X1429148D01*
X1444383Y61096D02*
Y71253D01*
X1452000D01*
X1454539Y68713D01*
Y61096D01*
X1459618D02*
X1467235D01*
X1469775Y63635D01*
X1467235Y66174D01*
X1462157D01*
X1459618Y68713D01*
X1462157Y71253D01*
X1469775D01*
X1477392Y61096D02*
X1482471D01*
X1485010Y63635D01*
Y68713D01*
X1482471Y71253D01*
X1477392D01*
X1474853Y68713D01*
Y63635D01*
X1477392Y61096D01*
X1490088Y71253D02*
Y61096D01*
Y66174D01*
X1492627Y68713D01*
X1495166Y71253D01*
X1497706D01*
X1528176Y61096D02*
X1523097D01*
X1520558Y63635D01*
Y68713D01*
X1523097Y71253D01*
X1528176D01*
X1530715Y68713D01*
Y66174D01*
X1520558D01*
X1535793Y61096D02*
Y71253D01*
X1543411D01*
X1545950Y68713D01*
Y61096D01*
X1561185Y76331D02*
Y61096D01*
X1553568D01*
X1551028Y63635D01*
Y68713D01*
X1553568Y71253D01*
X1561185D01*
X1568803Y61096D02*
X1573881D01*
X1576420Y63635D01*
Y68713D01*
X1573881Y71253D01*
X1568803D01*
X1566263Y68713D01*
Y63635D01*
X1568803Y61096D01*
X1581498Y71253D02*
Y61096D01*
Y66174D01*
X1584038Y68713D01*
X1586577Y71253D01*
X1589116D01*
X1596734Y61096D02*
X1604351D01*
X1606890Y63635D01*
X1604351Y66174D01*
X1599273D01*
X1596734Y68713D01*
X1599273Y71253D01*
X1606890D01*
X1619586Y61096D02*
X1614508D01*
X1611969Y63635D01*
Y68713D01*
X1614508Y71253D01*
X1619586D01*
X1622125Y68713D01*
Y66174D01*
X1611969D01*
X1627204Y61096D02*
X1634821D01*
X1637360Y63635D01*
X1634821Y66174D01*
X1629743D01*
X1627204Y68713D01*
X1629743Y71253D01*
X1637360D01*
X1657674D02*
Y63635D01*
X1660213Y61096D01*
X1667831D01*
Y58557D01*
X1665291Y56018D01*
X1662752D01*
X1667831Y61096D02*
Y71253D01*
X1675448Y61096D02*
X1680526D01*
X1683066Y63635D01*
Y68713D01*
X1680526Y71253D01*
X1675448D01*
X1672909Y68713D01*
Y63635D01*
X1675448Y61096D01*
X1688144Y71253D02*
Y63635D01*
X1690683Y61096D01*
X1698301D01*
Y71253D01*
X1721153Y61096D02*
X1726232D01*
X1728771Y63635D01*
Y68713D01*
X1726232Y71253D01*
X1721153D01*
X1718614Y68713D01*
Y63635D01*
X1721153Y61096D01*
X1733849Y71253D02*
Y61096D01*
Y66174D01*
X1736388Y68713D01*
X1738927Y71253D01*
X1741467D01*
X1764319D02*
Y63635D01*
X1766859Y61096D01*
X1774476D01*
Y58557D01*
X1771937Y56018D01*
X1769398D01*
X1774476Y61096D02*
Y71253D01*
X1782094Y61096D02*
X1787172D01*
X1789711Y63635D01*
Y68713D01*
X1787172Y71253D01*
X1782094D01*
X1779554Y68713D01*
Y63635D01*
X1782094Y61096D01*
X1794789Y71253D02*
Y63635D01*
X1797329Y61096D01*
X1804946D01*
Y71253D01*
X1810025D02*
Y61096D01*
Y66174D01*
X1812564Y68713D01*
X1815103Y71253D01*
X1817642D01*
X1840495D02*
Y63635D01*
X1843034Y61096D01*
X1850651D01*
Y71253D01*
X1855730Y61096D02*
X1863347D01*
X1865887Y63635D01*
X1863347Y66174D01*
X1858269D01*
X1855730Y68713D01*
X1858269Y71253D01*
X1865887D01*
X1878582Y61096D02*
X1873504D01*
X1870965Y63635D01*
Y68713D01*
X1873504Y71253D01*
X1878582D01*
X1881122Y68713D01*
Y66174D01*
X1870965D01*
X1886200Y61096D02*
Y63635D01*
X1888739D01*
Y61096D01*
X1886200D01*
X1061506Y-69904D02*
Y-54669D01*
X1071663Y-69904D01*
Y-54669D01*
X1079280Y-69904D02*
X1084359D01*
X1086898Y-67365D01*
Y-62287D01*
X1084359Y-59747D01*
X1079280D01*
X1076741Y-62287D01*
Y-67365D01*
X1079280Y-69904D01*
X1109750Y-59747D02*
X1114829D01*
X1117368Y-62287D01*
Y-69904D01*
X1109750D01*
X1107211Y-67365D01*
X1109750Y-64826D01*
X1117368D01*
X1132603Y-54669D02*
Y-69904D01*
X1124986D01*
X1122446Y-67365D01*
Y-62287D01*
X1124986Y-59747D01*
X1132603D01*
X1147838Y-54669D02*
Y-69904D01*
X1140221D01*
X1137681Y-67365D01*
Y-62287D01*
X1140221Y-59747D01*
X1147838D01*
X1152916Y-69904D02*
X1157995D01*
X1155456D01*
Y-59747D01*
X1152916D01*
X1168151Y-57208D02*
Y-59747D01*
X1165612D01*
X1170691D01*
X1168151D01*
Y-67365D01*
X1170691Y-69904D01*
X1178308D02*
X1183387D01*
X1180847D01*
Y-59747D01*
X1178308D01*
X1193543Y-69904D02*
X1198622D01*
X1201161Y-67365D01*
Y-62287D01*
X1198622Y-59747D01*
X1193543D01*
X1191004Y-62287D01*
Y-67365D01*
X1193543Y-69904D01*
X1206239D02*
Y-59747D01*
X1213857D01*
X1216396Y-62287D01*
Y-69904D01*
X1224013Y-59747D02*
X1229092D01*
X1231631Y-62287D01*
Y-69904D01*
X1224013D01*
X1221474Y-67365D01*
X1224013Y-64826D01*
X1231631D01*
X1236709Y-69904D02*
X1241788D01*
X1239249D01*
Y-54669D01*
X1236709D01*
X1264640Y-59747D02*
Y-69904D01*
Y-64826D01*
X1267179Y-62287D01*
X1269719Y-59747D01*
X1272258D01*
X1287493Y-69904D02*
X1282415D01*
X1279875Y-67365D01*
Y-62287D01*
X1282415Y-59747D01*
X1287493D01*
X1290032Y-62287D01*
Y-64826D01*
X1279875D01*
X1295110Y-69904D02*
X1302728D01*
X1305267Y-67365D01*
X1302728Y-64826D01*
X1297650D01*
X1295110Y-62287D01*
X1297650Y-59747D01*
X1305267D01*
X1312885Y-57208D02*
Y-59747D01*
X1310345D01*
X1315424D01*
X1312885D01*
Y-67365D01*
X1315424Y-69904D01*
X1323041Y-59747D02*
Y-69904D01*
Y-64826D01*
X1325581Y-62287D01*
X1328120Y-59747D01*
X1330659D01*
X1338276Y-69904D02*
X1343355D01*
X1340816D01*
Y-59747D01*
X1338276D01*
X1361129D02*
X1353512D01*
X1350972Y-62287D01*
Y-67365D01*
X1353512Y-69904D01*
X1361129D01*
X1368747Y-57208D02*
Y-59747D01*
X1366207D01*
X1371286D01*
X1368747D01*
Y-67365D01*
X1371286Y-69904D01*
X1378903D02*
X1383982D01*
X1381443D01*
Y-59747D01*
X1378903D01*
X1394138Y-69904D02*
X1399217D01*
X1401756Y-67365D01*
Y-62287D01*
X1399217Y-59747D01*
X1394138D01*
X1391599Y-62287D01*
Y-67365D01*
X1394138Y-69904D01*
X1406834D02*
Y-59747D01*
X1414452D01*
X1416991Y-62287D01*
Y-69904D01*
X1422069D02*
X1429687D01*
X1432226Y-67365D01*
X1429687Y-64826D01*
X1424608D01*
X1422069Y-62287D01*
X1424608Y-59747D01*
X1432226D01*
X1452540Y-62287D02*
X1462696D01*
X1483010Y-54669D02*
Y-57208D01*
X1488088Y-62287D01*
X1493166Y-57208D01*
Y-54669D01*
X1488088Y-62287D02*
Y-69904D01*
X1500784D02*
X1505862D01*
X1508401Y-67365D01*
Y-62287D01*
X1505862Y-59747D01*
X1500784D01*
X1498245Y-62287D01*
Y-67365D01*
X1500784Y-69904D01*
X1513480Y-59747D02*
Y-67365D01*
X1516019Y-69904D01*
X1523636D01*
Y-59747D01*
X1543950Y-69904D02*
Y-59747D01*
X1546489D01*
X1549028Y-62287D01*
Y-69904D01*
Y-62287D01*
X1551567Y-59747D01*
X1554107Y-62287D01*
Y-69904D01*
X1561724Y-59747D02*
X1566803D01*
X1569342Y-62287D01*
Y-69904D01*
X1561724D01*
X1559185Y-67365D01*
X1561724Y-64826D01*
X1569342D01*
X1574420Y-59747D02*
Y-67365D01*
X1576959Y-69904D01*
X1584577D01*
Y-72443D01*
X1582038Y-74982D01*
X1579498D01*
X1584577Y-69904D02*
Y-59747D01*
X1604890Y-69904D02*
Y-59747D01*
X1612508D01*
X1615047Y-62287D01*
Y-69904D01*
X1622664D02*
X1627743D01*
X1630282Y-67365D01*
Y-62287D01*
X1627743Y-59747D01*
X1622664D01*
X1620125Y-62287D01*
Y-67365D01*
X1622664Y-69904D01*
X1637899Y-57208D02*
Y-59747D01*
X1635360D01*
X1640439D01*
X1637899D01*
Y-67365D01*
X1640439Y-69904D01*
X1665831Y-59747D02*
X1670909D01*
X1673448Y-62287D01*
Y-69904D01*
X1665831D01*
X1663291Y-67365D01*
X1665831Y-64826D01*
X1673448D01*
X1678526Y-74982D02*
Y-59747D01*
X1686144D01*
X1688683Y-62287D01*
Y-67365D01*
X1686144Y-69904D01*
X1678526D01*
X1693761Y-74982D02*
Y-59747D01*
X1701379D01*
X1703918Y-62287D01*
Y-67365D01*
X1701379Y-69904D01*
X1693761D01*
X1708996D02*
X1714075D01*
X1711536D01*
Y-54669D01*
X1708996D01*
X1721692Y-59747D02*
Y-67365D01*
X1724232Y-69904D01*
X1731849D01*
Y-72443D01*
X1729310Y-74982D01*
X1726771D01*
X1731849Y-69904D02*
Y-59747D01*
X1752162Y-69904D02*
X1757241D01*
X1754702D01*
Y-54669D01*
X1752162D01*
X1772476Y-69904D02*
X1767398D01*
X1764858Y-67365D01*
Y-62287D01*
X1767398Y-59747D01*
X1772476D01*
X1775015Y-62287D01*
Y-64826D01*
X1764858D01*
X1785172Y-74982D02*
X1787711D01*
X1790250Y-72443D01*
Y-59747D01*
X1782633D01*
X1780094Y-62287D01*
Y-67365D01*
X1782633Y-69904D01*
X1790250D01*
X1797868Y-59747D02*
X1802946D01*
X1805485Y-62287D01*
Y-69904D01*
X1797868D01*
X1795329Y-67365D01*
X1797868Y-64826D01*
X1805485D01*
X1810564Y-69904D02*
X1815642D01*
X1813103D01*
Y-54669D01*
X1810564D01*
X1841034Y-57208D02*
Y-59747D01*
X1838495D01*
X1843573D01*
X1841034D01*
Y-67365D01*
X1843573Y-69904D01*
X1858808D02*
X1853730D01*
X1851190Y-67365D01*
Y-62287D01*
X1853730Y-59747D01*
X1858808D01*
X1861347Y-62287D01*
Y-64826D01*
X1851190D01*
X1866426Y-59747D02*
Y-69904D01*
Y-64826D01*
X1868965Y-62287D01*
X1871504Y-59747D01*
X1874043D01*
X1881661Y-69904D02*
Y-59747D01*
X1884200D01*
X1886739Y-62287D01*
Y-69904D01*
Y-62287D01*
X1889278Y-59747D01*
X1891817Y-62287D01*
Y-69904D01*
X1896896D02*
X1904513D01*
X1907052Y-67365D01*
X1904513Y-64826D01*
X1899435D01*
X1896896Y-62287D01*
X1899435Y-59747D01*
X1907052D01*
X1929905Y-69904D02*
X1934983D01*
X1937523Y-67365D01*
Y-62287D01*
X1934983Y-59747D01*
X1929905D01*
X1927366Y-62287D01*
Y-67365D01*
X1929905Y-69904D01*
X1942601Y-59747D02*
Y-69904D01*
Y-64826D01*
X1945140Y-62287D01*
X1947679Y-59747D01*
X1950219D01*
X1975610Y-57208D02*
Y-59747D01*
X1973071D01*
X1978149D01*
X1975610D01*
Y-67365D01*
X1978149Y-69904D01*
X1993385D02*
X1988306D01*
X1985767Y-67365D01*
Y-62287D01*
X1988306Y-59747D01*
X1993385D01*
X1995924Y-62287D01*
Y-64826D01*
X1985767D01*
X2011159Y-59747D02*
X2003541D01*
X2001002Y-62287D01*
Y-67365D01*
X2003541Y-69904D01*
X2011159D01*
X2016237Y-54669D02*
Y-69904D01*
Y-62287D01*
X2018776Y-59747D01*
X2023855D01*
X2026394Y-62287D01*
Y-69904D01*
X2031472D02*
Y-59747D01*
X2039090D01*
X2041629Y-62287D01*
Y-69904D01*
X2049246D02*
X2054325D01*
X2056864Y-67365D01*
Y-62287D01*
X2054325Y-59747D01*
X2049246D01*
X2046707Y-62287D01*
Y-67365D01*
X2049246Y-69904D01*
X2061942D02*
X2067021D01*
X2064482D01*
Y-54669D01*
X2061942D01*
X2077177Y-69904D02*
X2082256D01*
X2084795Y-67365D01*
Y-62287D01*
X2082256Y-59747D01*
X2077177D01*
X2074638Y-62287D01*
Y-67365D01*
X2077177Y-69904D01*
X2094952Y-74982D02*
X2097491D01*
X2100030Y-72443D01*
Y-59747D01*
X2092413D01*
X2089873Y-62287D01*
Y-67365D01*
X2092413Y-69904D01*
X2100030D01*
X2105108D02*
X2110187D01*
X2107648D01*
Y-59747D01*
X2105108D01*
X2127961D02*
X2120343D01*
X2117804Y-62287D01*
Y-67365D01*
X2120343Y-69904D01*
X2127961D01*
X2135578Y-59747D02*
X2140657D01*
X2143196Y-62287D01*
Y-69904D01*
X2135578D01*
X2133039Y-67365D01*
X2135578Y-64826D01*
X2143196D01*
X2148274Y-69904D02*
X2153353D01*
X2150814D01*
Y-54669D01*
X2148274D01*
X2176205Y-69904D02*
Y-59747D01*
X2178745D01*
X2181284Y-62287D01*
Y-69904D01*
Y-62287D01*
X2183823Y-59747D01*
X2186362Y-62287D01*
Y-69904D01*
X2199058D02*
X2193980D01*
X2191440Y-67365D01*
Y-62287D01*
X2193980Y-59747D01*
X2199058D01*
X2201597Y-62287D01*
Y-64826D01*
X2191440D01*
X2209215Y-59747D02*
X2214293D01*
X2216832Y-62287D01*
Y-69904D01*
X2209215D01*
X2206676Y-67365D01*
X2209215Y-64826D01*
X2216832D01*
X2221911Y-69904D02*
X2229528D01*
X2232067Y-67365D01*
X2229528Y-64826D01*
X2224450D01*
X2221911Y-62287D01*
X2224450Y-59747D01*
X2232067D01*
X2237146D02*
Y-67365D01*
X2239685Y-69904D01*
X2247302D01*
Y-59747D01*
X2252381D02*
Y-69904D01*
Y-64826D01*
X2254920Y-62287D01*
X2257459Y-59747D01*
X2259998D01*
X2275233Y-69904D02*
X2270155D01*
X2267616Y-67365D01*
Y-62287D01*
X2270155Y-59747D01*
X2275233D01*
X2277773Y-62287D01*
Y-64826D01*
X2267616D01*
X2282851Y-69904D02*
X2290468D01*
X2293008Y-67365D01*
X2290468Y-64826D01*
X2285390D01*
X2282851Y-62287D01*
X2285390Y-59747D01*
X2293008D01*
X1064045Y-82208D02*
Y-84747D01*
X1061506D01*
X1066584D01*
X1064045D01*
Y-92365D01*
X1066584Y-94904D01*
X1074202Y-79669D02*
Y-94904D01*
Y-87287D01*
X1076741Y-84747D01*
X1081819D01*
X1084359Y-87287D01*
Y-94904D01*
X1091976Y-84747D02*
X1097055D01*
X1099594Y-87287D01*
Y-94904D01*
X1091976D01*
X1089437Y-92365D01*
X1091976Y-89826D01*
X1099594D01*
X1107211Y-82208D02*
Y-84747D01*
X1104672D01*
X1109750D01*
X1107211D01*
Y-92365D01*
X1109750Y-94904D01*
X1132603D02*
X1137681D01*
X1135142D01*
Y-79669D01*
X1132603D01*
X1152916Y-94904D02*
X1147838D01*
X1145299Y-92365D01*
Y-87287D01*
X1147838Y-84747D01*
X1152916D01*
X1155456Y-87287D01*
Y-89826D01*
X1145299D01*
X1165612Y-99982D02*
X1168151D01*
X1170691Y-97443D01*
Y-84747D01*
X1163073D01*
X1160534Y-87287D01*
Y-92365D01*
X1163073Y-94904D01*
X1170691D01*
X1178308Y-84747D02*
X1183387D01*
X1185926Y-87287D01*
Y-94904D01*
X1178308D01*
X1175769Y-92365D01*
X1178308Y-89826D01*
X1185926D01*
X1191004Y-94904D02*
X1196082D01*
X1193543D01*
Y-79669D01*
X1191004D01*
X1203700Y-94904D02*
X1208778D01*
X1206239D01*
Y-79669D01*
X1203700D01*
X1216396Y-84747D02*
Y-92365D01*
X1218935Y-94904D01*
X1226553D01*
Y-97443D01*
X1224013Y-99982D01*
X1221474D01*
X1226553Y-94904D02*
Y-84747D01*
X1246866D02*
Y-94904D01*
Y-89826D01*
X1249405Y-87287D01*
X1251944Y-84747D01*
X1254483D01*
X1269719Y-94904D02*
X1264640D01*
X1262101Y-92365D01*
Y-87287D01*
X1264640Y-84747D01*
X1269719D01*
X1272258Y-87287D01*
Y-89826D01*
X1262101D01*
X1277336Y-94904D02*
X1284954D01*
X1287493Y-92365D01*
X1284954Y-89826D01*
X1279875D01*
X1277336Y-87287D01*
X1279875Y-84747D01*
X1287493D01*
X1295110Y-82208D02*
Y-84747D01*
X1292571D01*
X1297650D01*
X1295110D01*
Y-92365D01*
X1297650Y-94904D01*
X1305267Y-84747D02*
Y-94904D01*
Y-89826D01*
X1307806Y-87287D01*
X1310345Y-84747D01*
X1312885D01*
X1320502Y-94904D02*
X1325580D01*
X1323041D01*
Y-84747D01*
X1320502D01*
X1343355D02*
X1335737D01*
X1333198Y-87287D01*
Y-92365D01*
X1335737Y-94904D01*
X1343355D01*
X1350972Y-82208D02*
Y-84747D01*
X1348433D01*
X1353512D01*
X1350972D01*
Y-92365D01*
X1353512Y-94904D01*
X1378903D02*
X1383982D01*
X1386521Y-92365D01*
Y-87287D01*
X1383982Y-84747D01*
X1378903D01*
X1376364Y-87287D01*
Y-92365D01*
X1378903Y-94904D01*
X1394138Y-82208D02*
Y-84747D01*
X1391599D01*
X1396678D01*
X1394138D01*
Y-92365D01*
X1396678Y-94904D01*
X1404295Y-79669D02*
Y-94904D01*
Y-87287D01*
X1406834Y-84747D01*
X1411913D01*
X1414452Y-87287D01*
Y-94904D01*
X1427148D02*
X1422069D01*
X1419530Y-92365D01*
Y-87287D01*
X1422069Y-84747D01*
X1427148D01*
X1429687Y-87287D01*
Y-89826D01*
X1419530D01*
X1434765Y-84747D02*
Y-94904D01*
Y-89826D01*
X1437304Y-87287D01*
X1439844Y-84747D01*
X1442383D01*
X1450000Y-94904D02*
X1457618D01*
X1460157Y-92365D01*
X1457618Y-89826D01*
X1452540D01*
X1450000Y-87287D01*
X1452540Y-84747D01*
X1460157D01*
X1483010Y-94904D02*
Y-82208D01*
Y-87287D01*
X1480470D01*
X1485549D01*
X1483010D01*
Y-82208D01*
X1485549Y-79669D01*
X1493166Y-84747D02*
Y-94904D01*
Y-89826D01*
X1495706Y-87287D01*
X1498245Y-84747D01*
X1500784D01*
X1510941Y-94904D02*
X1516019D01*
X1518558Y-92365D01*
Y-87287D01*
X1516019Y-84747D01*
X1510941D01*
X1508401Y-87287D01*
Y-92365D01*
X1510941Y-94904D01*
X1523636D02*
Y-84747D01*
X1526176D01*
X1528715Y-87287D01*
Y-94904D01*
Y-87287D01*
X1531254Y-84747D01*
X1533793Y-87287D01*
Y-94904D01*
X1564263Y-79669D02*
Y-94904D01*
X1556646D01*
X1554107Y-92365D01*
Y-87287D01*
X1556646Y-84747D01*
X1564263D01*
X1571881Y-94904D02*
X1576959D01*
X1579498Y-92365D01*
Y-87287D01*
X1576959Y-84747D01*
X1571881D01*
X1569342Y-87287D01*
Y-92365D01*
X1571881Y-94904D01*
X1584577D02*
X1589655D01*
X1587116D01*
Y-84747D01*
X1584577D01*
X1597273Y-94904D02*
Y-84747D01*
X1604890D01*
X1607429Y-87287D01*
Y-94904D01*
X1617586Y-99982D02*
X1620125D01*
X1622664Y-97443D01*
Y-84747D01*
X1615047D01*
X1612508Y-87287D01*
Y-92365D01*
X1615047Y-94904D01*
X1622664D01*
X1645517Y-84747D02*
X1650595D01*
X1653135Y-87287D01*
Y-94904D01*
X1645517D01*
X1642978Y-92365D01*
X1645517Y-89826D01*
X1653135D01*
X1658213Y-94904D02*
Y-84747D01*
X1665831D01*
X1668370Y-87287D01*
Y-94904D01*
X1673448Y-84747D02*
Y-92365D01*
X1675987Y-94904D01*
X1683605D01*
Y-97443D01*
X1681066Y-99982D01*
X1678526D01*
X1683605Y-94904D02*
Y-84747D01*
X1691222Y-82208D02*
Y-84747D01*
X1688683D01*
X1693761D01*
X1691222D01*
Y-92365D01*
X1693761Y-94904D01*
X1701379Y-79669D02*
Y-94904D01*
Y-87287D01*
X1703918Y-84747D01*
X1708996D01*
X1711536Y-87287D01*
Y-94904D01*
X1716614D02*
X1721692D01*
X1719153D01*
Y-84747D01*
X1716614D01*
X1729310Y-94904D02*
Y-84747D01*
X1736927D01*
X1739467Y-87287D01*
Y-94904D01*
X1749623Y-99982D02*
X1752162D01*
X1754702Y-97443D01*
Y-84747D01*
X1747084D01*
X1744545Y-87287D01*
Y-92365D01*
X1747084Y-94904D01*
X1754702D01*
X1777554Y-82208D02*
Y-84747D01*
X1775015D01*
X1780094D01*
X1777554D01*
Y-92365D01*
X1780094Y-94904D01*
X1787711Y-79669D02*
Y-94904D01*
Y-87287D01*
X1790250Y-84747D01*
X1795329D01*
X1797868Y-87287D01*
Y-94904D01*
X1810564D02*
X1805485D01*
X1802946Y-92365D01*
Y-87287D01*
X1805485Y-84747D01*
X1810564D01*
X1813103Y-87287D01*
Y-89826D01*
X1802946D01*
X1833416Y-94904D02*
X1838495D01*
X1835955D01*
Y-79669D01*
X1833416D01*
X1846112Y-94904D02*
X1851190D01*
X1848651D01*
Y-84747D01*
X1846112D01*
X1868965D02*
X1861347D01*
X1858808Y-87287D01*
Y-92365D01*
X1861347Y-94904D01*
X1868965D01*
X1881661D02*
X1876582D01*
X1874043Y-92365D01*
Y-87287D01*
X1876582Y-84747D01*
X1881661D01*
X1884200Y-87287D01*
Y-89826D01*
X1874043D01*
X1889278Y-94904D02*
Y-84747D01*
X1896896D01*
X1899435Y-87287D01*
Y-94904D01*
X1904513D02*
X1912131D01*
X1914670Y-92365D01*
X1912131Y-89826D01*
X1907052D01*
X1904513Y-87287D01*
X1907052Y-84747D01*
X1914670D01*
X1927366Y-94904D02*
X1922287D01*
X1919748Y-92365D01*
Y-87287D01*
X1922287Y-84747D01*
X1927366D01*
X1929905Y-87287D01*
Y-89826D01*
X1919748D01*
X1950218Y-99982D02*
Y-84747D01*
X1957836D01*
X1960375Y-87287D01*
Y-92365D01*
X1957836Y-94904D01*
X1950218D01*
X1973071D02*
X1967993D01*
X1965453Y-92365D01*
Y-87287D01*
X1967993Y-84747D01*
X1973071D01*
X1975610Y-87287D01*
Y-89826D01*
X1965453D01*
X1980689Y-84747D02*
Y-94904D01*
Y-89826D01*
X1983228Y-87287D01*
X1985767Y-84747D01*
X1988306D01*
X1995924Y-94904D02*
Y-84747D01*
X1998463D01*
X2001002Y-87287D01*
Y-94904D01*
Y-87287D01*
X2003541Y-84747D01*
X2006080Y-87287D01*
Y-94904D01*
X2011159D02*
X2016237D01*
X2013698D01*
Y-84747D01*
X2011159D01*
X2026394Y-82208D02*
Y-84747D01*
X2023855D01*
X2028933D01*
X2026394D01*
Y-92365D01*
X2028933Y-94904D01*
X2036550D02*
X2044168D01*
X2046707Y-92365D01*
X2044168Y-89826D01*
X2039090D01*
X2036550Y-87287D01*
X2039090Y-84747D01*
X2046707D01*
X2051786Y-94904D02*
Y-92365D01*
X2054325D01*
Y-94904D01*
X2051786D01*
X1061506Y-144904D02*
Y-129669D01*
X1071663Y-144904D01*
Y-129669D01*
X1079280Y-144904D02*
X1084359D01*
X1086898Y-142365D01*
Y-137287D01*
X1084359Y-134747D01*
X1079280D01*
X1076741Y-137287D01*
Y-142365D01*
X1079280Y-144904D01*
X1094515Y-132208D02*
Y-134747D01*
X1091976D01*
X1097055D01*
X1094515D01*
Y-142365D01*
X1097055Y-144904D01*
X1104672D02*
X1109750D01*
X1107211D01*
Y-134747D01*
X1104672D01*
X1127525D02*
X1119907D01*
X1117368Y-137287D01*
Y-142365D01*
X1119907Y-144904D01*
X1127525D01*
X1140220D02*
X1135142D01*
X1132603Y-142365D01*
Y-137287D01*
X1135142Y-134747D01*
X1140220D01*
X1142760Y-137287D01*
Y-139826D01*
X1132603D01*
X1147838Y-144904D02*
X1155456D01*
X1157995Y-142365D01*
X1155456Y-139826D01*
X1150377D01*
X1147838Y-137287D01*
X1150377Y-134747D01*
X1157995D01*
X1163073D02*
X1165612D01*
Y-137287D01*
X1163073D01*
Y-134747D01*
Y-142365D02*
X1165612D01*
Y-144904D01*
X1163073D01*
Y-142365D01*
X1061506Y-154669D02*
Y-157208D01*
X1066584Y-162286D01*
X1071663Y-157208D01*
Y-154669D01*
X1066584Y-162286D02*
Y-169904D01*
X1079280D02*
X1084359D01*
X1086898Y-167365D01*
Y-162286D01*
X1084359Y-159747D01*
X1079280D01*
X1076741Y-162286D01*
Y-167365D01*
X1079280Y-169904D01*
X1091976Y-159747D02*
Y-167365D01*
X1094515Y-169904D01*
X1102133D01*
Y-159747D01*
X1132603Y-154669D02*
Y-169904D01*
X1124986D01*
X1122446Y-167365D01*
Y-162286D01*
X1124986Y-159747D01*
X1132603D01*
X1140221Y-169904D02*
X1145299D01*
X1147838Y-167365D01*
Y-162286D01*
X1145299Y-159747D01*
X1140221D01*
X1137681Y-162286D01*
Y-167365D01*
X1140221Y-169904D01*
X1168151D02*
Y-159747D01*
X1175769D01*
X1178308Y-162286D01*
Y-169904D01*
X1185926D02*
X1191004D01*
X1193543Y-167365D01*
Y-162286D01*
X1191004Y-159747D01*
X1185926D01*
X1183387Y-162286D01*
Y-167365D01*
X1185926Y-169904D01*
X1201161Y-157208D02*
Y-159747D01*
X1198622D01*
X1203700D01*
X1201161D01*
Y-167365D01*
X1203700Y-169904D01*
X1226553Y-154669D02*
Y-169904D01*
Y-162286D01*
X1229092Y-159747D01*
X1234170D01*
X1236709Y-162286D01*
Y-169904D01*
X1244327Y-159747D02*
X1249405D01*
X1251944Y-162286D01*
Y-169904D01*
X1244327D01*
X1241788Y-167365D01*
X1244327Y-164826D01*
X1251944D01*
X1257023Y-159747D02*
X1262101Y-169904D01*
X1267179Y-159747D01*
X1279875Y-169904D02*
X1274797D01*
X1272258Y-167365D01*
Y-162286D01*
X1274797Y-159747D01*
X1279875D01*
X1282415Y-162286D01*
Y-164826D01*
X1272258D01*
X1305267Y-157208D02*
Y-159747D01*
X1302728D01*
X1307806D01*
X1305267D01*
Y-167365D01*
X1307806Y-169904D01*
X1317963D02*
X1323041D01*
X1325581Y-167365D01*
Y-162286D01*
X1323041Y-159747D01*
X1317963D01*
X1315424Y-162286D01*
Y-167365D01*
X1317963Y-169904D01*
X1356051Y-159747D02*
X1348433D01*
X1345894Y-162286D01*
Y-167365D01*
X1348433Y-169904D01*
X1356051D01*
X1363668D02*
X1368747D01*
X1371286Y-167365D01*
Y-162286D01*
X1368747Y-159747D01*
X1363668D01*
X1361129Y-162286D01*
Y-167365D01*
X1363668Y-169904D01*
X1376364D02*
Y-159747D01*
X1378903D01*
X1381443Y-162286D01*
Y-169904D01*
Y-162286D01*
X1383982Y-159747D01*
X1386521Y-162286D01*
Y-169904D01*
X1391599Y-174982D02*
Y-159747D01*
X1399217D01*
X1401756Y-162286D01*
Y-167365D01*
X1399217Y-169904D01*
X1391599D01*
X1406834D02*
X1411913D01*
X1409373D01*
Y-154669D01*
X1406834D01*
X1419530Y-159747D02*
Y-167365D01*
X1422069Y-169904D01*
X1429687D01*
Y-172443D01*
X1427148Y-174982D01*
X1424608D01*
X1429687Y-169904D02*
Y-159747D01*
X1450000D02*
Y-167365D01*
X1452540Y-169904D01*
X1455079Y-167365D01*
X1457618Y-169904D01*
X1460157Y-167365D01*
Y-159747D01*
X1465235Y-169904D02*
X1470314D01*
X1467775D01*
Y-159747D01*
X1465235D01*
X1480470Y-157208D02*
Y-159747D01*
X1477931D01*
X1483010D01*
X1480470D01*
Y-167365D01*
X1483010Y-169904D01*
X1490627Y-154669D02*
Y-169904D01*
Y-162286D01*
X1493166Y-159747D01*
X1498245D01*
X1500784Y-162286D01*
Y-169904D01*
X1523636Y-157208D02*
Y-159747D01*
X1521097D01*
X1526176D01*
X1523636D01*
Y-167365D01*
X1526176Y-169904D01*
X1533793Y-154669D02*
Y-169904D01*
Y-162286D01*
X1536332Y-159747D01*
X1541411D01*
X1543950Y-162286D01*
Y-169904D01*
X1556646D02*
X1551568D01*
X1549028Y-167365D01*
Y-162286D01*
X1551568Y-159747D01*
X1556646D01*
X1559185Y-162286D01*
Y-164826D01*
X1549028D01*
X1579498Y-169904D02*
X1584577D01*
X1582038D01*
Y-154669D01*
X1579498D01*
X1592194Y-169904D02*
X1597273D01*
X1594733D01*
Y-159747D01*
X1592194D01*
X1615047D02*
X1607429D01*
X1604890Y-162286D01*
Y-167365D01*
X1607429Y-169904D01*
X1615047D01*
X1627743D02*
X1622664D01*
X1620125Y-167365D01*
Y-162286D01*
X1622664Y-159747D01*
X1627743D01*
X1630282Y-162286D01*
Y-164826D01*
X1620125D01*
X1635360Y-169904D02*
Y-159747D01*
X1642978D01*
X1645517Y-162286D01*
Y-169904D01*
X1650595D02*
X1658213D01*
X1660752Y-167365D01*
X1658213Y-164826D01*
X1653135D01*
X1650595Y-162286D01*
X1653135Y-159747D01*
X1660752D01*
X1673448Y-169904D02*
X1668370D01*
X1665831Y-167365D01*
Y-162286D01*
X1668370Y-159747D01*
X1673448D01*
X1675987Y-162286D01*
Y-164826D01*
X1665831D01*
X1698840Y-169904D02*
Y-157208D01*
Y-162286D01*
X1696301D01*
X1701379D01*
X1698840D01*
Y-157208D01*
X1701379Y-154669D01*
X1711536Y-169904D02*
X1716614D01*
X1719153Y-167365D01*
Y-162286D01*
X1716614Y-159747D01*
X1711536D01*
X1708996Y-162286D01*
Y-167365D01*
X1711536Y-169904D01*
X1724232Y-159747D02*
Y-169904D01*
Y-164826D01*
X1726771Y-162286D01*
X1729310Y-159747D01*
X1731849D01*
X1762319Y-169904D02*
X1757241D01*
X1754702Y-167365D01*
Y-162286D01*
X1757241Y-159747D01*
X1762319D01*
X1764858Y-162286D01*
Y-164826D01*
X1754702D01*
X1769937Y-169904D02*
X1775015D01*
X1772476D01*
Y-154669D01*
X1769937D01*
X1790250Y-169904D02*
X1785172D01*
X1782633Y-167365D01*
Y-162286D01*
X1785172Y-159747D01*
X1790250D01*
X1792789Y-162286D01*
Y-164826D01*
X1782633D01*
X1797868Y-169904D02*
Y-159747D01*
X1800407D01*
X1802946Y-162286D01*
Y-169904D01*
Y-162286D01*
X1805485Y-159747D01*
X1808024Y-162286D01*
Y-169904D01*
X1820720D02*
X1815642D01*
X1813103Y-167365D01*
Y-162286D01*
X1815642Y-159747D01*
X1820720D01*
X1823259Y-162286D01*
Y-164826D01*
X1813103D01*
X1828338Y-169904D02*
Y-159747D01*
X1835955D01*
X1838495Y-162286D01*
Y-169904D01*
X1846112Y-157208D02*
Y-159747D01*
X1843573D01*
X1848651D01*
X1846112D01*
Y-167365D01*
X1848651Y-169904D01*
X1856269D02*
X1863886D01*
X1866426Y-167365D01*
X1863886Y-164826D01*
X1858808D01*
X1856269Y-162286D01*
X1858808Y-159747D01*
X1866426D01*
X1889278Y-169904D02*
X1894357D01*
X1896896Y-167365D01*
Y-162286D01*
X1894357Y-159747D01*
X1889278D01*
X1886739Y-162286D01*
Y-167365D01*
X1889278Y-169904D01*
X1904513D02*
Y-157208D01*
Y-162286D01*
X1901974D01*
X1907052D01*
X1904513D01*
Y-157208D01*
X1907052Y-154669D01*
X1932444Y-157208D02*
Y-159747D01*
X1929905D01*
X1934983D01*
X1932444D01*
Y-167365D01*
X1934983Y-169904D01*
X1942601Y-154669D02*
Y-169904D01*
Y-162286D01*
X1945140Y-159747D01*
X1950219D01*
X1952758Y-162286D01*
Y-169904D01*
X1965453D02*
X1960375D01*
X1957836Y-167365D01*
Y-162286D01*
X1960375Y-159747D01*
X1965453D01*
X1967993Y-162286D01*
Y-164826D01*
X1957836D01*
X1988306Y-169904D02*
Y-159747D01*
X1990845D01*
X1993385Y-162286D01*
Y-169904D01*
Y-162286D01*
X1995924Y-159747D01*
X1998463Y-162286D01*
Y-169904D01*
X2006080Y-159747D02*
X2011159D01*
X2013698Y-162286D01*
Y-169904D01*
X2006080D01*
X2003541Y-167365D01*
X2006080Y-164826D01*
X2013698D01*
X2021315Y-157208D02*
Y-159747D01*
X2018776D01*
X2023855D01*
X2021315D01*
Y-167365D01*
X2023855Y-169904D01*
X2039090D02*
X2034011D01*
X2031472Y-167365D01*
Y-162286D01*
X2034011Y-159747D01*
X2039090D01*
X2041629Y-162286D01*
Y-164826D01*
X2031472D01*
X2046707Y-159747D02*
Y-169904D01*
Y-164826D01*
X2049246Y-162286D01*
X2051786Y-159747D01*
X2054325D01*
X2061942Y-169904D02*
X2067021D01*
X2064482D01*
Y-159747D01*
X2061942D01*
X2077177D02*
X2082256D01*
X2084795Y-162286D01*
Y-169904D01*
X2077177D01*
X2074638Y-167365D01*
X2077177Y-164826D01*
X2084795D01*
X2089873Y-169904D02*
X2094952D01*
X2092413D01*
Y-154669D01*
X2089873D01*
X2117804Y-169904D02*
X2122883D01*
X2120343D01*
Y-159747D01*
X2117804D01*
X2130500Y-169904D02*
Y-159747D01*
X2138118D01*
X2140657Y-162286D01*
Y-169904D01*
X2163509Y-157208D02*
Y-159747D01*
X2160970D01*
X2166049D01*
X2163509D01*
Y-167365D01*
X2166049Y-169904D01*
X2173666Y-154669D02*
Y-169904D01*
Y-162286D01*
X2176205Y-159747D01*
X2181284D01*
X2183823Y-162286D01*
Y-169904D01*
X2196519D02*
X2191440D01*
X2188901Y-167365D01*
Y-162286D01*
X2191440Y-159747D01*
X2196519D01*
X2199058Y-162286D01*
Y-164826D01*
X2188901D01*
X2219371Y-174982D02*
Y-159747D01*
X2226989D01*
X2229528Y-162286D01*
Y-167365D01*
X2226989Y-169904D01*
X2219371D01*
X2234606Y-159747D02*
Y-167365D01*
X2237146Y-169904D01*
X2244763D01*
Y-159747D01*
X2249841Y-154669D02*
Y-169904D01*
X2257459D01*
X2259998Y-167365D01*
Y-164826D01*
Y-162286D01*
X2257459Y-159747D01*
X2249841D01*
X2265077Y-169904D02*
X2270155D01*
X2267616D01*
Y-154669D01*
X2265077D01*
X2277773Y-169904D02*
X2282851D01*
X2280312D01*
Y-159747D01*
X2277773D01*
X2300625D02*
X2293008D01*
X2290468Y-162286D01*
Y-167365D01*
X2293008Y-169904D01*
X2300625D01*
X2331095Y-154669D02*
Y-169904D01*
X2323478D01*
X2320939Y-167365D01*
Y-162286D01*
X2323478Y-159747D01*
X2331095D01*
X2338713Y-169904D02*
X2343791D01*
X2346330Y-167365D01*
Y-162286D01*
X2343791Y-159747D01*
X2338713D01*
X2336174Y-162286D01*
Y-167365D01*
X2338713Y-169904D01*
X2351409D02*
Y-159747D01*
X2353948D01*
X2356487Y-162286D01*
Y-169904D01*
Y-162286D01*
X2359026Y-159747D01*
X2361565Y-162286D01*
Y-169904D01*
X2369183Y-159747D02*
X2374261D01*
X2376800Y-162286D01*
Y-169904D01*
X2369183D01*
X2366644Y-167365D01*
X2369183Y-164826D01*
X2376800D01*
X2381879Y-169904D02*
X2386957D01*
X2384418D01*
Y-159747D01*
X2381879D01*
X2394575Y-169904D02*
Y-159747D01*
X2402192D01*
X2404731Y-162286D01*
Y-169904D01*
X2427584D02*
X2432662D01*
X2435202Y-167365D01*
Y-162286D01*
X2432662Y-159747D01*
X2427584D01*
X2425045Y-162286D01*
Y-167365D01*
X2427584Y-169904D01*
X2440280Y-159747D02*
Y-169904D01*
Y-164826D01*
X2442819Y-162286D01*
X2445358Y-159747D01*
X2447897D01*
X2470750D02*
Y-167365D01*
X2473289Y-169904D01*
X2475828Y-167365D01*
X2478368Y-169904D01*
X2480907Y-167365D01*
Y-159747D01*
X2485985Y-154669D02*
Y-169904D01*
Y-162286D01*
X2488524Y-159747D01*
X2493603D01*
X2496142Y-162286D01*
Y-169904D01*
X2508838D02*
X2503759D01*
X2501220Y-167365D01*
Y-162286D01*
X2503759Y-159747D01*
X2508838D01*
X2511377Y-162286D01*
Y-164826D01*
X2501220D01*
X2516455Y-159747D02*
Y-169904D01*
Y-164826D01*
X2518994Y-162286D01*
X2521534Y-159747D01*
X2524073D01*
X2539308Y-169904D02*
X2534229D01*
X2531690Y-167365D01*
Y-162286D01*
X2534229Y-159747D01*
X2539308D01*
X2541847Y-162286D01*
Y-164826D01*
X2531690D01*
X1061506Y-184747D02*
Y-192365D01*
X1064045Y-194904D01*
X1071663D01*
Y-197443D01*
X1069124Y-199982D01*
X1066584D01*
X1071663Y-194904D02*
Y-184747D01*
X1079280Y-194904D02*
X1084359D01*
X1086898Y-192365D01*
Y-187286D01*
X1084359Y-184747D01*
X1079280D01*
X1076741Y-187286D01*
Y-192365D01*
X1079280Y-194904D01*
X1091976Y-184747D02*
Y-192365D01*
X1094515Y-194904D01*
X1102133D01*
Y-184747D01*
X1107211D02*
Y-194904D01*
Y-189826D01*
X1109750Y-187286D01*
X1112290Y-184747D01*
X1114829D01*
X1137681D02*
Y-192365D01*
X1140221Y-194904D01*
X1147838D01*
Y-184747D01*
X1152916Y-194904D02*
X1160534D01*
X1163073Y-192365D01*
X1160534Y-189826D01*
X1155456D01*
X1152916Y-187286D01*
X1155456Y-184747D01*
X1163073D01*
X1175769Y-194904D02*
X1170691D01*
X1168151Y-192365D01*
Y-187286D01*
X1170691Y-184747D01*
X1175769D01*
X1178308Y-187286D01*
Y-189826D01*
X1168151D01*
X1198622Y-194904D02*
X1203700D01*
X1201161D01*
Y-184747D01*
X1198622D01*
X1211318Y-194904D02*
X1218935D01*
X1221474Y-192365D01*
X1218935Y-189826D01*
X1213857D01*
X1211318Y-187286D01*
X1213857Y-184747D01*
X1221474D01*
X1241788Y-199982D02*
Y-184747D01*
X1249405D01*
X1251944Y-187286D01*
Y-192365D01*
X1249405Y-194904D01*
X1241788D01*
X1264640D02*
X1259562D01*
X1257023Y-192365D01*
Y-187286D01*
X1259562Y-184747D01*
X1264640D01*
X1267179Y-187286D01*
Y-189826D01*
X1257023D01*
X1272258Y-184747D02*
Y-194904D01*
Y-189826D01*
X1274797Y-187286D01*
X1277336Y-184747D01*
X1279875D01*
X1287493Y-194904D02*
Y-184747D01*
X1290032D01*
X1292571Y-187286D01*
Y-194904D01*
Y-187286D01*
X1295110Y-184747D01*
X1297650Y-187286D01*
Y-194904D01*
X1302728D02*
X1307806D01*
X1305267D01*
Y-184747D01*
X1302728D01*
X1317963Y-182208D02*
Y-184747D01*
X1315424D01*
X1320502D01*
X1317963D01*
Y-192365D01*
X1320502Y-194904D01*
X1330659Y-182208D02*
Y-184747D01*
X1328120D01*
X1333198D01*
X1330659D01*
Y-192365D01*
X1333198Y-194904D01*
X1348433D02*
X1343355D01*
X1340816Y-192365D01*
Y-187286D01*
X1343355Y-184747D01*
X1348433D01*
X1350972Y-187286D01*
Y-189826D01*
X1340816D01*
X1366207Y-179669D02*
Y-194904D01*
X1358590D01*
X1356051Y-192365D01*
Y-187286D01*
X1358590Y-184747D01*
X1366207D01*
X1386521Y-179669D02*
Y-194904D01*
X1394138D01*
X1396678Y-192365D01*
Y-189826D01*
Y-187286D01*
X1394138Y-184747D01*
X1386521D01*
X1401756D02*
Y-192365D01*
X1404295Y-194904D01*
X1411913D01*
Y-197443D01*
X1409373Y-199982D01*
X1406834D01*
X1411913Y-194904D02*
Y-184747D01*
X1434765D02*
X1439844D01*
X1442383Y-187286D01*
Y-194904D01*
X1434765D01*
X1432226Y-192365D01*
X1434765Y-189826D01*
X1442383D01*
X1447461Y-194904D02*
Y-184747D01*
X1455079D01*
X1457618Y-187286D01*
Y-194904D01*
X1480470Y-184747D02*
X1485549D01*
X1488088Y-187286D01*
Y-194904D01*
X1480470D01*
X1477931Y-192365D01*
X1480470Y-189826D01*
X1488088D01*
X1493166Y-199982D02*
Y-184747D01*
X1500784D01*
X1503323Y-187286D01*
Y-192365D01*
X1500784Y-194904D01*
X1493166D01*
X1508401Y-199982D02*
Y-184747D01*
X1516019D01*
X1518558Y-187286D01*
Y-192365D01*
X1516019Y-194904D01*
X1508401D01*
X1523636D02*
X1528715D01*
X1526176D01*
Y-179669D01*
X1523636D01*
X1536332Y-194904D02*
X1541411D01*
X1538872D01*
Y-184747D01*
X1536332D01*
X1559185D02*
X1551568D01*
X1549028Y-187286D01*
Y-192365D01*
X1551568Y-194904D01*
X1559185D01*
X1566803Y-184747D02*
X1571881D01*
X1574420Y-187286D01*
Y-194904D01*
X1566803D01*
X1564263Y-192365D01*
X1566803Y-189826D01*
X1574420D01*
X1579498Y-179669D02*
Y-194904D01*
X1587116D01*
X1589655Y-192365D01*
Y-189826D01*
Y-187286D01*
X1587116Y-184747D01*
X1579498D01*
X1594733Y-194904D02*
X1599812D01*
X1597273D01*
Y-179669D01*
X1594733D01*
X1615047Y-194904D02*
X1609969D01*
X1607429Y-192365D01*
Y-187286D01*
X1609969Y-184747D01*
X1615047D01*
X1617586Y-187286D01*
Y-189826D01*
X1607429D01*
X1645517Y-194904D02*
X1640439D01*
X1637899Y-192365D01*
Y-187286D01*
X1640439Y-184747D01*
X1645517D01*
X1648056Y-187286D01*
Y-189826D01*
X1637899D01*
X1653135Y-184747D02*
X1663291Y-194904D01*
X1658213Y-189826D01*
X1663291Y-184747D01*
X1653135Y-194904D01*
X1678526Y-184747D02*
X1670909D01*
X1668370Y-187286D01*
Y-192365D01*
X1670909Y-194904D01*
X1678526D01*
X1691222D02*
X1686144D01*
X1683605Y-192365D01*
Y-187286D01*
X1686144Y-184747D01*
X1691222D01*
X1693761Y-187286D01*
Y-189826D01*
X1683605D01*
X1698840Y-199982D02*
Y-184747D01*
X1706457D01*
X1708996Y-187286D01*
Y-192365D01*
X1706457Y-194904D01*
X1698840D01*
X1716614Y-182208D02*
Y-184747D01*
X1714075D01*
X1719153D01*
X1716614D01*
Y-192365D01*
X1719153Y-194904D01*
X1726771D02*
X1731849D01*
X1729310D01*
Y-184747D01*
X1726771D01*
X1742006Y-194904D02*
X1747084D01*
X1749623Y-192365D01*
Y-187286D01*
X1747084Y-184747D01*
X1742006D01*
X1739467Y-187286D01*
Y-192365D01*
X1742006Y-194904D01*
X1754702D02*
Y-184747D01*
X1762319D01*
X1764858Y-187286D01*
Y-194904D01*
X1787711D02*
X1792789D01*
X1795329Y-192365D01*
Y-187286D01*
X1792789Y-184747D01*
X1787711D01*
X1785172Y-187286D01*
Y-192365D01*
X1787711Y-194904D01*
X1800407Y-184747D02*
Y-194904D01*
Y-189826D01*
X1802946Y-187286D01*
X1805485Y-184747D01*
X1808024D01*
X1830877Y-194904D02*
X1835955D01*
X1833416D01*
Y-179669D01*
X1830877D01*
X1843573Y-194904D02*
X1848651D01*
X1846112D01*
Y-184747D01*
X1843573D01*
X1856269Y-194904D02*
Y-184747D01*
X1858808D01*
X1861347Y-187286D01*
Y-194904D01*
Y-187286D01*
X1863886Y-184747D01*
X1866426Y-187286D01*
Y-194904D01*
X1871504D02*
X1876582D01*
X1874043D01*
Y-184747D01*
X1871504D01*
X1886739Y-182208D02*
Y-184747D01*
X1884200D01*
X1889278D01*
X1886739D01*
Y-192365D01*
X1889278Y-194904D01*
X1899435Y-184747D02*
X1904513D01*
X1907052Y-187286D01*
Y-194904D01*
X1899435D01*
X1896896Y-192365D01*
X1899435Y-189826D01*
X1907052D01*
X1914670Y-182208D02*
Y-184747D01*
X1912131D01*
X1917209D01*
X1914670D01*
Y-192365D01*
X1917209Y-194904D01*
X1924827D02*
X1929905D01*
X1927366D01*
Y-184747D01*
X1924827D01*
X1940062Y-194904D02*
X1945140D01*
X1947679Y-192365D01*
Y-187286D01*
X1945140Y-184747D01*
X1940062D01*
X1937522Y-187286D01*
Y-192365D01*
X1940062Y-194904D01*
X1952758D02*
Y-184747D01*
X1960375D01*
X1962914Y-187286D01*
Y-194904D01*
X1967993D02*
Y-192365D01*
X1970532D01*
Y-194904D01*
X1967993D01*
X1061506Y-244904D02*
Y-229669D01*
X1071663Y-244904D01*
Y-229669D01*
X1079280Y-244904D02*
X1084359D01*
X1086898Y-242365D01*
Y-237286D01*
X1084359Y-234747D01*
X1079280D01*
X1076741Y-237286D01*
Y-242365D01*
X1079280Y-244904D01*
X1107211Y-234747D02*
Y-242365D01*
X1109750Y-244904D01*
X1112290Y-242365D01*
X1114829Y-244904D01*
X1117368Y-242365D01*
Y-234747D01*
X1124986D02*
X1130064D01*
X1132603Y-237286D01*
Y-244904D01*
X1124986D01*
X1122446Y-242365D01*
X1124986Y-239826D01*
X1132603D01*
X1137681Y-234747D02*
Y-244904D01*
Y-239826D01*
X1140221Y-237286D01*
X1142760Y-234747D01*
X1145299D01*
X1152916D02*
Y-244904D01*
Y-239826D01*
X1155456Y-237286D01*
X1157995Y-234747D01*
X1160534D01*
X1170691D02*
X1175769D01*
X1178308Y-237286D01*
Y-244904D01*
X1170691D01*
X1168151Y-242365D01*
X1170691Y-239826D01*
X1178308D01*
X1183387Y-244904D02*
Y-234747D01*
X1191004D01*
X1193543Y-237286D01*
Y-244904D01*
X1201161Y-232208D02*
Y-234747D01*
X1198622D01*
X1203700D01*
X1201161D01*
Y-242365D01*
X1203700Y-244904D01*
X1211318D02*
X1216396D01*
X1213857D01*
Y-234747D01*
X1211318D01*
X1231631Y-244904D02*
X1226553D01*
X1224013Y-242365D01*
Y-237286D01*
X1226553Y-234747D01*
X1231631D01*
X1234170Y-237286D01*
Y-239826D01*
X1224013D01*
X1239249Y-244904D02*
X1246866D01*
X1249405Y-242365D01*
X1246866Y-239826D01*
X1241788D01*
X1239249Y-237286D01*
X1241788Y-234747D01*
X1249405D01*
X1272258D02*
X1277336D01*
X1279875Y-237286D01*
Y-244904D01*
X1272258D01*
X1269719Y-242365D01*
X1272258Y-239826D01*
X1279875D01*
X1284954Y-234747D02*
Y-244904D01*
Y-239826D01*
X1287493Y-237286D01*
X1290032Y-234747D01*
X1292571D01*
X1307806Y-244904D02*
X1302728D01*
X1300189Y-242365D01*
Y-237286D01*
X1302728Y-234747D01*
X1307806D01*
X1310345Y-237286D01*
Y-239826D01*
X1300189D01*
X1335737Y-249982D02*
X1338277D01*
X1340816Y-247443D01*
Y-234747D01*
X1333198D01*
X1330659Y-237286D01*
Y-242365D01*
X1333198Y-244904D01*
X1340816D01*
X1345894D02*
X1350972D01*
X1348433D01*
Y-234747D01*
X1345894D01*
X1358590D02*
X1363668Y-244904D01*
X1368747Y-234747D01*
X1381443Y-244904D02*
X1376364D01*
X1373825Y-242365D01*
Y-237286D01*
X1376364Y-234747D01*
X1381443D01*
X1383982Y-237286D01*
Y-239826D01*
X1373825D01*
X1389060Y-244904D02*
Y-234747D01*
X1396678D01*
X1399217Y-237286D01*
Y-244904D01*
X1404295D02*
Y-242365D01*
X1406834D01*
Y-244904D01*
X1404295D01*
X1432226Y-229669D02*
X1442383D01*
X1437304D01*
Y-244904D01*
X1447461Y-229669D02*
Y-244904D01*
Y-237286D01*
X1450000Y-234747D01*
X1455079D01*
X1457618Y-237286D01*
Y-244904D01*
X1470314D02*
X1465235D01*
X1462696Y-242365D01*
Y-237286D01*
X1465235Y-234747D01*
X1470314D01*
X1472853Y-237286D01*
Y-239826D01*
X1462696D01*
X1493166Y-244904D02*
X1498245D01*
X1495706D01*
Y-229669D01*
X1493166D01*
X1505862Y-244904D02*
X1510941D01*
X1508401D01*
Y-234747D01*
X1505862D01*
X1528715D02*
X1521097D01*
X1518558Y-237286D01*
Y-242365D01*
X1521097Y-244904D01*
X1528715D01*
X1541411D02*
X1536332D01*
X1533793Y-242365D01*
Y-237286D01*
X1536332Y-234747D01*
X1541411D01*
X1543950Y-237286D01*
Y-239826D01*
X1533793D01*
X1549028Y-244904D02*
Y-234747D01*
X1556646D01*
X1559185Y-237286D01*
Y-244904D01*
X1564263D02*
X1571881D01*
X1574420Y-242365D01*
X1571881Y-239826D01*
X1566803D01*
X1564263Y-237286D01*
X1566803Y-234747D01*
X1574420D01*
X1587116Y-244904D02*
X1582038D01*
X1579498Y-242365D01*
Y-237286D01*
X1582038Y-234747D01*
X1587116D01*
X1589655Y-237286D01*
Y-239826D01*
X1579498D01*
X1609969Y-244904D02*
Y-234747D01*
X1612508D01*
X1615047Y-237286D01*
Y-244904D01*
Y-237286D01*
X1617586Y-234747D01*
X1620125Y-237286D01*
Y-244904D01*
X1627743Y-234747D02*
X1632821D01*
X1635360Y-237286D01*
Y-244904D01*
X1627743D01*
X1625204Y-242365D01*
X1627743Y-239826D01*
X1635360D01*
X1640439Y-234747D02*
Y-242365D01*
X1642978Y-244904D01*
X1650595D01*
Y-247443D01*
X1648056Y-249982D01*
X1645517D01*
X1650595Y-244904D02*
Y-234747D01*
X1670909Y-244904D02*
Y-234747D01*
X1678526D01*
X1681066Y-237286D01*
Y-244904D01*
X1688683D02*
X1693761D01*
X1696301Y-242365D01*
Y-237286D01*
X1693761Y-234747D01*
X1688683D01*
X1686144Y-237286D01*
Y-242365D01*
X1688683Y-244904D01*
X1703918Y-232208D02*
Y-234747D01*
X1701379D01*
X1706457D01*
X1703918D01*
Y-242365D01*
X1706457Y-244904D01*
X1734388Y-249982D02*
X1736927D01*
X1739467Y-247443D01*
Y-234747D01*
X1731849D01*
X1729310Y-237286D01*
Y-242365D01*
X1731849Y-244904D01*
X1739467D01*
X1744545D02*
X1749623D01*
X1747084D01*
Y-234747D01*
X1744545D01*
X1757241D02*
X1762319Y-244904D01*
X1767398Y-234747D01*
X1780094Y-244904D02*
X1775015D01*
X1772476Y-242365D01*
Y-237286D01*
X1775015Y-234747D01*
X1780094D01*
X1782633Y-237286D01*
Y-239826D01*
X1772476D01*
X1802946Y-234747D02*
Y-242365D01*
X1805485Y-244904D01*
X1813103D01*
Y-247443D01*
X1810564Y-249982D01*
X1808024D01*
X1813103Y-244904D02*
Y-234747D01*
X1820720Y-244904D02*
X1825799D01*
X1828338Y-242365D01*
Y-237286D01*
X1825799Y-234747D01*
X1820720D01*
X1818181Y-237286D01*
Y-242365D01*
X1820720Y-244904D01*
X1833416Y-234747D02*
Y-242365D01*
X1835956Y-244904D01*
X1843573D01*
Y-234747D01*
X1866426D02*
X1871504D01*
X1874043Y-237286D01*
Y-244904D01*
X1866426D01*
X1863886Y-242365D01*
X1866426Y-239826D01*
X1874043D01*
X1879122Y-244904D02*
X1884200D01*
X1881661D01*
Y-229669D01*
X1879122D01*
X1891817Y-244904D02*
X1896896D01*
X1894357D01*
Y-229669D01*
X1891817D01*
X1922287Y-244904D02*
X1927366D01*
X1929905Y-242365D01*
Y-237286D01*
X1927366Y-234747D01*
X1922287D01*
X1919748Y-237286D01*
Y-242365D01*
X1922287Y-244904D01*
X1937523D02*
Y-232208D01*
Y-237286D01*
X1934983D01*
X1940062D01*
X1937523D01*
Y-232208D01*
X1940062Y-229669D01*
X1965453Y-232208D02*
Y-234747D01*
X1962914D01*
X1967993D01*
X1965453D01*
Y-242365D01*
X1967993Y-244904D01*
X1975610Y-229669D02*
Y-244904D01*
Y-237286D01*
X1978149Y-234747D01*
X1983228D01*
X1985767Y-237286D01*
Y-244904D01*
X1998463D02*
X1993385D01*
X1990845Y-242365D01*
Y-237286D01*
X1993385Y-234747D01*
X1998463D01*
X2001002Y-237286D01*
Y-239826D01*
X1990845D01*
X2021315Y-249982D02*
Y-234747D01*
X2028933D01*
X2031472Y-237286D01*
Y-242365D01*
X2028933Y-244904D01*
X2021315D01*
X2044168D02*
X2039090D01*
X2036550Y-242365D01*
Y-237286D01*
X2039090Y-234747D01*
X2044168D01*
X2046707Y-237286D01*
Y-239826D01*
X2036550D01*
X2051786Y-234747D02*
Y-244904D01*
Y-239826D01*
X2054325Y-237286D01*
X2056864Y-234747D01*
X2059403D01*
X2067021Y-244904D02*
Y-234747D01*
X2069560D01*
X2072099Y-237286D01*
Y-244904D01*
Y-237286D01*
X2074638Y-234747D01*
X2077177Y-237286D01*
Y-244904D01*
X2082256D02*
X2087334D01*
X2084795D01*
Y-234747D01*
X2082256D01*
X2094952Y-244904D02*
X2102569D01*
X2105108Y-242365D01*
X2102569Y-239826D01*
X2097491D01*
X2094952Y-237286D01*
X2097491Y-234747D01*
X2105108D01*
X2110187Y-244904D02*
X2117804D01*
X2120343Y-242365D01*
X2117804Y-239826D01*
X2112726D01*
X2110187Y-237286D01*
X2112726Y-234747D01*
X2120343D01*
X2125422Y-244904D02*
X2130500D01*
X2127961D01*
Y-234747D01*
X2125422D01*
X2140657Y-244904D02*
X2145735D01*
X2148274Y-242365D01*
Y-237286D01*
X2145735Y-234747D01*
X2140657D01*
X2138118Y-237286D01*
Y-242365D01*
X2140657Y-244904D01*
X2153353D02*
Y-234747D01*
X2160970D01*
X2163510Y-237286D01*
Y-244904D01*
X2168588D02*
X2176205D01*
X2178745Y-242365D01*
X2176205Y-239826D01*
X2171127D01*
X2168588Y-237286D01*
X2171127Y-234747D01*
X2178745D01*
X2199058Y-244904D02*
Y-234747D01*
X2206676D01*
X2209215Y-237286D01*
Y-244904D01*
X2221911D02*
X2216832D01*
X2214293Y-242365D01*
Y-237286D01*
X2216832Y-234747D01*
X2221911D01*
X2224450Y-237286D01*
Y-239826D01*
X2214293D01*
X2239685Y-234747D02*
X2232067D01*
X2229528Y-237286D01*
Y-242365D01*
X2232067Y-244904D01*
X2239685D01*
X2252381D02*
X2247302D01*
X2244763Y-242365D01*
Y-237286D01*
X2247302Y-234747D01*
X2252381D01*
X2254920Y-237286D01*
Y-239826D01*
X2244763D01*
X2259998Y-244904D02*
X2267616D01*
X2270155Y-242365D01*
X2267616Y-239826D01*
X2262537D01*
X2259998Y-237286D01*
X2262537Y-234747D01*
X2270155D01*
X2275233Y-244904D02*
X2282851D01*
X2285390Y-242365D01*
X2282851Y-239826D01*
X2277773D01*
X2275233Y-237286D01*
X2277773Y-234747D01*
X2285390D01*
X2293008D02*
X2298086D01*
X2300625Y-237286D01*
Y-244904D01*
X2293008D01*
X2290468Y-242365D01*
X2293008Y-239826D01*
X2300625D01*
X2305703Y-234747D02*
Y-244904D01*
Y-239826D01*
X2308243Y-237286D01*
X2310782Y-234747D01*
X2313321D01*
X2320939D02*
Y-242365D01*
X2323478Y-244904D01*
X2331095D01*
Y-247443D01*
X2328556Y-249982D01*
X2326017D01*
X2331095Y-244904D02*
Y-234747D01*
X2353948Y-244904D02*
Y-232208D01*
Y-237286D01*
X2351409D01*
X2356487D01*
X2353948D01*
Y-232208D01*
X2356487Y-229669D01*
X2366644Y-244904D02*
X2371722D01*
X2374261Y-242365D01*
Y-237286D01*
X2371722Y-234747D01*
X2366644D01*
X2364105Y-237286D01*
Y-242365D01*
X2366644Y-244904D01*
X2379340Y-234747D02*
Y-244904D01*
Y-239826D01*
X2381879Y-237286D01*
X2384418Y-234747D01*
X2386957D01*
X2409810D02*
Y-242365D01*
X2412349Y-244904D01*
X2419966D01*
Y-247443D01*
X2417427Y-249982D01*
X2414888D01*
X2419966Y-244904D02*
Y-234747D01*
X2427584Y-244904D02*
X2432662D01*
X2435202Y-242365D01*
Y-237286D01*
X2432662Y-234747D01*
X2427584D01*
X2425045Y-237286D01*
Y-242365D01*
X2427584Y-244904D01*
X2440280Y-234747D02*
Y-242365D01*
X2442819Y-244904D01*
X2450437D01*
Y-234747D01*
X2455515D02*
Y-244904D01*
Y-239826D01*
X2458054Y-237286D01*
X2460593Y-234747D01*
X2463132D01*
X1061506Y-269904D02*
X1066584D01*
X1064045D01*
Y-259747D01*
X1061506D01*
X1074202Y-269904D02*
Y-259747D01*
X1081819D01*
X1084359Y-262286D01*
Y-269904D01*
X1091976Y-257208D02*
Y-259747D01*
X1089437D01*
X1094515D01*
X1091976D01*
Y-267365D01*
X1094515Y-269904D01*
X1109750D02*
X1104672D01*
X1102133Y-267365D01*
Y-262286D01*
X1104672Y-259747D01*
X1109750D01*
X1112290Y-262286D01*
Y-264826D01*
X1102133D01*
X1117368Y-269904D02*
Y-259747D01*
X1124986D01*
X1127525Y-262286D01*
Y-269904D01*
X1142760Y-254669D02*
Y-269904D01*
X1135142D01*
X1132603Y-267365D01*
Y-262286D01*
X1135142Y-259747D01*
X1142760D01*
X1155456Y-269904D02*
X1150377D01*
X1147838Y-267365D01*
Y-262286D01*
X1150377Y-259747D01*
X1155456D01*
X1157995Y-262286D01*
Y-264826D01*
X1147838D01*
X1173230Y-254669D02*
Y-269904D01*
X1165612D01*
X1163073Y-267365D01*
Y-262286D01*
X1165612Y-259747D01*
X1173230D01*
X1193543D02*
Y-267365D01*
X1196083Y-269904D01*
X1203700D01*
Y-259747D01*
X1208778Y-269904D02*
X1216396D01*
X1218935Y-267365D01*
X1216396Y-264826D01*
X1211318D01*
X1208778Y-262286D01*
X1211318Y-259747D01*
X1218935D01*
X1231631Y-269904D02*
X1226553D01*
X1224013Y-267365D01*
Y-262286D01*
X1226553Y-259747D01*
X1231631D01*
X1234170Y-262286D01*
Y-264826D01*
X1224013D01*
X1239249Y-269904D02*
Y-267365D01*
X1241788D01*
Y-269904D01*
X1239249D01*
X1277336Y-254669D02*
X1267179D01*
Y-262286D01*
X1272258D01*
X1267179D01*
Y-269904D01*
X1284954D02*
X1290032D01*
X1292571Y-267365D01*
Y-262286D01*
X1290032Y-259747D01*
X1284954D01*
X1282415Y-262286D01*
Y-267365D01*
X1284954Y-269904D01*
X1297650Y-259747D02*
Y-269904D01*
Y-264826D01*
X1300189Y-262286D01*
X1302728Y-259747D01*
X1305267D01*
X1335737Y-269904D02*
X1330659D01*
X1328120Y-267365D01*
Y-262286D01*
X1330659Y-259747D01*
X1335737D01*
X1338277Y-262286D01*
Y-264826D01*
X1328120D01*
X1343355Y-259747D02*
X1353512Y-269904D01*
X1348433Y-264826D01*
X1353512Y-259747D01*
X1343355Y-269904D01*
X1361129Y-259747D02*
X1366207D01*
X1368747Y-262286D01*
Y-269904D01*
X1361129D01*
X1358590Y-267365D01*
X1361129Y-264826D01*
X1368747D01*
X1373825Y-269904D02*
Y-259747D01*
X1376364D01*
X1378903Y-262286D01*
Y-269904D01*
Y-262286D01*
X1381443Y-259747D01*
X1383982Y-262286D01*
Y-269904D01*
X1389060Y-274982D02*
Y-259747D01*
X1396678D01*
X1399217Y-262286D01*
Y-267365D01*
X1396678Y-269904D01*
X1389060D01*
X1404295D02*
X1409373D01*
X1406834D01*
Y-254669D01*
X1404295D01*
X1424608Y-269904D02*
X1419530D01*
X1416991Y-267365D01*
Y-262286D01*
X1419530Y-259747D01*
X1424608D01*
X1427148Y-262286D01*
Y-264826D01*
X1416991D01*
X1434765Y-272443D02*
X1437304Y-269904D01*
Y-267365D01*
X1434765D01*
Y-269904D01*
X1437304D01*
X1434765Y-272443D01*
X1432226Y-274982D01*
X1465235Y-269904D02*
X1470314D01*
X1472853Y-267365D01*
Y-262286D01*
X1470314Y-259747D01*
X1465235D01*
X1462696Y-262286D01*
Y-267365D01*
X1465235Y-269904D01*
X1480470Y-257208D02*
Y-259747D01*
X1477931D01*
X1483010D01*
X1480470D01*
Y-267365D01*
X1483010Y-269904D01*
X1490627Y-254669D02*
Y-269904D01*
Y-262286D01*
X1493166Y-259747D01*
X1498245D01*
X1500784Y-262286D01*
Y-269904D01*
X1513480D02*
X1508401D01*
X1505862Y-267365D01*
Y-262286D01*
X1508401Y-259747D01*
X1513480D01*
X1516019Y-262286D01*
Y-264826D01*
X1505862D01*
X1521097Y-259747D02*
Y-269904D01*
Y-264826D01*
X1523636Y-262286D01*
X1526176Y-259747D01*
X1528715D01*
X1551568D02*
Y-269904D01*
Y-264826D01*
X1554107Y-262286D01*
X1556646Y-259747D01*
X1559185D01*
X1566803Y-269904D02*
X1571881D01*
X1569342D01*
Y-259747D01*
X1566803D01*
X1584577Y-274982D02*
X1587116D01*
X1589655Y-272443D01*
Y-259747D01*
X1582038D01*
X1579498Y-262286D01*
Y-267365D01*
X1582038Y-269904D01*
X1589655D01*
X1594733Y-254669D02*
Y-269904D01*
Y-262286D01*
X1597273Y-259747D01*
X1602351D01*
X1604890Y-262286D01*
Y-269904D01*
X1612508Y-257208D02*
Y-259747D01*
X1609969D01*
X1615047D01*
X1612508D01*
Y-267365D01*
X1615047Y-269904D01*
X1622664D02*
X1630282D01*
X1632821Y-267365D01*
X1630282Y-264826D01*
X1625204D01*
X1622664Y-262286D01*
X1625204Y-259747D01*
X1632821D01*
X1653135Y-269904D02*
X1660752D01*
X1663291Y-267365D01*
X1660752Y-264826D01*
X1655674D01*
X1653135Y-262286D01*
X1655674Y-259747D01*
X1663291D01*
X1668370D02*
Y-267365D01*
X1670909Y-269904D01*
X1678526D01*
Y-259747D01*
X1693761D02*
X1686144D01*
X1683605Y-262286D01*
Y-267365D01*
X1686144Y-269904D01*
X1693761D01*
X1698840Y-254669D02*
Y-269904D01*
Y-262286D01*
X1701379Y-259747D01*
X1706457D01*
X1708996Y-262286D01*
Y-269904D01*
X1731849Y-259747D02*
X1736927D01*
X1739467Y-262286D01*
Y-269904D01*
X1731849D01*
X1729310Y-267365D01*
X1731849Y-264826D01*
X1739467D01*
X1744545Y-269904D02*
X1752163D01*
X1754702Y-267365D01*
X1752163Y-264826D01*
X1747084D01*
X1744545Y-262286D01*
X1747084Y-259747D01*
X1754702D01*
X1775015Y-274982D02*
Y-259747D01*
X1782633D01*
X1785172Y-262286D01*
Y-267365D01*
X1782633Y-269904D01*
X1775015D01*
X1790250Y-259747D02*
Y-267365D01*
X1792789Y-269904D01*
X1800407D01*
Y-259747D01*
X1805485Y-254669D02*
Y-269904D01*
X1813103D01*
X1815642Y-267365D01*
Y-264826D01*
Y-262286D01*
X1813103Y-259747D01*
X1805485D01*
X1820720Y-269904D02*
X1825799D01*
X1823260D01*
Y-254669D01*
X1820720D01*
X1833416Y-269904D02*
X1838495D01*
X1835956D01*
Y-259747D01*
X1833416D01*
X1856269D02*
X1848651D01*
X1846112Y-262286D01*
Y-267365D01*
X1848651Y-269904D01*
X1856269D01*
X1861347D02*
X1866426D01*
X1863886D01*
Y-259747D01*
X1861347D01*
X1876582Y-257208D02*
Y-259747D01*
X1874043D01*
X1879122D01*
X1876582D01*
Y-267365D01*
X1879122Y-269904D01*
X1886739Y-259747D02*
Y-267365D01*
X1889278Y-269904D01*
X1896896D01*
Y-272443D01*
X1894357Y-274982D01*
X1891817D01*
X1896896Y-269904D02*
Y-259747D01*
X1904513Y-272443D02*
X1907052Y-269904D01*
Y-267365D01*
X1904513D01*
Y-269904D01*
X1907052D01*
X1904513Y-272443D01*
X1901974Y-274982D01*
X1932444D02*
Y-259747D01*
X1940062D01*
X1942601Y-262286D01*
Y-267365D01*
X1940062Y-269904D01*
X1932444D01*
X1947679Y-259747D02*
Y-269904D01*
Y-264826D01*
X1950219Y-262286D01*
X1952758Y-259747D01*
X1955297D01*
X1962914Y-269904D02*
X1967993D01*
X1965453D01*
Y-259747D01*
X1962914D01*
X1975610D02*
X1980689Y-269904D01*
X1985767Y-259747D01*
X1993385D02*
X1998463D01*
X2001002Y-262286D01*
Y-269904D01*
X1993385D01*
X1990845Y-267365D01*
X1993385Y-264826D01*
X2001002D01*
X2016237Y-259747D02*
X2008620D01*
X2006080Y-262286D01*
Y-267365D01*
X2008620Y-269904D01*
X2016237D01*
X2021315Y-259747D02*
Y-267365D01*
X2023855Y-269904D01*
X2031472D01*
Y-272443D01*
X2028933Y-274982D01*
X2026394D01*
X2031472Y-269904D02*
Y-259747D01*
X2039090Y-272443D02*
X2041629Y-269904D01*
Y-267365D01*
X2039090D01*
Y-269904D01*
X2041629D01*
X2039090Y-272443D01*
X2036550Y-274982D01*
X2069560Y-269904D02*
X2074638D01*
X2077177Y-267365D01*
Y-262286D01*
X2074638Y-259747D01*
X2069560D01*
X2067021Y-262286D01*
Y-267365D01*
X2069560Y-269904D01*
X2082256Y-259747D02*
Y-269904D01*
Y-264826D01*
X2084795Y-262286D01*
X2087334Y-259747D01*
X2089873D01*
X2112726Y-269904D02*
Y-259747D01*
X2115265D01*
X2117804Y-262286D01*
Y-269904D01*
Y-262286D01*
X2120343Y-259747D01*
X2122883Y-262286D01*
Y-269904D01*
X2130500D02*
X2135578D01*
X2138118Y-267365D01*
Y-262286D01*
X2135578Y-259747D01*
X2130500D01*
X2127961Y-262286D01*
Y-267365D01*
X2130500Y-269904D01*
X2143196Y-259747D02*
Y-269904D01*
Y-264826D01*
X2145735Y-262286D01*
X2148274Y-259747D01*
X2150814D01*
X2160970D02*
X2166049D01*
X2168588Y-262286D01*
Y-269904D01*
X2160970D01*
X2158431Y-267365D01*
X2160970Y-264826D01*
X2168588D01*
X2173666Y-269904D02*
X2178745D01*
X2176205D01*
Y-254669D01*
X2173666D01*
X2201597Y-259747D02*
Y-269904D01*
Y-264826D01*
X2204136Y-262286D01*
X2206676Y-259747D01*
X2209215D01*
X2216832Y-269904D02*
X2221911D01*
X2219371D01*
Y-259747D01*
X2216832D01*
X2234606Y-274982D02*
X2237146D01*
X2239685Y-272443D01*
Y-259747D01*
X2232067D01*
X2229528Y-262286D01*
Y-267365D01*
X2232067Y-269904D01*
X2239685D01*
X2244763Y-254669D02*
Y-269904D01*
Y-262286D01*
X2247302Y-259747D01*
X2252381D01*
X2254920Y-262286D01*
Y-269904D01*
X2262537Y-257208D02*
Y-259747D01*
X2259998D01*
X2265077D01*
X2262537D01*
Y-267365D01*
X2265077Y-269904D01*
X2272694D02*
X2280312D01*
X2282851Y-267365D01*
X2280312Y-264826D01*
X2275233D01*
X2272694Y-262286D01*
X2275233Y-259747D01*
X2282851D01*
X2303164Y-269904D02*
Y-259747D01*
X2305703D01*
X2308243Y-262286D01*
Y-269904D01*
Y-262286D01*
X2310782Y-259747D01*
X2313321Y-262286D01*
Y-269904D01*
X2320939Y-259747D02*
X2326017D01*
X2328556Y-262286D01*
Y-269904D01*
X2320939D01*
X2318399Y-267365D01*
X2320939Y-264826D01*
X2328556D01*
X2333634Y-259747D02*
Y-267365D01*
X2336174Y-269904D01*
X2343791D01*
Y-272443D01*
X2341252Y-274982D01*
X2338713D01*
X2343791Y-269904D02*
Y-259747D01*
X2364105Y-269904D02*
X2369183D01*
X2366644D01*
Y-254669D01*
X2364105D01*
X2376801Y-269904D02*
X2381879D01*
X2379340D01*
Y-259747D01*
X2376801D01*
X2389496Y-269904D02*
Y-259747D01*
X2392036D01*
X2394575Y-262286D01*
Y-269904D01*
Y-262286D01*
X2397114Y-259747D01*
X2399653Y-262286D01*
Y-269904D01*
X2404731D02*
X2409810D01*
X2407271D01*
Y-259747D01*
X2404731D01*
X2419966Y-257208D02*
Y-259747D01*
X2417427D01*
X2422506D01*
X2419966D01*
Y-267365D01*
X2422506Y-269904D01*
X2445358Y-254669D02*
Y-269904D01*
Y-262286D01*
X2447897Y-259747D01*
X2452976D01*
X2455515Y-262286D01*
Y-269904D01*
X2463132D02*
X2468211D01*
X2470750Y-267365D01*
Y-262286D01*
X2468211Y-259747D01*
X2463132D01*
X2460593Y-262286D01*
Y-267365D01*
X2463132Y-269904D01*
X2475828Y-259747D02*
Y-267365D01*
X2478368Y-269904D01*
X2480907Y-267365D01*
X2483446Y-269904D01*
X2485985Y-267365D01*
Y-259747D01*
X2506299D02*
Y-267365D01*
X2508838Y-269904D01*
X2516455D01*
Y-272443D01*
X2513916Y-274982D01*
X2511377D01*
X2516455Y-269904D02*
Y-259747D01*
X2524073Y-269904D02*
X2529151D01*
X2531690Y-267365D01*
Y-262286D01*
X2529151Y-259747D01*
X2524073D01*
X2521534Y-262286D01*
Y-267365D01*
X2524073Y-269904D01*
X2536769Y-259747D02*
Y-267365D01*
X2539308Y-269904D01*
X2546925D01*
Y-259747D01*
X1061506Y-284747D02*
Y-292365D01*
X1064045Y-294904D01*
X1071663D01*
Y-284747D01*
X1076741Y-294904D02*
X1084359D01*
X1086898Y-292365D01*
X1084359Y-289826D01*
X1079280D01*
X1076741Y-287286D01*
X1079280Y-284747D01*
X1086898D01*
X1099594Y-294904D02*
X1094515D01*
X1091976Y-292365D01*
Y-287286D01*
X1094515Y-284747D01*
X1099594D01*
X1102133Y-287286D01*
Y-289826D01*
X1091976D01*
X1124986Y-282208D02*
Y-284747D01*
X1122446D01*
X1127525D01*
X1124986D01*
Y-292365D01*
X1127525Y-294904D01*
X1135142Y-279669D02*
Y-294904D01*
Y-287286D01*
X1137681Y-284747D01*
X1142760D01*
X1145299Y-287286D01*
Y-294904D01*
X1157995D02*
X1152916D01*
X1150377Y-292365D01*
Y-287286D01*
X1152916Y-284747D01*
X1157995D01*
X1160534Y-287286D01*
Y-289826D01*
X1150377D01*
X1180847Y-294904D02*
Y-284747D01*
X1183387D01*
X1185926Y-287286D01*
Y-294904D01*
Y-287286D01*
X1188465Y-284747D01*
X1191004Y-287286D01*
Y-294904D01*
X1198622Y-284747D02*
X1203700D01*
X1206239Y-287286D01*
Y-294904D01*
X1198622D01*
X1196083Y-292365D01*
X1198622Y-289826D01*
X1206239D01*
X1213857Y-282208D02*
Y-284747D01*
X1211318D01*
X1216396D01*
X1213857D01*
Y-292365D01*
X1216396Y-294904D01*
X1231631D02*
X1226553D01*
X1224013Y-292365D01*
Y-287286D01*
X1226553Y-284747D01*
X1231631D01*
X1234170Y-287286D01*
Y-289826D01*
X1224013D01*
X1239249Y-284747D02*
Y-294904D01*
Y-289826D01*
X1241788Y-287286D01*
X1244327Y-284747D01*
X1246866D01*
X1254484Y-294904D02*
X1259562D01*
X1257023D01*
Y-284747D01*
X1254484D01*
X1269719D02*
X1274797D01*
X1277336Y-287286D01*
Y-294904D01*
X1269719D01*
X1267179Y-292365D01*
X1269719Y-289826D01*
X1277336D01*
X1282415Y-294904D02*
X1287493D01*
X1284954D01*
Y-279669D01*
X1282415D01*
X1295110Y-294904D02*
Y-292365D01*
X1297650D01*
Y-294904D01*
X1295110D01*
X1074203Y-2522D02*
X1066585D01*
X1064046Y-5062D01*
Y-10140D01*
X1066585Y-12679D01*
X1074203D01*
X1081820D02*
X1086899D01*
X1089438Y-10140D01*
Y-5062D01*
X1086899Y-2522D01*
X1081820D01*
X1079281Y-5062D01*
Y-10140D01*
X1081820Y-12679D01*
X1094516D02*
Y-2522D01*
X1102134D01*
X1104673Y-5062D01*
Y-12679D01*
X1112290Y17D02*
Y-2522D01*
X1109751D01*
X1114830D01*
X1112290D01*
Y-10140D01*
X1114830Y-12679D01*
X1122447Y-2522D02*
Y-12679D01*
Y-7601D01*
X1124986Y-5062D01*
X1127525Y-2522D01*
X1130065D01*
X1137682Y-12679D02*
X1142760D01*
X1140221D01*
Y-2522D01*
X1137682D01*
X1150378Y2556D02*
Y-12679D01*
X1157996D01*
X1160535Y-10140D01*
Y-7601D01*
Y-5062D01*
X1157996Y-2522D01*
X1150378D01*
X1165613D02*
Y-10140D01*
X1168152Y-12679D01*
X1175770D01*
Y-2522D01*
X1183387Y17D02*
Y-2522D01*
X1180848D01*
X1185927D01*
X1183387D01*
Y-10140D01*
X1185927Y-12679D01*
X1193544D02*
X1198622D01*
X1196083D01*
Y-2522D01*
X1193544D01*
X1208779Y-12679D02*
X1213857D01*
X1216397Y-10140D01*
Y-5062D01*
X1213857Y-2522D01*
X1208779D01*
X1206240Y-5062D01*
Y-10140D01*
X1208779Y-12679D01*
X1221475D02*
Y-2522D01*
X1229093D01*
X1231632Y-5062D01*
Y-12679D01*
X1236710D02*
X1244328D01*
X1246867Y-10140D01*
X1244328Y-7601D01*
X1239249D01*
X1236710Y-5062D01*
X1239249Y-2522D01*
X1246867D01*
X1267180D02*
Y-10140D01*
X1269719Y-12679D01*
X1277337D01*
Y-2522D01*
X1282415Y-12679D02*
Y-2522D01*
X1290033D01*
X1292572Y-5062D01*
Y-12679D01*
X1307807Y2556D02*
Y-12679D01*
X1300190D01*
X1297650Y-10140D01*
Y-5062D01*
X1300190Y-2522D01*
X1307807D01*
X1320503Y-12679D02*
X1315425D01*
X1312885Y-10140D01*
Y-5062D01*
X1315425Y-2522D01*
X1320503D01*
X1323042Y-5062D01*
Y-7601D01*
X1312885D01*
X1328121Y-2522D02*
Y-12679D01*
Y-7601D01*
X1330660Y-5062D01*
X1333199Y-2522D01*
X1335738D01*
X1361130Y17D02*
Y-2522D01*
X1358591D01*
X1363669D01*
X1361130D01*
Y-10140D01*
X1363669Y-12679D01*
X1371287Y2556D02*
Y-12679D01*
Y-5062D01*
X1373826Y-2522D01*
X1378904D01*
X1381443Y-5062D01*
Y-12679D01*
X1394139D02*
X1389061D01*
X1386522Y-10140D01*
Y-5062D01*
X1389061Y-2522D01*
X1394139D01*
X1396678Y-5062D01*
Y-7601D01*
X1386522D01*
X1416992Y-12679D02*
X1424609D01*
X1427148Y-10140D01*
X1424609Y-7601D01*
X1419531D01*
X1416992Y-5062D01*
X1419531Y-2522D01*
X1427148D01*
X1434766D02*
X1439844D01*
X1442384Y-5062D01*
Y-12679D01*
X1434766D01*
X1432227Y-10140D01*
X1434766Y-7601D01*
X1442384D01*
X1447462Y-12679D02*
Y-2522D01*
X1450001D01*
X1452540Y-5062D01*
Y-12679D01*
Y-5062D01*
X1455079Y-2522D01*
X1457619Y-5062D01*
Y-12679D01*
X1470315D02*
X1465236D01*
X1462697Y-10140D01*
Y-5062D01*
X1465236Y-2522D01*
X1470315D01*
X1472854Y-5062D01*
Y-7601D01*
X1462697D01*
X1493167Y-12679D02*
X1498246D01*
X1495706D01*
Y2556D01*
X1493167D01*
X1505863Y-12679D02*
X1510941D01*
X1508402D01*
Y-2522D01*
X1505863D01*
X1528716D02*
X1521098D01*
X1518559Y-5062D01*
Y-10140D01*
X1521098Y-12679D01*
X1528716D01*
X1541411D02*
X1536333D01*
X1533794Y-10140D01*
Y-5062D01*
X1536333Y-2522D01*
X1541411D01*
X1543951Y-5062D01*
Y-7601D01*
X1533794D01*
X1549029Y-12679D02*
Y-2522D01*
X1556647D01*
X1559186Y-5062D01*
Y-12679D01*
X1564264D02*
X1571882D01*
X1574421Y-10140D01*
X1571882Y-7601D01*
X1566803D01*
X1564264Y-5062D01*
X1566803Y-2522D01*
X1574421D01*
X1587117Y-12679D02*
X1582038D01*
X1579499Y-10140D01*
Y-5062D01*
X1582038Y-2522D01*
X1587117D01*
X1589656Y-5062D01*
Y-7601D01*
X1579499D01*
X1612509Y-2522D02*
X1617587D01*
X1620126Y-5062D01*
Y-12679D01*
X1612509D01*
X1609969Y-10140D01*
X1612509Y-7601D01*
X1620126D01*
X1625204Y-12679D02*
X1632822D01*
X1635361Y-10140D01*
X1632822Y-7601D01*
X1627744D01*
X1625204Y-5062D01*
X1627744Y-2522D01*
X1635361D01*
X1658214Y17D02*
Y-2522D01*
X1655675D01*
X1660753D01*
X1658214D01*
Y-10140D01*
X1660753Y-12679D01*
X1668371Y2556D02*
Y-12679D01*
Y-5062D01*
X1670910Y-2522D01*
X1675988D01*
X1678527Y-5062D01*
Y-12679D01*
X1691223D02*
X1686145D01*
X1683605Y-10140D01*
Y-5062D01*
X1686145Y-2522D01*
X1691223D01*
X1693762Y-5062D01*
Y-7601D01*
X1683605D01*
X1716615Y-12679D02*
X1721693D01*
X1724232Y-10140D01*
Y-5062D01*
X1721693Y-2522D01*
X1716615D01*
X1714076Y-5062D01*
Y-10140D01*
X1716615Y-12679D01*
X1729311Y-2522D02*
Y-12679D01*
Y-7601D01*
X1731850Y-5062D01*
X1734389Y-2522D01*
X1736928D01*
X1744546Y-12679D02*
X1749624D01*
X1747085D01*
Y-2522D01*
X1744546D01*
X1762320Y-17757D02*
X1764859D01*
X1767398Y-15218D01*
Y-2522D01*
X1759781D01*
X1757242Y-5062D01*
Y-10140D01*
X1759781Y-12679D01*
X1767398D01*
X1772477D02*
X1777555D01*
X1775016D01*
Y-2522D01*
X1772477D01*
X1785173Y-12679D02*
Y-2522D01*
X1792790D01*
X1795329Y-5062D01*
Y-12679D01*
X1802947Y-2522D02*
X1808025D01*
X1810565Y-5062D01*
Y-12679D01*
X1802947D01*
X1800408Y-10140D01*
X1802947Y-7601D01*
X1810565D01*
X1815643Y-12679D02*
X1820721D01*
X1818182D01*
Y2556D01*
X1815643D01*
X1828339Y-12679D02*
Y-10140D01*
X1830878D01*
Y-12679D01*
X1828339D01*
X1074203Y25017D02*
X1071664Y27556D01*
X1066585D01*
X1064046Y25017D01*
Y22478D01*
X1066585Y19938D01*
X1071664D01*
X1074203Y17399D01*
Y14860D01*
X1071664Y12321D01*
X1066585D01*
X1064046Y14860D01*
X1079281Y27556D02*
Y12321D01*
Y19938D01*
X1081820Y22478D01*
X1086899D01*
X1089438Y19938D01*
Y12321D01*
X1097055Y22478D02*
X1102134D01*
X1104673Y19938D01*
Y12321D01*
X1097055D01*
X1094516Y14860D01*
X1097055Y17399D01*
X1104673D01*
X1109751Y22478D02*
Y12321D01*
Y17399D01*
X1112290Y19938D01*
X1114830Y22478D01*
X1117369D01*
X1132604Y12321D02*
X1127525D01*
X1124986Y14860D01*
Y19938D01*
X1127525Y22478D01*
X1132604D01*
X1135143Y19938D01*
Y17399D01*
X1124986D01*
X1140221Y12321D02*
Y22478D01*
X1145300Y27556D01*
X1150378Y22478D01*
Y12321D01*
Y19938D01*
X1140221D01*
X1155456Y12321D02*
X1160535D01*
X1157996D01*
Y27556D01*
X1155456D01*
X1168152Y12321D02*
X1173231D01*
X1170692D01*
Y22478D01*
X1168152D01*
X1180848Y12321D02*
Y27556D01*
Y17399D02*
X1188466Y22478D01*
X1180848Y17399D02*
X1188466Y12321D01*
X1203701D02*
X1198623D01*
X1196083Y14860D01*
Y19938D01*
X1198623Y22478D01*
X1203701D01*
X1206240Y19938D01*
Y17399D01*
X1196083D01*
X1226553Y19938D02*
X1236710D01*
X1257024Y27556D02*
X1262102D01*
X1259563D01*
Y12321D01*
X1257024D01*
X1262102D01*
X1272259D02*
Y25017D01*
Y19938D01*
X1269719D01*
X1274798D01*
X1272259D01*
Y25017D01*
X1274798Y27556D01*
X1297650Y22478D02*
Y14860D01*
X1300190Y12321D01*
X1307807D01*
Y9782D01*
X1305268Y7243D01*
X1302729D01*
X1307807Y12321D02*
Y22478D01*
X1315425Y12321D02*
X1320503D01*
X1323042Y14860D01*
Y19938D01*
X1320503Y22478D01*
X1315425D01*
X1312885Y19938D01*
Y14860D01*
X1315425Y12321D01*
X1328121Y22478D02*
Y14860D01*
X1330660Y12321D01*
X1338277D01*
Y22478D01*
X1358591D02*
Y12321D01*
Y17399D01*
X1361130Y19938D01*
X1363669Y22478D01*
X1366208D01*
X1381443Y12321D02*
X1376365D01*
X1373826Y14860D01*
Y19938D01*
X1376365Y22478D01*
X1381443D01*
X1383983Y19938D01*
Y17399D01*
X1373826D01*
X1389061Y12321D02*
Y22478D01*
X1391600D01*
X1394139Y19938D01*
Y12321D01*
Y19938D01*
X1396678Y22478D01*
X1399218Y19938D01*
Y12321D01*
X1404296D02*
X1409374D01*
X1406835D01*
Y22478D01*
X1404296D01*
X1416992D02*
X1427148Y12321D01*
X1422070Y17399D01*
X1427148Y22478D01*
X1416992Y12321D01*
X1434766Y9782D02*
X1437305Y12321D01*
Y14860D01*
X1434766D01*
Y12321D01*
X1437305D01*
X1434766Y9782D01*
X1432227Y7243D01*
X1465236Y25017D02*
Y22478D01*
X1462697D01*
X1467775D01*
X1465236D01*
Y14860D01*
X1467775Y12321D01*
X1475393Y22478D02*
Y12321D01*
Y17399D01*
X1477932Y19938D01*
X1480471Y22478D01*
X1483010D01*
X1493167D02*
X1498246D01*
X1500785Y19938D01*
Y12321D01*
X1493167D01*
X1490628Y14860D01*
X1493167Y17399D01*
X1500785D01*
X1505863Y12321D02*
Y22478D01*
X1513481D01*
X1516020Y19938D01*
Y12321D01*
X1521098D02*
X1528716D01*
X1531255Y14860D01*
X1528716Y17399D01*
X1523637D01*
X1521098Y19938D01*
X1523637Y22478D01*
X1531255D01*
X1538872Y12321D02*
Y25017D01*
Y19938D01*
X1536333D01*
X1541411D01*
X1538872D01*
Y25017D01*
X1541411Y27556D01*
X1551568Y12321D02*
X1556647D01*
X1559186Y14860D01*
Y19938D01*
X1556647Y22478D01*
X1551568D01*
X1549029Y19938D01*
Y14860D01*
X1551568Y12321D01*
X1564264Y22478D02*
Y12321D01*
Y17399D01*
X1566803Y19938D01*
X1569342Y22478D01*
X1571882D01*
X1579499Y12321D02*
Y22478D01*
X1582038D01*
X1584578Y19938D01*
Y12321D01*
Y19938D01*
X1587117Y22478D01*
X1589656Y19938D01*
Y12321D01*
X1597274Y9782D02*
X1599813Y12321D01*
Y14860D01*
X1597274D01*
Y12321D01*
X1599813D01*
X1597274Y9782D01*
X1594734Y7243D01*
X1627744Y12321D02*
X1632822D01*
X1635361Y14860D01*
Y19938D01*
X1632822Y22478D01*
X1627744D01*
X1625204Y19938D01*
Y14860D01*
X1627744Y12321D01*
X1640439Y22478D02*
Y12321D01*
Y17399D01*
X1642979Y19938D01*
X1645518Y22478D01*
X1648057D01*
X1670910Y27556D02*
Y12321D01*
X1678527D01*
X1681066Y14860D01*
Y17399D01*
Y19938D01*
X1678527Y22478D01*
X1670910D01*
X1686145D02*
Y14860D01*
X1688684Y12321D01*
X1696302D01*
Y22478D01*
X1701380Y12321D02*
X1706458D01*
X1703919D01*
Y22478D01*
X1701380D01*
X1714076Y12321D02*
X1719154D01*
X1716615D01*
Y27556D01*
X1714076D01*
X1736928D02*
Y12321D01*
X1729311D01*
X1726772Y14860D01*
Y19938D01*
X1729311Y22478D01*
X1736928D01*
X1757242D02*
Y14860D01*
X1759781Y12321D01*
X1767398D01*
Y22478D01*
X1772477Y7243D02*
Y22478D01*
X1780094D01*
X1782634Y19938D01*
Y14860D01*
X1780094Y12321D01*
X1772477D01*
X1790251D02*
X1795329D01*
X1797869Y14860D01*
Y19938D01*
X1795329Y22478D01*
X1790251D01*
X1787712Y19938D01*
Y14860D01*
X1790251Y12321D01*
X1802947D02*
Y22478D01*
X1810565D01*
X1813104Y19938D01*
Y12321D01*
X1835956Y25017D02*
Y22478D01*
X1833417D01*
X1838495D01*
X1835956D01*
Y14860D01*
X1838495Y12321D01*
X1846113Y27556D02*
Y12321D01*
Y19938D01*
X1848652Y22478D01*
X1853730D01*
X1856270Y19938D01*
Y12321D01*
X1868966D02*
X1863887D01*
X1861348Y14860D01*
Y19938D01*
X1863887Y22478D01*
X1868966D01*
X1871505Y19938D01*
Y17399D01*
X1861348D01*
X1891818Y12321D02*
Y22478D01*
X1894357D01*
X1896897Y19938D01*
Y12321D01*
Y19938D01*
X1899436Y22478D01*
X1901975Y19938D01*
Y12321D01*
X1909592Y22478D02*
X1914671D01*
X1917210Y19938D01*
Y12321D01*
X1909592D01*
X1907053Y14860D01*
X1909592Y17399D01*
X1917210D01*
X1924828Y25017D02*
Y22478D01*
X1922288D01*
X1927367D01*
X1924828D01*
Y14860D01*
X1927367Y12321D01*
X1942602D02*
X1937523D01*
X1934984Y14860D01*
Y19938D01*
X1937523Y22478D01*
X1942602D01*
X1945141Y19938D01*
Y17399D01*
X1934984D01*
X1950219Y22478D02*
Y12321D01*
Y17399D01*
X1952758Y19938D01*
X1955298Y22478D01*
X1957837D01*
X1965454Y12321D02*
X1970533D01*
X1967993D01*
Y22478D01*
X1965454D01*
X1980689D02*
X1985768D01*
X1988307Y19938D01*
Y12321D01*
X1980689D01*
X1978150Y14860D01*
X1980689Y17399D01*
X1988307D01*
X1993385Y12321D02*
X1998464D01*
X1995925D01*
Y27556D01*
X1993385D01*
X2008620Y9782D02*
X2011160Y12321D01*
Y14860D01*
X2008620D01*
Y12321D01*
X2011160D01*
X2008620Y9782D01*
X2006081Y7243D01*
X2036551Y22478D02*
Y14860D01*
X2039091Y12321D01*
X2046708D01*
Y9782D01*
X2044169Y7243D01*
X2041630D01*
X2046708Y12321D02*
Y22478D01*
X2054326Y12321D02*
X2059404D01*
X2061943Y14860D01*
Y19938D01*
X2059404Y22478D01*
X2054326D01*
X2051786Y19938D01*
Y14860D01*
X2054326Y12321D01*
X2067021Y22478D02*
Y14860D01*
X2069561Y12321D01*
X2077178D01*
Y22478D01*
X2097492Y12321D02*
Y22478D01*
X2100031D01*
X2102570Y19938D01*
Y12321D01*
Y19938D01*
X2105109Y22478D01*
X2107648Y19938D01*
Y12321D01*
X2112727Y22478D02*
Y14860D01*
X2115266Y12321D01*
X2122883D01*
Y22478D01*
X2127962Y12321D02*
X2135579D01*
X2138118Y14860D01*
X2135579Y17399D01*
X2130501D01*
X2127962Y19938D01*
X2130501Y22478D01*
X2138118D01*
X2145736Y25017D02*
Y22478D01*
X2143197D01*
X2148275D01*
X2145736D01*
Y14860D01*
X2148275Y12321D01*
X2181284Y27556D02*
Y12321D01*
X2173667D01*
X2171128Y14860D01*
Y19938D01*
X2173667Y22478D01*
X2181284D01*
X2186363Y12321D02*
X2191441D01*
X2188902D01*
Y22478D01*
X2186363D01*
X2199059Y12321D02*
X2206676D01*
X2209216Y14860D01*
X2206676Y17399D01*
X2201598D01*
X2199059Y19938D01*
X2201598Y22478D01*
X2209216D01*
X2216833Y25017D02*
Y22478D01*
X2214294D01*
X2219372D01*
X2216833D01*
Y14860D01*
X2219372Y12321D01*
X2226990Y22478D02*
Y12321D01*
Y17399D01*
X2229529Y19938D01*
X2232068Y22478D01*
X2234607D01*
X2242225Y12321D02*
X2247303D01*
X2244764D01*
Y22478D01*
X2242225D01*
X2254921Y27556D02*
Y12321D01*
X2262538D01*
X2265077Y14860D01*
Y17399D01*
Y19938D01*
X2262538Y22478D01*
X2254921D01*
X2270156D02*
Y14860D01*
X2272695Y12321D01*
X2280312D01*
Y22478D01*
X2287930Y25017D02*
Y22478D01*
X2285391D01*
X2290469D01*
X2287930D01*
Y14860D01*
X2290469Y12321D01*
X2305704D02*
X2300626D01*
X2298087Y14860D01*
Y19938D01*
X2300626Y22478D01*
X2305704D01*
X2308243Y19938D01*
Y17399D01*
X2298087D01*
X2328557Y22478D02*
Y14860D01*
X2331096Y12321D01*
X2338714D01*
Y9782D01*
X2336174Y7243D01*
X2333635D01*
X2338714Y12321D02*
Y22478D01*
X2346331Y12321D02*
X2351409D01*
X2353949Y14860D01*
Y19938D01*
X2351409Y22478D01*
X2346331D01*
X2343792Y19938D01*
Y14860D01*
X2346331Y12321D01*
X2359027Y22478D02*
Y14860D01*
X2361566Y12321D01*
X2369184D01*
Y22478D01*
X2374262D02*
Y12321D01*
Y17399D01*
X2376801Y19938D01*
X2379340Y22478D01*
X2381880D01*
X1063506Y326331D02*
Y323792D01*
X1068584Y318713D01*
X1073663Y323792D01*
Y326331D01*
X1068584Y318713D02*
Y311096D01*
X1081280D02*
X1086359D01*
X1088898Y313635D01*
Y318713D01*
X1086359Y321253D01*
X1081280D01*
X1078741Y318713D01*
Y313635D01*
X1081280Y311096D01*
X1093976Y321253D02*
Y313635D01*
X1096515Y311096D01*
X1104133D01*
Y321253D01*
X1126985D02*
X1132064D01*
X1134603Y318713D01*
Y311096D01*
X1126985D01*
X1124446Y313635D01*
X1126985Y316174D01*
X1134603D01*
X1139681Y321253D02*
Y311096D01*
Y316174D01*
X1142221Y318713D01*
X1144760Y321253D01*
X1147299D01*
X1162534Y311096D02*
X1157456D01*
X1154917Y313635D01*
Y318713D01*
X1157456Y321253D01*
X1162534D01*
X1165073Y318713D01*
Y316174D01*
X1154917D01*
X1187926Y311096D02*
Y323792D01*
Y318713D01*
X1185387D01*
X1190465D01*
X1187926D01*
Y323792D01*
X1190465Y326331D01*
X1198083Y321253D02*
Y311096D01*
Y316174D01*
X1200622Y318713D01*
X1203161Y321253D01*
X1205700D01*
X1220935Y311096D02*
X1215857D01*
X1213318Y313635D01*
Y318713D01*
X1215857Y321253D01*
X1220935D01*
X1223474Y318713D01*
Y316174D01*
X1213318D01*
X1236170Y311096D02*
X1231092D01*
X1228553Y313635D01*
Y318713D01*
X1231092Y321253D01*
X1236170D01*
X1238709Y318713D01*
Y316174D01*
X1228553D01*
X1261562Y323792D02*
Y321253D01*
X1259023D01*
X1264101D01*
X1261562D01*
Y313635D01*
X1264101Y311096D01*
X1274258D02*
X1279336D01*
X1281875Y313635D01*
Y318713D01*
X1279336Y321253D01*
X1274258D01*
X1271719Y318713D01*
Y313635D01*
X1274258Y311096D01*
X1286954Y321253D02*
X1289493D01*
Y318713D01*
X1286954D01*
Y321253D01*
Y313635D02*
X1289493D01*
Y311096D01*
X1286954D01*
Y313635D01*
X1061506Y-329669D02*
Y-344904D01*
X1069124D01*
X1071663Y-342365D01*
Y-339826D01*
X1069124Y-337286D01*
X1061506D01*
X1069124D01*
X1071663Y-334747D01*
Y-332208D01*
X1069124Y-329669D01*
X1061506D01*
X1079280Y-334747D02*
X1084359D01*
X1086898Y-337286D01*
Y-344904D01*
X1079280D01*
X1076741Y-342365D01*
X1079280Y-339826D01*
X1086898D01*
X1091976Y-344904D02*
X1099594D01*
X1102133Y-342365D01*
X1099594Y-339826D01*
X1094515D01*
X1091976Y-337286D01*
X1094515Y-334747D01*
X1102133D01*
X1114829Y-344904D02*
X1109750D01*
X1107211Y-342365D01*
Y-337286D01*
X1109750Y-334747D01*
X1114829D01*
X1117368Y-337286D01*
Y-339826D01*
X1107211D01*
X1132603Y-329669D02*
Y-344904D01*
X1124986D01*
X1122446Y-342365D01*
Y-337286D01*
X1124986Y-334747D01*
X1132603D01*
X1155456Y-344904D02*
X1160534D01*
X1163073Y-342365D01*
Y-337286D01*
X1160534Y-334747D01*
X1155456D01*
X1152916Y-337286D01*
Y-342365D01*
X1155456Y-344904D01*
X1168151D02*
Y-334747D01*
X1175769D01*
X1178308Y-337286D01*
Y-344904D01*
X1198622D02*
Y-334747D01*
X1203700Y-329669D01*
X1208778Y-334747D01*
Y-344904D01*
Y-337286D01*
X1198622D01*
X1213857Y-334747D02*
Y-344904D01*
Y-339826D01*
X1216396Y-337286D01*
X1218935Y-334747D01*
X1221474D01*
X1239249Y-329669D02*
Y-344904D01*
X1231631D01*
X1229092Y-342365D01*
Y-337286D01*
X1231631Y-334747D01*
X1239249D01*
X1244327D02*
Y-342365D01*
X1246866Y-344904D01*
X1254484D01*
Y-334747D01*
X1259562Y-344904D02*
X1264640D01*
X1262101D01*
Y-334747D01*
X1259562D01*
X1272258Y-344904D02*
Y-334747D01*
X1279875D01*
X1282415Y-337286D01*
Y-344904D01*
X1290032D02*
X1295110D01*
X1297650Y-342365D01*
Y-337286D01*
X1295110Y-334747D01*
X1290032D01*
X1287493Y-337286D01*
Y-342365D01*
X1290032Y-344904D01*
X1302728Y-334747D02*
X1305267D01*
Y-337286D01*
X1302728D01*
Y-334747D01*
Y-342365D02*
X1305267D01*
Y-344904D01*
X1302728D01*
Y-342365D01*
X1330659Y-329669D02*
Y-344904D01*
Y-337286D01*
X1333198Y-334747D01*
X1338277D01*
X1340816Y-337286D01*
Y-344904D01*
X1348433Y-332208D02*
Y-334747D01*
X1345894D01*
X1350972D01*
X1348433D01*
Y-342365D01*
X1350972Y-344904D01*
X1361129Y-332208D02*
Y-334747D01*
X1358590D01*
X1363668D01*
X1361129D01*
Y-342365D01*
X1363668Y-344904D01*
X1371286Y-349982D02*
Y-334747D01*
X1378903D01*
X1381443Y-337286D01*
Y-342365D01*
X1378903Y-344904D01*
X1371286D01*
X1386521Y-334747D02*
X1389060D01*
Y-337286D01*
X1386521D01*
Y-334747D01*
Y-342365D02*
X1389060D01*
Y-344904D01*
X1386521D01*
Y-342365D01*
X1399217Y-344904D02*
X1409373Y-334747D01*
X1414452Y-344904D02*
X1424608Y-334747D01*
X1429687D02*
Y-342365D01*
X1432226Y-344904D01*
X1434765Y-342365D01*
X1437304Y-344904D01*
X1439844Y-342365D01*
Y-334747D01*
X1444922D02*
Y-342365D01*
X1447461Y-344904D01*
X1450000Y-342365D01*
X1452540Y-344904D01*
X1455079Y-342365D01*
Y-334747D01*
X1460157D02*
Y-342365D01*
X1462696Y-344904D01*
X1465235Y-342365D01*
X1467775Y-344904D01*
X1470314Y-342365D01*
Y-334747D01*
X1475392Y-344904D02*
Y-342365D01*
X1477931D01*
Y-344904D01*
X1475392D01*
X1490627Y-334747D02*
X1495706D01*
X1498245Y-337286D01*
Y-344904D01*
X1490627D01*
X1488088Y-342365D01*
X1490627Y-339826D01*
X1498245D01*
X1503323Y-334747D02*
Y-344904D01*
Y-339826D01*
X1505862Y-337286D01*
X1508401Y-334747D01*
X1510941D01*
X1528715Y-329669D02*
Y-344904D01*
X1521097D01*
X1518558Y-342365D01*
Y-337286D01*
X1521097Y-334747D01*
X1528715D01*
X1533793D02*
Y-342365D01*
X1536332Y-344904D01*
X1543950D01*
Y-334747D01*
X1549028Y-344904D02*
X1554107D01*
X1551568D01*
Y-334747D01*
X1549028D01*
X1561724Y-344904D02*
Y-334747D01*
X1569342D01*
X1571881Y-337286D01*
Y-344904D01*
X1579498D02*
X1584577D01*
X1587116Y-342365D01*
Y-337286D01*
X1584577Y-334747D01*
X1579498D01*
X1576959Y-337286D01*
Y-342365D01*
X1579498Y-344904D01*
X1592194D02*
Y-342365D01*
X1594733D01*
Y-344904D01*
X1592194D01*
X1615047Y-334747D02*
X1607429D01*
X1604890Y-337286D01*
Y-342365D01*
X1607429Y-344904D01*
X1615047D01*
X1630282Y-334747D02*
X1622664D01*
X1620125Y-337286D01*
Y-342365D01*
X1622664Y-344904D01*
X1630282D01*
X1635360D02*
X1645517Y-334747D01*
M02*
