G04*
G04 #@! TF.GenerationSoftware,Altium Limited,Altium Designer,21.3.1 (25)*
G04*
G04 Layer_Physical_Order=1*
G04 Layer_Color=255*
%FSLAX44Y44*%
%MOMM*%
G71*
G04*
G04 #@! TF.SameCoordinates,472AA62F-3F09-4C21-BF2B-41C26AEB2B16*
G04*
G04*
G04 #@! TF.FilePolarity,Positive*
G04*
G01*
G75*
%ADD10C,0.2000*%
%ADD12C,0.2540*%
%ADD13C,0.4000*%
%ADD15R,3.5000X2.2000*%
%ADD16R,0.6000X2.2000*%
%ADD17R,1.2000X0.9000*%
%ADD18R,2.7000X2.0000*%
%ADD19R,1.3000X0.7000*%
%ADD20R,0.7000X1.3000*%
%ADD21R,2.5000X2.6000*%
%ADD22R,2.6000X2.5000*%
%ADD23R,1.0000X0.5500*%
%ADD24R,0.5500X1.0000*%
%ADD25R,1.6000X3.0000*%
%ADD26R,0.8000X0.8000*%
%ADD27R,1.9000X1.9000*%
%ADD28R,1.4000X1.6000*%
%ADD29R,1.3500X0.4000*%
%ADD30R,1.5000X0.5500*%
%ADD31R,0.5500X1.5000*%
%ADD32R,0.6858X0.5588*%
%ADD33R,0.5588X0.6858*%
%ADD34R,0.9000X0.6000*%
%ADD35R,0.9000X1.2000*%
%ADD64R,1.9000X1.9000*%
%ADD65C,1.9000*%
%ADD70C,1.0160*%
%ADD71C,0.6000*%
%ADD72C,0.8000*%
%ADD73C,1.0000*%
%ADD74C,3.2000*%
%ADD75C,4.0000*%
%ADD76O,1.6000X2.0000*%
%ADD77R,1.6000X2.0000*%
%ADD78C,7.4000*%
%ADD79R,1.7000X1.7000*%
%ADD80C,1.7000*%
%ADD81O,2.0000X1.6000*%
%ADD82R,2.0000X1.6000*%
G04:AMPARAMS|DCode=83|XSize=2mm|YSize=1.2mm|CornerRadius=0.36mm|HoleSize=0mm|Usage=FLASHONLY|Rotation=0.000|XOffset=0mm|YOffset=0mm|HoleType=Round|Shape=RoundedRectangle|*
%AMROUNDEDRECTD83*
21,1,2.0000,0.4800,0,0,0.0*
21,1,1.2800,1.2000,0,0,0.0*
1,1,0.7200,0.6400,-0.2400*
1,1,0.7200,-0.6400,-0.2400*
1,1,0.7200,-0.6400,0.2400*
1,1,0.7200,0.6400,0.2400*
%
%ADD83ROUNDEDRECTD83*%
%ADD84C,0.6000*%
G36*
X80250Y432500D02*
X120000D01*
X131500Y421000D01*
Y401250D01*
X96250D01*
Y417000D01*
X91500Y421750D01*
X84219D01*
X81524Y422472D01*
X78496D01*
X75802Y421750D01*
X58818D01*
X56124Y422472D01*
X53096D01*
X50402Y421750D01*
X39250D01*
Y401500D01*
X38500Y400750D01*
X19750D01*
Y437750D01*
X75000D01*
X80250Y432500D01*
D02*
G37*
G36*
X418250Y382750D02*
X401750D01*
Y483750D01*
X418250D01*
Y382750D01*
D02*
G37*
G36*
X652000Y419000D02*
Y401750D01*
X707000D01*
X707250Y401500D01*
Y301750D01*
X592250D01*
Y351250D01*
X605250D01*
X605500Y351500D01*
Y355752D01*
X606194D01*
Y374752D01*
X605500D01*
Y378064D01*
X606566D01*
Y392064D01*
X592566D01*
Y378064D01*
X593750D01*
Y374752D01*
X593194D01*
Y374250D01*
X587194D01*
Y374752D01*
X576308D01*
Y406833D01*
X577307Y407500D01*
X579693D01*
X581899Y408414D01*
X582011Y408526D01*
X635750Y408750D01*
X635500Y409000D01*
Y419250D01*
X651750D01*
X652000Y419000D01*
D02*
G37*
G36*
X51552Y239612D02*
X55250D01*
Y222250D01*
X41750D01*
Y217410D01*
X39860D01*
Y207410D01*
Y200910D01*
Y194410D01*
Y187910D01*
X55717D01*
X60750Y182877D01*
Y158250D01*
X104250D01*
Y181250D01*
X105870D01*
Y180746D01*
X118870D01*
Y181250D01*
X180750D01*
X181423Y181922D01*
X183750D01*
Y172960D01*
X182645Y171855D01*
X181540Y170201D01*
X181152Y168250D01*
Y160348D01*
X162000D01*
X160049Y159960D01*
X158612Y159000D01*
X158500D01*
X135000Y135500D01*
Y135420D01*
X133974Y133885D01*
X133586Y131934D01*
Y123208D01*
X132684D01*
Y121934D01*
X131550Y120800D01*
X131242Y120739D01*
X130250Y120076D01*
X124174Y114000D01*
X110916D01*
X110500Y114000D01*
X110250Y114250D01*
X109750Y113750D01*
X109750Y113023D01*
X108837Y112413D01*
X108174Y111420D01*
X107941Y110250D01*
Y98000D01*
X108174Y96830D01*
X108837Y95837D01*
X109830Y95174D01*
X111000Y94941D01*
X113441D01*
Y71750D01*
X113441Y71750D01*
X113674Y70580D01*
X114337Y69587D01*
X114337Y69587D01*
X114587Y69337D01*
X114750Y69228D01*
Y69000D01*
X115092D01*
X115238Y68902D01*
Y68788D01*
X115409D01*
X115579Y68674D01*
X116750Y68441D01*
X116750Y68441D01*
X134500D01*
X135670Y68674D01*
X135841Y68788D01*
X137238D01*
Y69000D01*
X149307D01*
X151638Y68693D01*
X153969Y69000D01*
X166966D01*
X167080Y68924D01*
X168250Y68691D01*
X168250Y68691D01*
X192500D01*
X193671Y68924D01*
X193784Y69000D01*
X196500D01*
X196250Y69250D01*
Y92191D01*
X201820D01*
X202351Y92297D01*
X202977Y91126D01*
X199955Y88105D01*
X198850Y86451D01*
X198462Y84500D01*
Y80760D01*
X198850Y78809D01*
X199955Y77155D01*
X201609Y76050D01*
X203560Y75662D01*
X205511Y76050D01*
X207165Y77155D01*
X208270Y78809D01*
X208658Y80760D01*
Y82388D01*
X214425Y88155D01*
X214980Y88986D01*
X216250Y88601D01*
Y54554D01*
X215737Y53665D01*
X215186Y51610D01*
Y49482D01*
X215737Y47427D01*
X216250Y46538D01*
Y3750D01*
X95750D01*
X95500Y4000D01*
Y37500D01*
X89232D01*
Y38648D01*
X68250D01*
Y81388D01*
X88724D01*
Y84083D01*
X88826Y84330D01*
X89059Y85500D01*
Y97691D01*
X94250D01*
X94250Y97691D01*
X95421Y97924D01*
X96413Y98587D01*
X96413Y98587D01*
X96663Y98837D01*
X96772Y99000D01*
X97000D01*
Y99342D01*
X97326Y99829D01*
X97559Y101000D01*
X97559Y101000D01*
Y119500D01*
X97326Y120670D01*
X97000Y121158D01*
Y122000D01*
X96158D01*
X95670Y122326D01*
X94500Y122559D01*
X86000D01*
X85816Y122522D01*
X85628Y122536D01*
X85235Y122407D01*
X84830Y122326D01*
X84673Y122221D01*
X84495Y122163D01*
X84306Y122000D01*
X67500D01*
X59559Y114059D01*
X41900D01*
Y114600D01*
X10250D01*
Y241750D01*
X51552D01*
Y239612D01*
D02*
G37*
G36*
X155750Y96250D02*
X134750D01*
X134500Y96000D01*
Y71500D01*
X116750D01*
X116500Y71750D01*
Y98000D01*
X111000D01*
Y110250D01*
X124250D01*
X124500Y110000D01*
X132413Y117913D01*
X133586Y117427D01*
Y109208D01*
X133974Y107257D01*
X135079Y105603D01*
X136733Y104498D01*
X138684Y104110D01*
X140635Y104498D01*
X142289Y105603D01*
X143394Y107257D01*
X143782Y109208D01*
Y120000D01*
X155750D01*
Y96250D01*
D02*
G37*
G36*
X196000Y119065D02*
X189484D01*
X187143Y118599D01*
X185158Y117273D01*
X183832Y115288D01*
X183367Y112947D01*
Y109208D01*
X183832Y106867D01*
X185158Y104882D01*
X187143Y103556D01*
X189484Y103090D01*
X191825Y103556D01*
X193810Y104882D01*
X195111Y106830D01*
X200577D01*
X201820Y106054D01*
Y95250D01*
X193770D01*
X193000Y95250D01*
X192750Y95500D01*
X192500Y95250D01*
X192500Y94187D01*
Y86603D01*
X191912Y85585D01*
X191060Y82406D01*
Y79114D01*
X191912Y75935D01*
X192500Y74917D01*
Y71750D01*
X168250D01*
X167750Y72250D01*
Y95208D01*
X170084D01*
Y96500D01*
X172250D01*
Y120500D01*
X196000D01*
Y119065D01*
D02*
G37*
G36*
X94500Y101000D02*
X94250Y100750D01*
X86000D01*
Y85500D01*
X85896Y85250D01*
X12500D01*
Y110500D01*
X13563Y111000D01*
X61000D01*
X65750Y115750D01*
X85250D01*
Y118541D01*
X86000Y119500D01*
X94500D01*
Y101000D01*
D02*
G37*
G36*
X430750Y105250D02*
X434000D01*
Y78250D01*
X459500D01*
Y67500D01*
X459250Y67250D01*
X437750D01*
Y65000D01*
X437646Y64750D01*
X428594D01*
X427920Y65200D01*
X427250Y65333D01*
Y83500D01*
X421250Y89500D01*
X418500D01*
Y114750D01*
X416750Y116500D01*
X410000D01*
Y138500D01*
X430750D01*
Y105250D01*
D02*
G37*
G36*
X501250Y84000D02*
Y48250D01*
X500500Y47500D01*
X496000Y43000D01*
X486750D01*
Y84250D01*
X486000Y85000D01*
X484750D01*
Y93500D01*
X491750D01*
X501250Y84000D01*
D02*
G37*
G36*
X371500Y11000D02*
X352250D01*
Y26750D01*
X341000Y38000D01*
X328250D01*
Y48990D01*
X328584Y50000D01*
X371500D01*
Y11000D01*
D02*
G37*
G36*
X424910Y62374D02*
X426750D01*
Y52500D01*
X446250Y33000D01*
Y10750D01*
X403500D01*
Y62750D01*
X424910D01*
Y62374D01*
D02*
G37*
G36*
X343000Y59500D02*
X328500D01*
X319500Y32250D01*
Y10750D01*
X299250D01*
Y51250D01*
X315250D01*
X322438Y72500D01*
X343000D01*
Y59500D01*
D02*
G37*
G36*
X355000Y83250D02*
X382000D01*
X398500Y66750D01*
Y10428D01*
X377250D01*
Y36500D01*
X383750D01*
Y64500D01*
X376500Y71750D01*
X354500D01*
X349250Y77000D01*
X328000D01*
Y86000D01*
X352250D01*
X355000Y83250D01*
D02*
G37*
G36*
X45500Y39000D02*
X50000Y34500D01*
X87500D01*
Y7000D01*
Y4750D01*
X9500D01*
Y75000D01*
X10250Y75750D01*
X45500D01*
Y39000D01*
D02*
G37*
D10*
X655574Y208818D02*
Y221894D01*
X248560Y15760D02*
Y80760D01*
X282750Y389000D02*
X305000Y411250D01*
X263206Y385254D02*
Y387512D01*
X264694Y389000D02*
X282750D01*
X260476Y382524D02*
X263206Y385254D01*
Y387512D02*
X264694Y389000D01*
X290812Y423000D02*
X297082Y429270D01*
X303770D01*
X306000Y431500D01*
Y434500D01*
X273680Y423000D02*
X290812D01*
X270680Y420000D02*
X273680Y423000D01*
X267397Y420000D02*
X270680D01*
X265068Y417672D02*
X267397Y420000D01*
X261634Y401970D02*
Y416184D01*
X263122Y417672D02*
X265068D01*
X261634Y416184D02*
X263122Y417672D01*
X322480Y421903D02*
Y427230D01*
X329000Y433750D01*
X285110Y372110D02*
X323000Y410000D01*
Y421383D01*
X322480Y421903D02*
X323000Y421383D01*
X287500Y321500D02*
X339810Y373810D01*
X320548Y461702D02*
X339810Y442440D01*
X304750Y468000D02*
X335270Y437480D01*
X339810Y373810D02*
Y442440D01*
X335270Y384800D02*
Y437480D01*
X279398Y328928D02*
X335270Y384800D01*
X328750Y399250D02*
Y424500D01*
X292250Y362750D02*
X328750Y399250D01*
X572516Y107734D02*
X589788Y90462D01*
Y22606D02*
Y90462D01*
X572516Y107734D02*
Y127762D01*
X547750Y444750D02*
X571534Y468534D01*
X547750Y230594D02*
Y444750D01*
Y230594D02*
X572516Y205828D01*
X534500Y455750D02*
X585226Y506476D01*
X534500Y216578D02*
Y455750D01*
Y216578D02*
X547116Y203962D01*
X497804Y263270D02*
X499262D01*
X500750Y264758D02*
Y468750D01*
X535940Y503940D01*
X499262Y263270D02*
X500750Y264758D01*
X496316Y261782D02*
X497804Y263270D01*
X496316Y203962D02*
Y261782D01*
X521716Y203962D02*
Y209604D01*
X517750Y213570D02*
X521716Y209604D01*
X517750Y213570D02*
Y466000D01*
X473000Y390250D02*
Y472250D01*
X364776Y251746D02*
Y282026D01*
X473000Y390250D01*
X459590Y395090D02*
Y446760D01*
X357000Y292500D02*
X459590Y395090D01*
X357000Y252860D02*
Y292500D01*
X424180Y380680D02*
Y504444D01*
X349000Y305500D02*
X424180Y380680D01*
X349000Y252480D02*
Y305500D01*
X339750Y315000D02*
X396748Y371998D01*
Y506476D01*
X339750Y250850D02*
Y315000D01*
X330200Y323450D02*
X371348Y364598D01*
X330200Y264160D02*
Y323450D01*
X371348Y364598D02*
Y506476D01*
X190644Y336342D02*
Y351144D01*
X222024Y382524D02*
X244476D01*
X190644Y351144D02*
X222024Y382524D01*
X223904Y399154D02*
X242818D01*
X182644Y336342D02*
Y357894D01*
X223904Y399154D01*
X90505Y341955D02*
Y350246D01*
X69908Y370842D02*
X90505Y350246D01*
X69340Y370842D02*
X69908D01*
X57235Y366302D02*
X66448D01*
X78982Y353768D01*
Y338518D02*
Y353768D01*
X90505Y341955D02*
X92354Y340106D01*
X54610Y385572D02*
X69340Y370842D01*
X78982Y338518D02*
X87164Y330336D01*
X90218Y320862D02*
X127164D01*
X74442Y336638D02*
Y350027D01*
X87164Y330336D02*
X116208D01*
X74442Y336638D02*
X90218Y320862D01*
X53578Y361204D02*
X63264D01*
X74442Y350027D01*
X91638Y312862D02*
X108573D01*
X60960Y341884D02*
X68190Y334654D01*
X69846D01*
X91638Y312862D01*
X91561Y304862D02*
X127164D01*
X68169Y328254D02*
X91561Y304862D01*
X50674Y301370D02*
X82156D01*
X35560Y316484D02*
X35560D01*
X73463D02*
X93085Y296862D01*
X49190Y328254D02*
X68169D01*
X60960Y316484D02*
X73463D01*
X82156Y301370D02*
X94664Y288862D01*
X109350Y468500D02*
X219580D01*
X96180Y481670D02*
X109350Y468500D01*
X219580D02*
X219710Y468630D01*
X87290Y507070D02*
X118110Y476250D01*
X212750D02*
X230218Y493718D01*
X118110Y476250D02*
X212750D01*
X229662Y372110D02*
X285110D01*
X238750Y362750D02*
X292250D01*
X211164Y335164D02*
X238750Y362750D01*
X211164Y320862D02*
Y335164D01*
X274250Y120180D02*
X289020Y105410D01*
X274250Y217171D02*
X287500Y230420D01*
X274250Y120180D02*
Y217171D01*
X268000Y116810D02*
X287782Y97028D01*
X268000Y217341D02*
X279398Y228739D01*
X268000Y116810D02*
Y217341D01*
X280750Y193750D02*
X287810Y186690D01*
X280750Y217250D02*
X296250Y232750D01*
X280750Y193750D02*
Y217250D01*
X287500Y230420D02*
Y321500D01*
X296250Y315500D02*
X345948Y365198D01*
X296250Y232750D02*
Y315500D01*
X345948Y365198D02*
Y506476D01*
X575534Y458534D02*
X603314D01*
X560150Y443150D02*
X575534Y458534D01*
X560150Y241728D02*
Y443150D01*
X571534Y468534D02*
X592590D01*
X510540Y494040D02*
Y506476D01*
X487250Y387188D02*
Y470750D01*
X510540Y494040D01*
X473000Y472250D02*
X485140Y484390D01*
Y506476D01*
X400166Y300105D02*
X487250Y387188D01*
X517750Y466000D02*
X553651Y501900D01*
X372500Y214180D02*
Y272438D01*
X400166Y300104D01*
X369316Y203962D02*
X371892Y206537D01*
Y213571D01*
X372500Y214180D01*
X400166Y300104D02*
Y300105D01*
X320120Y215980D02*
X357000Y252860D01*
X318770Y229870D02*
X339750Y250850D01*
X319042Y222523D02*
X349000Y252480D01*
X304380Y229870D02*
X318770D01*
X297866Y222523D02*
X319042D01*
X304250Y230000D02*
X304380Y229870D01*
X320548Y461702D02*
Y506476D01*
X304750Y468000D02*
Y498500D01*
X295148Y506476D02*
X296774D01*
X304750Y498500D01*
X295830Y500152D02*
Y503794D01*
Y473653D02*
Y500152D01*
X287810Y186690D02*
X334010D01*
X592590Y468534D02*
X612140Y488084D01*
X590554Y450498D02*
X591820Y451764D01*
X582998Y450498D02*
X590554D01*
X566420Y421580D02*
Y433920D01*
X582998Y450498D01*
X603314Y458534D02*
X613260Y468480D01*
X597916Y203962D02*
Y203962D01*
X560150Y241728D02*
X597916Y203962D01*
X572230Y417730D02*
X586770Y432270D01*
X588500Y434064D02*
Y435000D01*
X572230Y273440D02*
Y417730D01*
X586770Y432334D02*
X588500Y434064D01*
X586770Y432270D02*
Y432334D01*
X573500Y428250D02*
X574162Y428912D01*
Y431162D01*
X584270Y441270D01*
X459590Y446760D02*
X459740Y446911D01*
X585226Y506476D02*
X586740D01*
X556764Y501900D02*
X561340Y506476D01*
X553651Y501900D02*
X556764D01*
X535940Y503940D02*
Y506476D01*
X450240Y255500D02*
X456930Y262190D01*
X450240Y252500D02*
Y255500D01*
X461505Y267810D02*
X463448D01*
X464936Y269298D01*
Y285750D01*
X456930Y262190D02*
Y263235D01*
X461505Y267810D01*
X459740Y446911D02*
Y506476D01*
X640588Y22606D02*
Y39227D01*
X623316Y56499D02*
Y127762D01*
Y56499D02*
X640588Y39227D01*
X597916Y107834D02*
Y127762D01*
X615188Y22606D02*
Y90562D01*
X597916Y107834D02*
X615188Y90562D01*
X547116Y106634D02*
X564388Y89362D01*
Y22606D02*
Y89362D01*
X547116Y106634D02*
Y127762D01*
X521716Y105284D02*
X538988Y88012D01*
Y22606D02*
Y88012D01*
X521716Y105284D02*
Y127762D01*
X483870Y133254D02*
X496366Y145750D01*
X657308D02*
X659434Y143624D01*
X496366Y145750D02*
X657308D01*
X483870Y119630D02*
Y133254D01*
X509750Y50010D02*
Y93750D01*
X496316Y113604D02*
X514290Y95631D01*
X496316Y113604D02*
Y127762D01*
X483870Y119630D02*
X509750Y93750D01*
X514290Y48130D02*
Y95631D01*
X513588Y47428D02*
X514290Y48130D01*
X513588Y22606D02*
Y47428D01*
X488950Y29210D02*
X509750Y50010D01*
X201588Y408750D02*
X224600D01*
X183388Y390550D02*
X201588Y408750D01*
X224600D02*
X224790Y408940D01*
X180250Y388320D02*
X182480Y390550D01*
X165442Y355942D02*
X180250Y370750D01*
Y388320D01*
X165164Y334862D02*
Y355587D01*
X181164Y334862D02*
X182644Y336342D01*
X242818Y399154D02*
X244476Y400812D01*
X260476D02*
X261634Y401970D01*
X193632Y460000D02*
X282177D01*
X180520Y446888D02*
X193632Y460000D01*
X282177D02*
X295830Y473653D01*
X230218Y493718D02*
Y510284D01*
X239680Y519746D01*
X160000Y196500D02*
Y227875D01*
X171684Y239559D01*
X578500Y413500D02*
X593061Y428061D01*
X620143D02*
X634041Y441960D01*
X593061Y428061D02*
X620143D01*
X169190Y437388D02*
X178270D01*
X54610Y469900D02*
X87122Y437388D01*
X133331D01*
X143077Y427642D01*
X165786D02*
X167702Y429557D01*
Y435900D02*
X169190Y437388D01*
X167702Y429557D02*
Y435900D01*
X143077Y427642D02*
X165786D01*
X566420Y421580D02*
X566500Y421500D01*
X584270Y441270D02*
X604742D01*
X615490Y452018D01*
X572230Y273440D02*
X612800Y232870D01*
X572516Y203962D02*
Y205828D01*
X634041Y441960D02*
X670306D01*
X422148Y506476D02*
X424180Y504444D01*
X279398Y228739D02*
Y328928D01*
X630046Y176404D02*
X657954Y148496D01*
X630046Y176404D02*
Y197232D01*
X657954Y145104D02*
Y148496D01*
X677774Y125476D02*
X678028Y125730D01*
X693420D01*
X205753Y138633D02*
X205956Y138836D01*
X195580Y138430D02*
X195783Y138633D01*
X235332Y416560D02*
X243714Y424942D01*
X209000Y423691D02*
Y426408D01*
X216131Y416560D02*
X235332D01*
X209000Y423691D02*
X216131Y416560D01*
X207520Y427888D02*
X209000Y426408D01*
X107950Y370840D02*
X113665Y376555D01*
X107950Y358140D02*
Y370840D01*
X108573Y312862D02*
X127164D01*
X113665Y376555D02*
X163195D01*
X167702Y381062D02*
Y392780D01*
X154432Y401702D02*
Y413512D01*
Y401702D02*
X156752Y399382D01*
X161100D01*
X167702Y392780D01*
X163195Y376555D02*
X167702Y381062D01*
X81280Y386842D02*
X153162D01*
X121899Y362712D02*
X154432D01*
X116840Y358140D02*
X117327D01*
X80010Y385572D02*
X81280Y386842D01*
X117327Y358140D02*
X121899Y362712D01*
X153162Y386842D02*
X154432Y388112D01*
X126663Y340106D02*
X132189Y345632D01*
X111354Y340106D02*
X126663D01*
X132189Y345632D02*
X145268D01*
X108608Y272108D02*
X115854Y264862D01*
X49610Y192910D02*
X50340Y192180D01*
X57214D01*
X74864Y168402D02*
X93370D01*
X66289Y176977D02*
X74864Y168402D01*
X66289Y176977D02*
Y183105D01*
X57214Y192180D02*
X66289Y183105D01*
X256032Y158598D02*
X256540Y159106D01*
Y177800D01*
X233337Y139217D02*
X255651D01*
X232956Y138836D02*
X233337Y139217D01*
X255651D02*
X256032Y139598D01*
X228950Y106760D02*
X232180Y103530D01*
X220090Y115886D02*
X228950Y107026D01*
X232180Y103530D02*
X251666D01*
X220090Y115886D02*
Y137077D01*
X228950Y106760D02*
Y107026D01*
X205956Y148336D02*
Y157836D01*
Y148336D02*
X207436Y146856D01*
X210310D01*
X220090Y137077D01*
X268884Y83312D02*
Y86312D01*
X251666Y103530D02*
X268884Y86312D01*
X285654Y81082D02*
X287884Y83312D01*
X273764Y64364D02*
X285654Y76254D01*
X270764Y64364D02*
X273764D01*
X285654Y76254D02*
Y81082D01*
X248560Y80760D02*
X262726Y66594D01*
X268534D01*
X270764Y64364D01*
X388468Y97028D02*
Y100028D01*
X394716Y106276D02*
Y127762D01*
X388468Y100028D02*
X394716Y106276D01*
X488950Y15240D02*
Y29210D01*
X480060Y6350D02*
X488950Y15240D01*
X350298Y6350D02*
X480060D01*
X49610Y199410D02*
X69480D01*
X49610Y205910D02*
X68654D01*
X69480Y199410D02*
X73176Y195714D01*
X74676D02*
X76176D01*
X74676Y210432D02*
X91712D01*
X68654Y205910D02*
X73176Y210432D01*
Y195714D02*
X74676D01*
X73176Y210432D02*
X74676D01*
X91712D02*
X93370Y212090D01*
X171684Y249382D02*
X173164Y250862D01*
X171684Y239559D02*
Y249382D01*
X167640Y199390D02*
Y229095D01*
X179684Y241138D01*
X114600Y194310D02*
X118110D01*
X112370Y190246D02*
Y192080D01*
X114600Y194310D01*
X179684Y249382D02*
X181164Y250862D01*
X179684Y241138D02*
Y249382D01*
X112370Y212090D02*
X119380D01*
X81644Y190246D02*
X93370D01*
X76176Y195714D02*
X81644Y190246D01*
X33630Y249842D02*
X35860Y247612D01*
X33630Y249842D02*
Y252730D01*
X35860Y247612D02*
X57302D01*
X66802D01*
X68282Y243258D02*
X77098Y234442D01*
X68282Y243258D02*
Y246132D01*
X66802Y247612D02*
X68282Y246132D01*
X77098Y234442D02*
X93726D01*
X14630Y252730D02*
X15570Y253670D01*
Y270078D02*
X16510Y271018D01*
X15570Y253670D02*
Y270078D01*
X36119Y271729D02*
X36830Y272440D01*
X17221Y271729D02*
X36119D01*
X16510Y271018D02*
X17221Y271729D01*
X76874Y275184D02*
X103378D01*
X76302Y274612D02*
X76874Y275184D01*
X106378D02*
X108608Y272954D01*
X103378Y275184D02*
X106378D01*
X115854Y264862D02*
X127164D01*
X108608Y272108D02*
Y272954D01*
X252628Y251103D02*
X254811Y253286D01*
Y262569D01*
X252628Y239522D02*
Y251103D01*
X254811Y262569D02*
X260350Y268108D01*
X253506Y261264D02*
X260350Y268108D01*
X230886Y261264D02*
X253506D01*
X224288Y264862D02*
X227886Y261264D01*
X211164Y264862D02*
X224288D01*
X227886Y261264D02*
X230886D01*
X251460Y325998D02*
Y349910D01*
X249580Y351790D02*
X251460Y349910D01*
Y325998D02*
X260350Y317108D01*
X236116Y282494D02*
Y287934D01*
X248620Y300438D02*
Y305878D01*
X230886Y280264D02*
X233886D01*
X236116Y282494D01*
Y287934D02*
X248620Y300438D01*
Y305878D02*
X259850Y317108D01*
X260350D01*
X222474Y272862D02*
X225656Y276044D01*
Y278034D02*
X227886Y280264D01*
X230886D01*
X211164Y272862D02*
X222474D01*
X225656Y276044D02*
Y278034D01*
X197164Y339612D02*
X229662Y372110D01*
X189164Y334862D02*
X190644Y336342D01*
X260960Y426188D02*
Y444500D01*
X259714Y424942D02*
X260960Y426188D01*
X205270Y427888D02*
X207520D01*
X35560Y316484D02*
X50674Y301370D01*
X94664Y288862D02*
X127164D01*
X93085Y296862D02*
X127164D01*
X35560Y341884D02*
X49190Y328254D01*
X42840Y380697D02*
X57235Y366302D01*
X29210Y385572D02*
X53578Y361204D01*
X42840Y380697D02*
Y399202D01*
X116208Y330336D02*
X120735Y334862D01*
X42840Y399202D02*
X54610Y410972D01*
X145268Y345632D02*
X147684Y343217D01*
Y336342D02*
X149164Y334862D01*
X147684Y336342D02*
Y343217D01*
X120735Y334862D02*
X141164D01*
X295830Y503794D02*
Y505794D01*
X295148Y506476D02*
X295830Y505794D01*
X285306Y470726D02*
Y471060D01*
X289560Y475314D02*
Y476250D01*
X285306Y471060D02*
X289560Y475314D01*
X219710Y468630D02*
X283210D01*
X285306Y470726D01*
X178270Y446888D02*
X180520D01*
X178270Y437388D02*
Y446888D01*
X239680Y519746D02*
X334678D01*
X345948Y506476D02*
Y508476D01*
X334678Y519746D02*
X345948Y508476D01*
X49735Y481670D02*
X96180D01*
X42840Y474775D02*
X49735Y481670D01*
X42840Y471388D02*
Y474775D01*
X41352Y469900D02*
X42840Y471388D01*
X29210Y469900D02*
X41352D01*
X66380Y507070D02*
X87290D01*
X54610Y495300D02*
X66380Y507070D01*
X432410Y218256D02*
Y232156D01*
X420116Y205962D02*
X432410Y218256D01*
X420116Y203962D02*
Y205962D01*
X435126Y237386D02*
X450240Y252500D01*
X434640Y237386D02*
X435126D01*
X432410Y235156D02*
X434640Y237386D01*
X432410Y232156D02*
Y235156D01*
X397291Y206537D02*
Y213037D01*
X394716Y203962D02*
X397291Y206537D01*
X413410Y229156D02*
Y232156D01*
X397291Y213037D02*
X413410Y229156D01*
Y232156D02*
Y235156D01*
X416026Y237386D02*
X432410Y253770D01*
X415640Y237386D02*
X416026D01*
X413410Y235156D02*
X415640Y237386D01*
X432410Y253770D02*
Y255270D01*
X427166Y262014D02*
Y274520D01*
Y262014D02*
X432410Y256770D01*
X415936Y285750D02*
X427166Y274520D01*
X432410Y255270D02*
Y256770D01*
X664590Y186061D02*
X668934Y181717D01*
X664590Y186061D02*
Y197920D01*
X656820Y205690D02*
X664590Y197920D01*
X655320Y205690D02*
X656820D01*
X668934Y170624D02*
Y181717D01*
X655320Y205690D02*
X655574Y205944D01*
Y221894D01*
X681724Y243378D02*
Y267568D01*
X679494Y241148D02*
X681724Y243378D01*
X678434Y241148D02*
X679494D01*
X678307Y241021D02*
X678434Y241148D01*
X655701Y241021D02*
X678307D01*
X655574Y240894D02*
X655701Y241021D01*
X652574Y240894D02*
X655574D01*
X636270Y248920D02*
X644548D01*
X652574Y240894D01*
X616724Y267568D02*
X681724D01*
X599566Y385064D02*
X599694Y384936D01*
Y365252D02*
Y384936D01*
X669694Y416560D02*
X670306D01*
X653438Y432816D02*
X669694Y416560D01*
X643128Y432816D02*
X653438D01*
X645618Y467360D02*
X670306D01*
X642874Y470104D02*
X645618Y467360D01*
X612800Y229870D02*
Y232870D01*
Y216478D02*
Y229870D01*
Y216478D02*
X623316Y205962D01*
Y203962D02*
Y205962D01*
Y203962D02*
X630046Y197232D01*
X336296Y20352D02*
X350298Y6350D01*
X336296Y20352D02*
Y22352D01*
X197164Y334862D02*
Y339612D01*
X615490Y452018D02*
X618490D01*
X331470Y142716D02*
Y175260D01*
X318516Y129762D02*
X331470Y142716D01*
X318516Y127762D02*
Y129762D01*
X320120Y205566D02*
Y215980D01*
X318516Y203962D02*
X320120Y205566D01*
X343916Y230886D02*
X364776Y251746D01*
X343916Y203962D02*
Y230886D01*
X678434Y170624D02*
Y186842D01*
X678180Y160020D02*
X678307Y160147D01*
Y170497D02*
X678434Y170624D01*
X678307Y160147D02*
Y170497D01*
X632714Y451104D02*
X642874D01*
X632460Y450850D02*
X632714Y451104D01*
X293116Y127762D02*
Y129762D01*
X304386Y141032D01*
Y175260D01*
X293116Y217772D02*
X297866Y222523D01*
X293116Y203962D02*
Y217772D01*
X334010Y186690D02*
X343916Y176784D01*
Y127762D02*
Y176784D01*
X289020Y105410D02*
X351790D01*
X287782Y97028D02*
X369468D01*
X351790Y105410D02*
X369316Y122936D01*
Y127762D01*
X613260Y468480D02*
Y468788D01*
X615490Y471018D01*
X621490D01*
X637540Y492407D02*
Y506476D01*
X623720Y478587D02*
X637540Y492407D01*
X623720Y473248D02*
Y478587D01*
X621490Y471018D02*
X623720Y473248D01*
X612140Y488084D02*
Y506476D01*
D12*
X165164Y355587D02*
G03*
X165442Y355942I-8732J7125D01*
G01*
D13*
X645160Y181610D02*
X650110Y186560D01*
X655038D01*
X655066Y186588D01*
X203560Y80760D02*
Y84500D01*
X210820Y91760D01*
Y102260D01*
X162000Y155250D02*
X183907D01*
X138684Y109208D02*
Y131934D01*
X162000Y155250D01*
X196200Y207369D02*
X198500Y209669D01*
X197750Y179750D02*
Y200021D01*
X196200Y201570D02*
X197750Y200021D01*
X198500Y209669D02*
Y222710D01*
X196200Y201570D02*
Y207369D01*
X186250Y168250D02*
X197750Y179750D01*
X183907Y155250D02*
X186250Y157593D01*
Y168250D01*
X186690Y233020D02*
X188190D01*
X198500Y222710D01*
X189164Y235494D02*
Y250862D01*
X186690Y233020D02*
X189164Y235494D01*
X81137Y256184D02*
X103378D01*
X76071Y261250D02*
X81137Y256184D01*
X49610Y212410D02*
X60010D01*
D15*
X164084Y171208D02*
D03*
D16*
X189484Y109208D02*
D03*
X176784D02*
D03*
X164084D02*
D03*
X151384D02*
D03*
X138684D02*
D03*
D17*
X210820Y121260D02*
D03*
Y102260D02*
D03*
X232410Y175412D02*
D03*
Y194412D02*
D03*
X233680Y103530D02*
D03*
Y122530D02*
D03*
X655066Y205588D02*
D03*
Y186588D02*
D03*
X223774Y444602D02*
D03*
Y425602D02*
D03*
X307340Y43230D02*
D03*
Y62230D02*
D03*
X642874Y470104D02*
D03*
Y451104D02*
D03*
X26924Y430936D02*
D03*
Y449936D02*
D03*
X186690Y233020D02*
D03*
Y214020D02*
D03*
X230886Y298348D02*
D03*
Y317348D02*
D03*
X210058Y232512D02*
D03*
Y213512D02*
D03*
X360934Y45110D02*
D03*
Y64110D02*
D03*
X452628Y53746D02*
D03*
Y72746D02*
D03*
X209804Y175412D02*
D03*
Y194412D02*
D03*
X117602Y104038D02*
D03*
Y123038D02*
D03*
X232410Y213766D02*
D03*
Y232766D02*
D03*
D18*
X25400Y69600D02*
D03*
Y101600D02*
D03*
D19*
X256032Y158598D02*
D03*
Y139598D02*
D03*
X36830Y272440D02*
D03*
Y291440D02*
D03*
X270764Y64364D02*
D03*
Y45364D02*
D03*
X678434Y222148D02*
D03*
Y241148D02*
D03*
Y186842D02*
D03*
Y205842D02*
D03*
X103378Y256184D02*
D03*
Y275184D02*
D03*
X655574Y240894D02*
D03*
Y221894D02*
D03*
X335280Y44348D02*
D03*
Y63348D02*
D03*
Y82296D02*
D03*
Y63296D02*
D03*
X643128Y432816D02*
D03*
Y413816D02*
D03*
X591820Y451764D02*
D03*
Y470764D02*
D03*
X618490Y471018D02*
D03*
Y452018D02*
D03*
X230886Y261264D02*
D03*
Y280264D02*
D03*
X183388Y390550D02*
D03*
Y409550D02*
D03*
D20*
X268884Y83312D02*
D03*
X287884D02*
D03*
X33630Y252730D02*
D03*
X14630D02*
D03*
X432410Y232156D02*
D03*
X413410D02*
D03*
X241960Y444500D02*
D03*
X260960D02*
D03*
X388468Y97028D02*
D03*
X369468D02*
D03*
X112370Y168402D02*
D03*
X93370D02*
D03*
Y190246D02*
D03*
X112370D02*
D03*
Y212090D02*
D03*
X93370D02*
D03*
X111354Y340106D02*
D03*
X92354D02*
D03*
X131216Y207264D02*
D03*
X150216D02*
D03*
X286000Y411250D02*
D03*
X305000D02*
D03*
X306000Y434500D02*
D03*
X287000D02*
D03*
X631800Y229870D02*
D03*
X612800D02*
D03*
X599694Y365252D02*
D03*
X580694D02*
D03*
D21*
X415936Y285750D02*
D03*
X464936D02*
D03*
D22*
X260350Y317108D02*
D03*
Y268108D02*
D03*
D23*
X205956Y157836D02*
D03*
Y148336D02*
D03*
Y138836D02*
D03*
X232956Y157836D02*
D03*
Y138836D02*
D03*
X178270Y446888D02*
D03*
Y437388D02*
D03*
Y427888D02*
D03*
X205270Y446888D02*
D03*
Y427888D02*
D03*
D24*
X57302Y247612D02*
D03*
X66802D02*
D03*
X76302D02*
D03*
X57302Y274612D02*
D03*
X76302D02*
D03*
X678434Y170624D02*
D03*
X668934D02*
D03*
X659434D02*
D03*
X678434Y143624D02*
D03*
X659434D02*
D03*
D25*
X78232Y20648D02*
D03*
Y61648D02*
D03*
X77724Y99388D02*
D03*
Y140388D02*
D03*
D26*
X259714Y424942D02*
D03*
X243714D02*
D03*
X260476Y382524D02*
D03*
X244476D02*
D03*
X260476Y400812D02*
D03*
X244476D02*
D03*
X599566Y385064D02*
D03*
X583566D02*
D03*
D27*
X22860Y187410D02*
D03*
Y211410D02*
D03*
X248560Y80760D02*
D03*
D28*
X47360Y167410D02*
D03*
Y231410D02*
D03*
D29*
X49610Y212410D02*
D03*
Y205910D02*
D03*
Y199410D02*
D03*
Y192910D02*
D03*
Y186410D02*
D03*
D30*
X211164Y264862D02*
D03*
Y272862D02*
D03*
Y280862D02*
D03*
Y288862D02*
D03*
Y296862D02*
D03*
Y304862D02*
D03*
Y312862D02*
D03*
Y320862D02*
D03*
X127164D02*
D03*
Y312862D02*
D03*
Y304862D02*
D03*
Y296862D02*
D03*
Y288862D02*
D03*
Y280862D02*
D03*
Y272862D02*
D03*
Y264862D02*
D03*
D31*
X197164Y334862D02*
D03*
X189164D02*
D03*
X181164D02*
D03*
X173164D02*
D03*
X165164D02*
D03*
X157164D02*
D03*
X149164D02*
D03*
X141164D02*
D03*
Y250862D02*
D03*
X149164D02*
D03*
X157164D02*
D03*
X165164D02*
D03*
X173164D02*
D03*
X181164D02*
D03*
X189164D02*
D03*
X197164D02*
D03*
D32*
X16510Y295402D02*
D03*
Y271018D02*
D03*
D33*
X611886Y248920D02*
D03*
X636270D02*
D03*
D34*
X74676Y180714D02*
D03*
Y195714D02*
D03*
Y225432D02*
D03*
Y210432D02*
D03*
D35*
X271628Y239522D02*
D03*
X252628D02*
D03*
X93726Y234442D02*
D03*
X112726D02*
D03*
X57302Y292100D02*
D03*
X76302D02*
D03*
X658774Y125476D02*
D03*
X677774D02*
D03*
X445922Y97282D02*
D03*
X464922D02*
D03*
X424536Y97028D02*
D03*
X405536D02*
D03*
X244500Y480060D02*
D03*
X263500D02*
D03*
X389534Y48768D02*
D03*
X408534D02*
D03*
X472490Y50800D02*
D03*
X491490D02*
D03*
X469240Y254000D02*
D03*
X450240D02*
D03*
X413410Y255270D02*
D03*
X432410D02*
D03*
X432410Y71374D02*
D03*
X413410D02*
D03*
X469494Y232156D02*
D03*
X450494D02*
D03*
X491592Y72644D02*
D03*
X472592D02*
D03*
X25044Y518668D02*
D03*
X44044D02*
D03*
X268580Y351790D02*
D03*
X249580D02*
D03*
X131826Y229616D02*
D03*
X150826D02*
D03*
X581050Y341630D02*
D03*
X600050D02*
D03*
D64*
X681724Y267568D02*
D03*
D65*
X203560Y80760D02*
D03*
Y15760D02*
D03*
X248560D02*
D03*
X681724Y312568D02*
D03*
X616724D02*
D03*
Y267568D02*
D03*
D70*
X106172Y514858D02*
D03*
X673354Y508000D02*
D03*
X673862Y20066D02*
D03*
X223266Y50546D02*
D03*
D71*
X189484Y112947D02*
X200577D01*
X200660Y113030D01*
X209320Y121260D02*
X210820D01*
X201090Y113030D02*
X209320Y121260D01*
X189484Y109208D02*
Y112947D01*
X200660Y113030D02*
X201090D01*
X163957Y109335D02*
X164084Y109208D01*
X163957Y109335D02*
Y128143D01*
X163830Y128270D02*
X163957Y128143D01*
X270764Y45364D02*
X271264Y45864D01*
X276496D01*
X289560Y58928D02*
Y63500D01*
X276496Y45864D02*
X289560Y58928D01*
X287000Y434500D02*
Y437500D01*
X297765Y448265D01*
X308485D02*
X310750Y446000D01*
X297765Y448265D02*
X308485D01*
X311571Y446000D02*
X314953Y442618D01*
Y428401D02*
Y442618D01*
X310750Y446000D02*
X311571D01*
X286650Y410800D02*
X292750Y416900D01*
Y416071D02*
Y416900D01*
X299429Y422750D02*
X311321D01*
X292750Y416071D02*
X299429Y422750D01*
X311321D02*
X314500Y425929D01*
Y427948D01*
X314953Y428401D01*
X469494Y232156D02*
X470916Y230734D01*
Y200568D02*
Y230734D01*
X467262Y142762D02*
X501030Y176530D01*
X465531Y142762D02*
X467262D01*
X449429Y131675D02*
X454445D01*
X465531Y142762D01*
X445516Y127762D02*
X449429Y131675D01*
X214250Y434250D02*
X215270Y433230D01*
Y432606D02*
Y433230D01*
Y432606D02*
X222274Y425602D01*
X223774D01*
X211414Y289112D02*
X221650D01*
X227886Y296848D02*
X229386Y298348D01*
X230886D01*
X221650Y289112D02*
X227886Y295348D01*
Y296848D01*
X201000Y280750D02*
X211052D01*
X211164Y280862D01*
Y288862D02*
X211414Y289112D01*
X191850Y272836D02*
Y283267D01*
X197445Y288862D02*
X211164D01*
X191850Y283267D02*
X197445Y288862D01*
X191850Y272836D02*
X197164Y267523D01*
X165132Y255362D02*
Y264128D01*
X152326Y232616D02*
X157164Y237454D01*
Y250862D01*
X152326Y231116D02*
Y232616D01*
X150521Y229311D02*
X152326Y231116D01*
X207058Y208328D02*
Y212012D01*
X203200Y204470D02*
X207058Y208328D01*
Y212012D02*
X208558Y213512D01*
X150440Y188040D02*
X184230D01*
X189230Y193040D01*
X131216Y207264D02*
X150440Y188040D01*
X150216Y207264D02*
X150521Y207569D01*
Y229311D01*
X131826Y228116D02*
X138367Y221575D01*
X131826Y228116D02*
Y229616D01*
X138367Y217883D02*
Y221575D01*
Y217883D02*
X138750Y217500D01*
X197164Y250862D02*
Y267523D01*
Y246112D02*
Y250862D01*
X131826Y229616D02*
Y231116D01*
X57302Y272362D02*
X68414Y261250D01*
X76071D01*
X57302Y272362D02*
Y274612D01*
X445516Y97688D02*
Y127762D01*
X26924Y449936D02*
X27360Y449500D01*
X66000D01*
X82534Y287370D02*
X84154Y285750D01*
X76302Y290600D02*
Y292100D01*
Y290600D02*
X79532Y287370D01*
X82534D01*
X84154Y285750D02*
X85090D01*
X447264Y223410D02*
Y228926D01*
X450494Y232156D01*
X469240Y254000D02*
X478790D01*
X402590Y255270D02*
X413410D01*
X112726Y243294D02*
X115570Y246138D01*
X112726Y234442D02*
Y243294D01*
X115570Y246138D02*
Y246380D01*
X165100Y264160D02*
X165132Y264128D01*
X186690Y207010D02*
Y214020D01*
X181610Y201930D02*
X186690Y207010D01*
X208558Y213512D02*
X210058D01*
X244174Y195580D02*
X245110D01*
X232410Y194412D02*
X243006D01*
X244174Y195580D01*
X264822Y231216D02*
X271628Y238022D01*
Y239522D01*
X264822Y225452D02*
Y231216D01*
X264160Y224790D02*
X264822Y225452D01*
X232410Y232766D02*
Y245110D01*
X231140Y317602D02*
Y328930D01*
X230886Y317348D02*
X231140Y317602D01*
X268580Y351790D02*
X278130D01*
X269748Y500834D02*
Y506476D01*
X263500Y494586D02*
X269748Y500834D01*
X263500Y480060D02*
Y494586D01*
X178270Y427888D02*
X189332D01*
X196850Y420370D01*
X44552Y518160D02*
X57150D01*
X44044Y518668D02*
X44552Y518160D01*
X655066Y205588D02*
X658296Y208818D01*
X647700Y172720D02*
X648636D01*
X650732Y170624D01*
X659434D01*
X475822Y75874D02*
Y82456D01*
X472592Y72644D02*
X475822Y75874D01*
X462280Y110824D02*
Y111760D01*
X464922Y97282D02*
Y108182D01*
X462280Y110824D02*
X464922Y108182D01*
X402686Y76104D02*
X410180D01*
X402590Y76200D02*
X402686Y76104D01*
X413410Y71374D02*
Y72874D01*
X410180Y76104D02*
X413410Y72874D01*
X405536Y97028D02*
Y106608D01*
X360934Y64110D02*
X361594Y64770D01*
X372110D01*
X307340Y62230D02*
Y77470D01*
X195783Y138633D02*
X205753D01*
X233680Y122530D02*
Y130810D01*
X76302Y247612D02*
X77534Y246380D01*
X83820D01*
X74990Y225746D02*
X83506D01*
X74676Y225432D02*
X74990Y225746D01*
X83506D02*
X83820Y226060D01*
X75124Y181162D02*
X83372D01*
X74676Y180714D02*
X75124Y181162D01*
X83372D02*
X83820Y181610D01*
X28274Y496236D02*
Y515438D01*
Y496236D02*
X29210Y495300D01*
X25044Y518668D02*
X28274Y515438D01*
X233680Y444500D02*
X241960D01*
X223876D02*
X233680D01*
X223774Y444602D02*
X223876Y444500D01*
X205270Y446888D02*
X221488D01*
X223774Y444602D01*
X183388Y409550D02*
X185420Y411582D01*
Y419100D01*
X16510Y285750D02*
Y295402D01*
X21107Y291440D02*
X36830D01*
X17145Y295402D02*
X21107Y291440D01*
X16510Y295402D02*
X17145D01*
X57302Y283356D02*
Y292100D01*
Y274612D02*
Y283356D01*
X50800Y283210D02*
X50946Y283356D01*
X57302D01*
Y292100D02*
X57302Y292100D01*
X472440Y50750D02*
X472490Y50800D01*
X472440Y40640D02*
Y50750D01*
X450850Y44450D02*
Y51968D01*
X452628Y53746D01*
X219710Y203200D02*
X220344D01*
X230910Y213766D01*
X214786Y197894D02*
Y198276D01*
X230910Y213766D02*
X232410D01*
X214786Y198276D02*
X219710Y203200D01*
X209804Y194412D02*
X211304D01*
X214786Y197894D01*
X229180Y216996D02*
X232410Y213766D01*
X211558Y232512D02*
X227074Y216996D01*
X229180D01*
X210058Y232512D02*
X211558D01*
X208558D02*
X210058D01*
X197164Y246112D02*
X205328Y237948D01*
Y235742D02*
Y237948D01*
Y235742D02*
X208558Y232512D01*
X62230Y220980D02*
Y232410D01*
Y214630D02*
Y220980D01*
X60010Y212410D02*
X62230Y214630D01*
X241843Y503971D02*
X244348Y506476D01*
Y480212D02*
X244500Y480060D01*
X235886D02*
X244500D01*
X233346Y482600D02*
X235886Y480060D01*
X232410Y482600D02*
Y482600D01*
X244348Y480212D02*
Y506476D01*
X232410Y482600D02*
X233346D01*
X445516Y97688D02*
X445922Y97282D01*
D72*
X149606Y131356D02*
X164758Y146508D01*
X149606Y127762D02*
Y131356D01*
X658774Y125476D02*
Y126976D01*
Y123976D02*
Y125476D01*
X637000Y67500D02*
Y102202D01*
Y56500D02*
Y67500D01*
Y102202D02*
X658774Y123976D01*
X659274Y127476D02*
X660226D01*
X675374Y142624D02*
X677434D01*
X678434Y145874D02*
X697230Y164670D01*
X658774Y126976D02*
X659274Y127476D01*
X660226D02*
X675374Y142624D01*
X677434D02*
X678434Y143624D01*
X164758Y146508D02*
X186479D01*
X194584Y154613D02*
Y162699D01*
X186479Y146508D02*
X194584Y154613D01*
X206797Y174912D02*
X209304D01*
X194584Y162699D02*
X206797Y174912D01*
X209304D02*
X209804Y175412D01*
X232410D01*
X232956Y157836D02*
Y174866D01*
X232410Y175412D02*
X232956Y174866D01*
X697230Y205740D02*
Y222250D01*
Y164670D02*
Y205740D01*
X697128Y205842D02*
X697230Y205740D01*
X678434Y205842D02*
X697128D01*
X697230Y222250D02*
Y284480D01*
X678434Y222148D02*
X697128D01*
X697230Y222250D01*
X581050Y293370D02*
Y341630D01*
Y280391D02*
Y293370D01*
X688340D02*
X697230Y284480D01*
X581050Y293370D02*
X688340D01*
X580694Y341986D02*
Y365252D01*
Y341986D02*
X581050Y341630D01*
Y280391D02*
X611886Y249555D01*
Y248920D02*
Y249555D01*
Y248285D02*
Y248920D01*
X617909Y246761D02*
X631800Y232870D01*
X613410Y246761D02*
X617909D01*
X611886Y248285D02*
X613410Y246761D01*
X631800Y229870D02*
Y232870D01*
D73*
X501030Y176530D02*
X584200D01*
X462280Y153670D02*
Y191932D01*
X470916Y200568D01*
D74*
X157988Y506476D02*
D03*
D75*
X27178Y136906D02*
D03*
Y30734D02*
D03*
D76*
X193548Y506476D02*
D03*
X218948D02*
D03*
X244348D02*
D03*
X269748D02*
D03*
X295148D02*
D03*
X345948D02*
D03*
X371348D02*
D03*
X396748D02*
D03*
X320548D02*
D03*
X535940D02*
D03*
X612140D02*
D03*
X586740D02*
D03*
X561340D02*
D03*
X510540D02*
D03*
X485140D02*
D03*
X459740D02*
D03*
X387096Y22352D02*
D03*
X310896D02*
D03*
X336296D02*
D03*
X361696D02*
D03*
X412496D02*
D03*
X437896D02*
D03*
X463296D02*
D03*
X615188Y22606D02*
D03*
X538988D02*
D03*
X564388D02*
D03*
X589788D02*
D03*
X640588D02*
D03*
X177038Y81788D02*
D03*
X151638D02*
D03*
X318516Y127762D02*
D03*
X293116D02*
D03*
X343916D02*
D03*
X369316D02*
D03*
X394716D02*
D03*
X420116D02*
D03*
X445516D02*
D03*
X470916D02*
D03*
X496316D02*
D03*
X521716D02*
D03*
X547116D02*
D03*
X572516D02*
D03*
X597916D02*
D03*
X623316D02*
D03*
X293116Y203962D02*
D03*
X318516D02*
D03*
X343916D02*
D03*
X369316D02*
D03*
X394716D02*
D03*
X420116D02*
D03*
X445516D02*
D03*
X470916D02*
D03*
X496316D02*
D03*
X521716D02*
D03*
X547116D02*
D03*
X572516D02*
D03*
X597916D02*
D03*
D77*
X422148Y506476D02*
D03*
X637540D02*
D03*
X285496Y22352D02*
D03*
X513588Y22606D02*
D03*
X126238Y81788D02*
D03*
X623316Y203962D02*
D03*
D78*
X152400Y25400D02*
D03*
X685800Y76200D02*
D03*
Y361950D02*
D03*
D79*
X29210Y469900D02*
D03*
Y385572D02*
D03*
X60960Y341884D02*
D03*
D80*
X54610Y469900D02*
D03*
X80010D02*
D03*
X29210Y495300D02*
D03*
X54610D02*
D03*
X80010D02*
D03*
X54610Y385572D02*
D03*
X80010D02*
D03*
X29210Y410972D02*
D03*
X54610D02*
D03*
X80010D02*
D03*
X35560Y341884D02*
D03*
X60960Y316484D02*
D03*
X35560D02*
D03*
D81*
X154432Y362712D02*
D03*
Y388112D02*
D03*
Y413512D02*
D03*
X670306Y416560D02*
D03*
Y441960D02*
D03*
D82*
X154432Y438912D02*
D03*
X670306Y467360D02*
D03*
D83*
X22860Y166410D02*
D03*
Y232410D02*
D03*
D84*
X200660Y113030D02*
D03*
X149606Y127762D02*
D03*
X163830Y128270D02*
D03*
X314953Y428401D02*
D03*
X329000Y433750D02*
D03*
X328750Y424500D02*
D03*
X131500Y169250D02*
D03*
X98000Y142250D02*
D03*
X107250Y142500D02*
D03*
X116750D02*
D03*
X124750D02*
D03*
X141500Y161000D02*
D03*
Y169250D02*
D03*
X141750Y177500D02*
D03*
X414500Y471750D02*
D03*
X414250Y480750D02*
D03*
X405500Y480500D02*
D03*
X414500Y386750D02*
D03*
X405000D02*
D03*
X414500Y396000D02*
D03*
X330200Y264160D02*
D03*
X304250Y230000D02*
D03*
X331000Y64000D02*
D03*
X580000Y382750D02*
D03*
Y392000D02*
D03*
X637000Y56500D02*
D03*
Y67500D02*
D03*
X414500Y57750D02*
D03*
X407000D02*
D03*
X323000Y64000D02*
D03*
X119750Y409500D02*
D03*
X127250Y414250D02*
D03*
X127000Y405130D02*
D03*
X214250Y434250D02*
D03*
X201000Y280750D02*
D03*
X160000Y196500D02*
D03*
X573500Y428250D02*
D03*
X566500Y421500D02*
D03*
X588500Y435000D02*
D03*
X578500Y413500D02*
D03*
X66000Y449500D02*
D03*
X85090Y285750D02*
D03*
X405130Y396240D02*
D03*
X405000Y471500D02*
D03*
X580390Y401320D02*
D03*
X445770Y220980D02*
D03*
X478790Y254000D02*
D03*
X402590Y255270D02*
D03*
X115570Y246380D02*
D03*
X138750Y217500D02*
D03*
X165100Y264160D02*
D03*
X181610Y201930D02*
D03*
X203200Y204470D02*
D03*
X245110Y195580D02*
D03*
X264160Y224790D02*
D03*
X232410Y245110D02*
D03*
X231140Y328930D02*
D03*
X278130Y351790D02*
D03*
X196850Y420370D02*
D03*
X57150Y518160D02*
D03*
X645160Y181610D02*
D03*
X647700Y172720D02*
D03*
X693420Y125730D02*
D03*
X477520Y85090D02*
D03*
X462280Y111760D02*
D03*
X422910Y57150D02*
D03*
X402590Y76200D02*
D03*
X403860Y109220D02*
D03*
X372110Y64770D02*
D03*
X307340Y77470D02*
D03*
X195580Y138430D02*
D03*
X233680Y130810D02*
D03*
X83820Y246380D02*
D03*
Y226060D02*
D03*
Y181610D02*
D03*
X233680Y444500D02*
D03*
X185420Y419100D02*
D03*
X16510Y285750D02*
D03*
X50800Y283210D02*
D03*
X289560Y63500D02*
D03*
X472440Y40640D02*
D03*
X450850Y44450D02*
D03*
X107950Y358140D02*
D03*
X108573Y312862D02*
D03*
X111760Y269240D02*
D03*
X116840Y358140D02*
D03*
X256540Y177800D02*
D03*
X488950Y88900D02*
D03*
X462280Y153670D02*
D03*
X219710Y203200D02*
D03*
X189230Y193040D02*
D03*
X90170Y115570D02*
D03*
Y105410D02*
D03*
X62230Y220980D02*
D03*
Y232410D02*
D03*
X167640Y199390D02*
D03*
X118110Y194310D02*
D03*
X119380Y212090D02*
D03*
X289560Y476250D02*
D03*
X584200Y176530D02*
D03*
X232410Y482600D02*
D03*
X224790Y408940D02*
D03*
X331470Y175260D02*
D03*
X678180Y160020D02*
D03*
X632460Y450850D02*
D03*
X304386Y175260D02*
D03*
M02*
