G04*
G04 #@! TF.GenerationSoftware,Altium Limited,Altium Designer,21.3.1 (25)*
G04*
G04 Layer_Physical_Order=2*
G04 Layer_Color=16711680*
%FSLAX44Y44*%
%MOMM*%
G71*
G04*
G04 #@! TF.SameCoordinates,472AA62F-3F09-4C21-BF2B-41C26AEB2B16*
G04*
G04*
G04 #@! TF.FilePolarity,Positive*
G04*
G01*
G75*
%ADD10C,0.2000*%
%ADD11C,0.5000*%
%ADD27R,1.9000X1.9000*%
%ADD64R,1.9000X1.9000*%
%ADD65C,1.9000*%
%ADD71C,0.6000*%
%ADD73C,1.0000*%
%ADD74C,3.2000*%
%ADD75C,4.0000*%
%ADD76O,1.6000X2.0000*%
%ADD77R,1.6000X2.0000*%
%ADD78C,7.4000*%
%ADD79R,1.7000X1.7000*%
%ADD80C,1.7000*%
%ADD81O,2.0000X1.6000*%
%ADD82R,2.0000X1.6000*%
G04:AMPARAMS|DCode=83|XSize=2mm|YSize=1.2mm|CornerRadius=0.36mm|HoleSize=0mm|Usage=FLASHONLY|Rotation=0.000|XOffset=0mm|YOffset=0mm|HoleType=Round|Shape=RoundedRectangle|*
%AMROUNDEDRECTD83*
21,1,2.0000,0.4800,0,0,0.0*
21,1,1.2800,1.2000,0,0,0.0*
1,1,0.7200,0.6400,-0.2400*
1,1,0.7200,-0.6400,-0.2400*
1,1,0.7200,-0.6400,0.2400*
1,1,0.7200,0.6400,0.2400*
%
%ADD83ROUNDEDRECTD83*%
%ADD84C,0.6000*%
G36*
X709500Y528750D02*
Y468000D01*
X683306D01*
Y478360D01*
X657306D01*
Y468000D01*
X612160D01*
X611161Y468668D01*
X610902Y468719D01*
X609600Y468978D01*
X609600Y468978D01*
X272272D01*
X261888Y479362D01*
Y513080D01*
X261578Y514641D01*
X260694Y515964D01*
X260694Y515964D01*
X260250Y516408D01*
Y530750D01*
X707500D01*
X709500Y528750D01*
D02*
G37*
G36*
X111000Y446337D02*
X109827Y445851D01*
X90540Y465138D01*
X90726Y465461D01*
X91510Y468386D01*
Y471414D01*
X90726Y474339D01*
X89212Y476961D01*
X87071Y479102D01*
X84449Y480616D01*
X81524Y481400D01*
X78496D01*
X75571Y480616D01*
X72949Y479102D01*
X70808Y476961D01*
X69294Y474339D01*
X68510Y471414D01*
Y468386D01*
X69294Y465461D01*
X70808Y462839D01*
X72949Y460698D01*
X75571Y459184D01*
X78496Y458400D01*
X81524D01*
X84449Y459184D01*
X84772Y459370D01*
X108114Y436028D01*
X108114Y436028D01*
X109437Y435144D01*
X110998Y434834D01*
X111000Y433637D01*
Y393500D01*
X113000Y391500D01*
X137750D01*
Y370000D01*
X139000Y368750D01*
X141655D01*
X142501Y367480D01*
X141715Y365584D01*
X141337Y362712D01*
X141715Y359840D01*
X142823Y357164D01*
X144587Y354867D01*
X146884Y353103D01*
X149560Y351995D01*
X152432Y351617D01*
X156432D01*
X159304Y351995D01*
X161980Y353103D01*
X164277Y354867D01*
X166040Y357164D01*
X167149Y359840D01*
X167527Y362712D01*
X167149Y365584D01*
X166363Y367480D01*
X167209Y368750D01*
X195250D01*
Y370424D01*
X195663Y370837D01*
X196326Y371829D01*
X196559Y373000D01*
X196559Y373000D01*
Y415263D01*
X196559Y415264D01*
X196559Y415264D01*
X196435Y415883D01*
X196326Y416434D01*
X196326Y416434D01*
X196326Y416434D01*
X196001Y416920D01*
X195663Y417426D01*
X195663Y417426D01*
X195662Y417427D01*
X195576Y417484D01*
X195250Y417811D01*
Y422929D01*
X195576Y423256D01*
X195662Y423313D01*
X195663Y423314D01*
X195663Y423314D01*
X196001Y423820D01*
X196326Y424306D01*
X196326Y424306D01*
X196326Y424306D01*
X196435Y424857D01*
X196559Y425476D01*
X196559Y425476D01*
X196559Y425477D01*
Y437559D01*
X196691Y437691D01*
X217250D01*
Y405813D01*
X217250Y404750D01*
X217500Y404500D01*
X217750Y404750D01*
X218520Y404750D01*
X220495D01*
X221391Y403853D01*
X223596Y402940D01*
X225984D01*
X228189Y403853D01*
X229085Y404750D01*
X263754D01*
X263798Y404706D01*
X263798Y404706D01*
X265121Y403822D01*
X266682Y403512D01*
X299404D01*
X300589Y402326D01*
X300589Y402326D01*
X301912Y401442D01*
X303473Y401132D01*
X303473Y401132D01*
X447686D01*
X447687Y401132D01*
X449247Y401442D01*
X450570Y402326D01*
X452994Y404750D01*
X585250D01*
Y327582D01*
X562500Y289653D01*
Y210525D01*
X561799Y208834D01*
X561421Y205962D01*
Y201962D01*
X561799Y199090D01*
X562500Y197398D01*
Y182250D01*
X578892D01*
Y179395D01*
X578200Y177724D01*
Y175336D01*
X579113Y173131D01*
X580801Y171443D01*
X583007Y170530D01*
X585393D01*
X587599Y171443D01*
X589287Y173131D01*
X590200Y175336D01*
Y177724D01*
X590108Y177946D01*
Y182250D01*
X635250D01*
X638750Y185750D01*
X648250D01*
X657500Y176500D01*
X640000Y159000D01*
X587750D01*
Y133963D01*
X587199Y132634D01*
X586821Y129762D01*
Y125762D01*
X587199Y122890D01*
X587750Y121560D01*
Y113500D01*
X589500Y111750D01*
X635750D01*
Y132250D01*
X636000Y132500D01*
X706000D01*
Y6000D01*
X707980Y4020D01*
X707454Y2750D01*
X631000D01*
Y13056D01*
X632203Y13465D01*
X632743Y12761D01*
X635041Y10998D01*
X637716Y9889D01*
X640588Y9511D01*
X643460Y9889D01*
X646135Y10998D01*
X648433Y12761D01*
X650197Y15058D01*
X651305Y17734D01*
X651683Y20606D01*
Y24606D01*
X651305Y27478D01*
X650197Y30154D01*
X648433Y32451D01*
X646135Y34214D01*
X645515Y34471D01*
X645196Y34743D01*
X644576Y35346D01*
X644686Y35902D01*
X644808Y36455D01*
X644803Y36486D01*
X644809Y36516D01*
Y73250D01*
X644576Y74420D01*
X644500Y74534D01*
Y76500D01*
X520534D01*
X520420Y76576D01*
X519250Y76809D01*
X518079Y76576D01*
X517087Y75913D01*
X517087Y75913D01*
X497337Y56163D01*
X497100Y55809D01*
X426995D01*
X425825Y55576D01*
X425337Y55250D01*
X420483D01*
X419995Y55576D01*
X418825Y55809D01*
X418825Y55809D01*
X417985D01*
X417985Y55809D01*
X416815Y55576D01*
X416615Y55443D01*
X416150Y55250D01*
X412850D01*
X412385Y55443D01*
X412185Y55576D01*
X411015Y55809D01*
X411015Y55809D01*
X410485D01*
X410485Y55809D01*
X409315Y55576D01*
X409115Y55443D01*
X408650Y55250D01*
X405350D01*
X404885Y55443D01*
X404685Y55576D01*
X403515Y55809D01*
X403515Y55809D01*
X380017D01*
X374893Y60933D01*
X373900Y61596D01*
X372730Y61829D01*
X372730Y61829D01*
X372671D01*
X369169Y65331D01*
Y65390D01*
X369169Y65390D01*
X368936Y66561D01*
X368273Y67553D01*
X365663Y70163D01*
X364670Y70826D01*
X363500Y71059D01*
X363500Y71059D01*
X312517D01*
X309943Y73633D01*
X308951Y74296D01*
X308331Y74419D01*
X304289Y78461D01*
X304166Y79081D01*
X303503Y80073D01*
X303503Y80073D01*
X259913Y123663D01*
X258920Y124326D01*
X257750Y124559D01*
X257750Y124559D01*
X162470D01*
X162326Y125285D01*
X162000Y125773D01*
Y134250D01*
X156750Y139500D01*
X100750D01*
Y172250D01*
X98250Y174750D01*
X79259D01*
Y237490D01*
X79026Y238661D01*
X78500Y239448D01*
Y240000D01*
X78250Y240250D01*
X77469D01*
X77371Y240316D01*
X76200Y240549D01*
X59809D01*
Y304984D01*
X62474D01*
X65399Y305768D01*
X68021Y307282D01*
X70162Y309423D01*
X71676Y312045D01*
X72460Y314970D01*
Y317998D01*
X71676Y320923D01*
X70162Y323545D01*
X68021Y325686D01*
X65399Y327200D01*
X62474Y327984D01*
X59809D01*
Y330384D01*
X72460D01*
Y353384D01*
X59809D01*
Y373592D01*
X59769Y373789D01*
X59783Y373991D01*
X59654Y374370D01*
X59576Y374762D01*
X60440Y375659D01*
X61671Y376370D01*
X63812Y378511D01*
X65326Y381133D01*
X66110Y384058D01*
Y387086D01*
X65326Y390011D01*
X63812Y392633D01*
X61671Y394774D01*
X60440Y395485D01*
X59576Y396382D01*
X59654Y396774D01*
X59783Y397153D01*
X59769Y397355D01*
X59809Y397552D01*
Y398992D01*
X59769Y399189D01*
X59783Y399391D01*
X59654Y399770D01*
X59576Y400162D01*
X60440Y401059D01*
X61671Y401770D01*
X63812Y403911D01*
X65326Y406533D01*
X66110Y409458D01*
Y412486D01*
X65326Y415411D01*
X63812Y418033D01*
X61671Y420174D01*
X60440Y420885D01*
X59576Y421782D01*
X59654Y422174D01*
X59783Y422553D01*
X59769Y422755D01*
X59809Y422952D01*
Y457920D01*
X59769Y458117D01*
X59783Y458319D01*
X59654Y458698D01*
X59576Y459090D01*
X60440Y459987D01*
X61671Y460698D01*
X63812Y462839D01*
X65326Y465461D01*
X66110Y468386D01*
Y471414D01*
X65326Y474339D01*
X63812Y476961D01*
X61671Y479102D01*
X60440Y479813D01*
X59576Y480710D01*
X59654Y481102D01*
X59783Y481481D01*
X59769Y481683D01*
X59809Y481880D01*
Y483320D01*
X59769Y483517D01*
X59783Y483719D01*
X59654Y484098D01*
X59576Y484490D01*
X60440Y485387D01*
X61671Y486098D01*
X63812Y488239D01*
X65326Y490861D01*
X66110Y493786D01*
Y496814D01*
X65326Y499739D01*
X63812Y502361D01*
X61671Y504502D01*
X59500Y505756D01*
Y509750D01*
X59750Y510000D01*
X9000D01*
Y530250D01*
X111000D01*
Y446337D01*
D02*
G37*
G36*
X250556Y438366D02*
X250556Y438366D01*
X251879Y437482D01*
X253440Y437172D01*
X253440Y437172D01*
X316000D01*
Y417750D01*
X315750Y417500D01*
X220750D01*
Y440750D01*
X193500D01*
Y425477D01*
X193451Y425457D01*
X191763Y423769D01*
X190850Y421563D01*
Y419176D01*
X191763Y416971D01*
X193451Y415283D01*
X193500Y415263D01*
Y373000D01*
X193000Y372500D01*
X161546D01*
X159304Y373429D01*
X156432Y373807D01*
X152432D01*
X149560Y373429D01*
X147318Y372500D01*
X141250D01*
Y383045D01*
X142520Y383297D01*
X142823Y382565D01*
X144587Y380267D01*
X146884Y378503D01*
X149560Y377395D01*
X152432Y377017D01*
X156432D01*
X159304Y377395D01*
X161980Y378503D01*
X164277Y380267D01*
X166040Y382565D01*
X167149Y385240D01*
X167527Y388112D01*
X167149Y390984D01*
X166040Y393660D01*
X164277Y395957D01*
X161980Y397720D01*
X159304Y398829D01*
X156432Y399207D01*
X152432D01*
X149560Y398829D01*
X146884Y397720D01*
X144587Y395957D01*
X142823Y393660D01*
X142520Y392927D01*
X141250Y393179D01*
Y395000D01*
X140750Y395500D01*
X115250D01*
Y429000D01*
X141432D01*
Y427912D01*
X167432D01*
Y429000D01*
X175250D01*
X176500Y430250D01*
Y453122D01*
X235801D01*
X250556Y438366D01*
D02*
G37*
G36*
X48809Y505230D02*
X47549Y504502D01*
X45408Y502361D01*
X43894Y499739D01*
X43110Y496814D01*
Y493786D01*
X43894Y490861D01*
X45408Y488239D01*
X47549Y486098D01*
X50171Y484584D01*
X53096Y483800D01*
X56124D01*
X56750Y483320D01*
Y481880D01*
X56124Y481400D01*
X53096D01*
X50171Y480616D01*
X47549Y479102D01*
X45408Y476961D01*
X43894Y474339D01*
X43110Y471414D01*
Y468386D01*
X43894Y465461D01*
X45408Y462839D01*
X47549Y460698D01*
X50171Y459184D01*
X53096Y458400D01*
X56124D01*
X56750Y457920D01*
Y422952D01*
X56124Y422472D01*
X53096D01*
X50171Y421688D01*
X47549Y420174D01*
X45408Y418033D01*
X43894Y415411D01*
X43110Y412486D01*
Y409458D01*
X43894Y406533D01*
X45408Y403911D01*
X47549Y401770D01*
X50171Y400256D01*
X53096Y399472D01*
X56124D01*
X56750Y398992D01*
Y397552D01*
X56124Y397072D01*
X53096D01*
X50171Y396288D01*
X47549Y394774D01*
X45408Y392633D01*
X43894Y390011D01*
X43110Y387086D01*
Y384058D01*
X43894Y381133D01*
X45408Y378511D01*
X47549Y376370D01*
X50171Y374856D01*
X53096Y374072D01*
X56124D01*
X56750Y373592D01*
Y353384D01*
X49460D01*
Y343398D01*
Y330384D01*
X56750D01*
Y327262D01*
X56521Y327200D01*
X53899Y325686D01*
X51758Y323545D01*
X50244Y320923D01*
X49460Y317998D01*
Y314970D01*
X50244Y312045D01*
X51758Y309423D01*
X53899Y307282D01*
X56521Y305768D01*
X56750Y305706D01*
Y240469D01*
X55979Y240316D01*
X54987Y239653D01*
X54324Y238661D01*
X54091Y237490D01*
Y191770D01*
X54091Y191770D01*
X54324Y190599D01*
X54987Y189607D01*
X54987Y189607D01*
X56750Y187844D01*
Y185750D01*
X66250Y176250D01*
Y142500D01*
X66500D01*
X79491Y129509D01*
Y101600D01*
X79724Y100429D01*
X79750Y100391D01*
Y96000D01*
X97250D01*
X101000Y99750D01*
X100750Y100000D01*
Y136000D01*
X153000D01*
X158330Y130670D01*
X157830Y129464D01*
Y127077D01*
X158743Y124871D01*
X159500Y124115D01*
Y121500D01*
X257750D01*
X301340Y77910D01*
Y76276D01*
X302253Y74071D01*
X303941Y72383D01*
X306147Y71470D01*
X307780D01*
X311250Y68000D01*
X363500D01*
X366110Y65390D01*
Y63576D01*
X367023Y61371D01*
X368711Y59683D01*
X370916Y58770D01*
X372730D01*
X378750Y52750D01*
X403515D01*
X403601Y52663D01*
X405807Y51750D01*
X408194D01*
X410399Y52663D01*
X410485Y52750D01*
X411015D01*
X411101Y52663D01*
X413307Y51750D01*
X415694D01*
X417899Y52663D01*
X417985Y52750D01*
X418825D01*
X419511Y52063D01*
X421716Y51150D01*
X424104D01*
X426309Y52063D01*
X426995Y52750D01*
X499500D01*
Y54000D01*
X519250Y73750D01*
X519750Y73250D01*
X641750D01*
Y36516D01*
X640480Y36020D01*
X638000Y38500D01*
X377500D01*
Y46500D01*
X376297Y47703D01*
X376206Y48161D01*
X375543Y49153D01*
X367923Y56773D01*
X366931Y57436D01*
X366473Y57527D01*
X364500Y59500D01*
X364000Y59000D01*
X282750D01*
X274388Y66488D01*
X268863Y72013D01*
X267871Y72676D01*
X267365Y72776D01*
X261060Y78422D01*
Y93260D01*
X244490D01*
X227750Y108250D01*
X223350D01*
X222250Y108469D01*
X222250Y108469D01*
X206243D01*
X205791Y109739D01*
X206660Y111837D01*
Y114223D01*
X205747Y116429D01*
X204059Y118117D01*
X201854Y119030D01*
X199466D01*
X197261Y118117D01*
X195573Y116429D01*
X194660Y114223D01*
Y111837D01*
X195529Y109739D01*
X195077Y108469D01*
X172720D01*
X172321Y108389D01*
X171915Y108361D01*
X171741Y108274D01*
X171620Y108250D01*
X170500D01*
X162500Y100250D01*
Y71639D01*
X147361D01*
X141000Y78000D01*
X138750D01*
Y95750D01*
X138000Y96500D01*
X115750D01*
X97250Y71500D01*
X10167Y71253D01*
X9000Y72417D01*
Y120761D01*
X10270Y121287D01*
X12516Y119041D01*
X16283Y116524D01*
X20469Y114790D01*
X24913Y113906D01*
X29443D01*
X33887Y114790D01*
X38073Y116524D01*
X41840Y119041D01*
X45043Y122244D01*
X47560Y126011D01*
X49294Y130197D01*
X50178Y134641D01*
Y139171D01*
X49294Y143615D01*
X47560Y147801D01*
X45043Y151568D01*
X41840Y154771D01*
X38073Y157288D01*
X34999Y158561D01*
X34585Y160108D01*
X35025Y160681D01*
X35690Y162287D01*
X35917Y164010D01*
Y168810D01*
X35690Y170533D01*
X35025Y172138D01*
X33967Y173517D01*
X32589Y174575D01*
X30983Y175240D01*
X29260Y175467D01*
X16460D01*
X14737Y175240D01*
X13132Y174575D01*
X11753Y173517D01*
X10695Y172138D01*
X10270Y171113D01*
X9000Y171365D01*
Y227455D01*
X10270Y227707D01*
X10695Y226681D01*
X11753Y225303D01*
X13132Y224245D01*
X14737Y223580D01*
X16460Y223353D01*
X29260D01*
X30983Y223580D01*
X32589Y224245D01*
X33967Y225303D01*
X35025Y226681D01*
X35690Y228287D01*
X35917Y230010D01*
Y234810D01*
X35690Y236533D01*
X35025Y238139D01*
X33967Y239517D01*
X32589Y240575D01*
X30983Y241240D01*
X29260Y241467D01*
X16460D01*
X14737Y241240D01*
X13132Y240575D01*
X11753Y239517D01*
X10695Y238139D01*
X10270Y237113D01*
X9000Y237365D01*
Y506500D01*
X48469D01*
X48809Y505230D01*
D02*
G37*
G36*
X76200Y171450D02*
X96520D01*
Y148131D01*
X94601Y147337D01*
X92914Y145649D01*
X92000Y143443D01*
Y141056D01*
X92914Y138851D01*
X94601Y137163D01*
X96520Y136369D01*
Y101600D01*
X82550D01*
Y134620D01*
X69850Y147320D01*
Y179070D01*
X57150Y191770D01*
Y237490D01*
X76200D01*
Y171450D01*
D02*
G37*
G36*
X134250Y68580D02*
X196850Y68580D01*
X215900Y49530D01*
X255270Y49530D01*
X270510Y34290D01*
Y10160D01*
X274496D01*
Y9352D01*
X296496D01*
Y10160D01*
X306757D01*
X308024Y9635D01*
X310896Y9257D01*
X313768Y9635D01*
X315035Y10160D01*
X332157D01*
X333424Y9635D01*
X336296Y9257D01*
X339168Y9635D01*
X340435Y10160D01*
X357557D01*
X358824Y9635D01*
X361696Y9257D01*
X364568Y9635D01*
X365835Y10160D01*
X377190D01*
Y33020D01*
X397510D01*
Y3810D01*
X255402D01*
X255062Y5080D01*
X256235Y5757D01*
X258563Y8085D01*
X260208Y10935D01*
X261060Y14114D01*
Y17406D01*
X260208Y20585D01*
X258563Y23435D01*
X256235Y25763D01*
X253385Y27408D01*
X250206Y28260D01*
X246914D01*
X243735Y27408D01*
X240885Y25763D01*
X238557Y23435D01*
X236912Y20585D01*
X236060Y17406D01*
Y14114D01*
X236912Y10935D01*
X238557Y8085D01*
X240885Y5757D01*
X242058Y5080D01*
X241718Y3810D01*
X210402D01*
X210062Y5080D01*
X211235Y5757D01*
X213563Y8085D01*
X215208Y10935D01*
X216060Y14114D01*
Y17406D01*
X215208Y20585D01*
X213563Y23435D01*
X211235Y25763D01*
X208385Y27408D01*
X205206Y28260D01*
X201914D01*
X198735Y27408D01*
X195885Y25763D01*
X193670Y23548D01*
X193182Y23609D01*
X192400Y23970D01*
Y28548D01*
X191415Y34767D01*
X189470Y40755D01*
X186611Y46365D01*
X182910Y51458D01*
X178458Y55910D01*
X173365Y59611D01*
X167755Y62470D01*
X161767Y64415D01*
X155548Y65400D01*
X149252D01*
X143033Y64415D01*
X137045Y62470D01*
X131435Y59611D01*
X126342Y55910D01*
X121890Y51458D01*
X118189Y46365D01*
X115330Y40755D01*
X113385Y34767D01*
X112400Y28548D01*
Y22252D01*
X113385Y16033D01*
X115330Y10045D01*
X117860Y5080D01*
X117114Y3810D01*
X9788D01*
X8890Y4708D01*
X8890Y7620D01*
Y66040D01*
X80010D01*
X81280Y67310D01*
X82550Y66040D01*
X99495D01*
X118000Y92000D01*
X134250D01*
Y68580D01*
D02*
G37*
G36*
X236060Y91600D02*
Y68260D01*
X261060D01*
Y69850D01*
X266700D01*
X281940Y54610D01*
X365760D01*
X373380Y46990D01*
Y13219D01*
X365835D01*
X364664Y12986D01*
X363769Y12615D01*
X361696Y12342D01*
X359623Y12615D01*
X358728Y12986D01*
X357557Y13219D01*
X351790D01*
Y34258D01*
X350426Y35622D01*
X274258D01*
X256540Y53340D01*
X217170D01*
X203423Y67087D01*
X203909Y68260D01*
X205206D01*
X208385Y69112D01*
X211235Y70757D01*
X213563Y73085D01*
X215208Y75935D01*
X216060Y79114D01*
Y82406D01*
X215208Y85585D01*
X213563Y88435D01*
X211235Y90763D01*
X208385Y92408D01*
X205206Y93260D01*
X201914D01*
X198735Y92408D01*
X195885Y90763D01*
X193557Y88435D01*
X191912Y85585D01*
X191060Y82406D01*
Y79114D01*
X191912Y75935D01*
X193557Y73085D01*
X193830Y72812D01*
X193344Y71639D01*
X167640Y71639D01*
Y96520D01*
X172720Y105410D01*
X222250D01*
X236060Y91600D01*
D02*
G37*
%LPC*%
G36*
X648540Y519476D02*
X626540D01*
Y493476D01*
X648540D01*
Y519476D01*
D02*
G37*
G36*
X433148D02*
X411148D01*
Y493476D01*
X433148D01*
Y519476D01*
D02*
G37*
G36*
X612140Y519571D02*
X609268Y519193D01*
X606592Y518084D01*
X604295Y516321D01*
X602532Y514024D01*
X601423Y511348D01*
X601045Y508476D01*
Y504476D01*
X601423Y501604D01*
X602532Y498928D01*
X604295Y496631D01*
X606592Y494868D01*
X609268Y493759D01*
X612140Y493381D01*
X615012Y493759D01*
X617687Y494868D01*
X619985Y496631D01*
X621749Y498928D01*
X622857Y501604D01*
X623235Y504476D01*
Y508476D01*
X622857Y511348D01*
X621749Y514024D01*
X619985Y516321D01*
X617687Y518084D01*
X615012Y519193D01*
X612140Y519571D01*
D02*
G37*
G36*
X586740D02*
X583868Y519193D01*
X581193Y518084D01*
X578895Y516321D01*
X577132Y514024D01*
X576023Y511348D01*
X575645Y508476D01*
Y504476D01*
X576023Y501604D01*
X577132Y498928D01*
X578895Y496631D01*
X581193Y494868D01*
X583868Y493759D01*
X586740Y493381D01*
X589612Y493759D01*
X592287Y494868D01*
X594585Y496631D01*
X596348Y498928D01*
X597457Y501604D01*
X597835Y504476D01*
Y508476D01*
X597457Y511348D01*
X596348Y514024D01*
X594585Y516321D01*
X592287Y518084D01*
X589612Y519193D01*
X586740Y519571D01*
D02*
G37*
G36*
X561340D02*
X558468Y519193D01*
X555793Y518084D01*
X553495Y516321D01*
X551731Y514024D01*
X550623Y511348D01*
X550245Y508476D01*
Y504476D01*
X550623Y501604D01*
X551731Y498928D01*
X553495Y496631D01*
X555793Y494868D01*
X558468Y493759D01*
X561340Y493381D01*
X564212Y493759D01*
X566888Y494868D01*
X569185Y496631D01*
X570948Y498928D01*
X572057Y501604D01*
X572435Y504476D01*
Y508476D01*
X572057Y511348D01*
X570948Y514024D01*
X569185Y516321D01*
X566888Y518084D01*
X564212Y519193D01*
X561340Y519571D01*
D02*
G37*
G36*
X535940D02*
X533068Y519193D01*
X530392Y518084D01*
X528095Y516321D01*
X526331Y514024D01*
X525223Y511348D01*
X524845Y508476D01*
Y504476D01*
X525223Y501604D01*
X526331Y498928D01*
X528095Y496631D01*
X530392Y494868D01*
X533068Y493759D01*
X535940Y493381D01*
X538812Y493759D01*
X541488Y494868D01*
X543785Y496631D01*
X545549Y498928D01*
X546657Y501604D01*
X547035Y504476D01*
Y508476D01*
X546657Y511348D01*
X545549Y514024D01*
X543785Y516321D01*
X541488Y518084D01*
X538812Y519193D01*
X535940Y519571D01*
D02*
G37*
G36*
X510540D02*
X507668Y519193D01*
X504992Y518084D01*
X502695Y516321D01*
X500932Y514024D01*
X499823Y511348D01*
X499445Y508476D01*
Y504476D01*
X499823Y501604D01*
X500932Y498928D01*
X502695Y496631D01*
X504992Y494868D01*
X507668Y493759D01*
X510540Y493381D01*
X513412Y493759D01*
X516087Y494868D01*
X518385Y496631D01*
X520149Y498928D01*
X521257Y501604D01*
X521635Y504476D01*
Y508476D01*
X521257Y511348D01*
X520149Y514024D01*
X518385Y516321D01*
X516087Y518084D01*
X513412Y519193D01*
X510540Y519571D01*
D02*
G37*
G36*
X485140D02*
X482268Y519193D01*
X479593Y518084D01*
X477295Y516321D01*
X475532Y514024D01*
X474423Y511348D01*
X474045Y508476D01*
Y504476D01*
X474423Y501604D01*
X475532Y498928D01*
X477295Y496631D01*
X479593Y494868D01*
X482268Y493759D01*
X485140Y493381D01*
X488012Y493759D01*
X490687Y494868D01*
X492985Y496631D01*
X494748Y498928D01*
X495857Y501604D01*
X496235Y504476D01*
Y508476D01*
X495857Y511348D01*
X494748Y514024D01*
X492985Y516321D01*
X490687Y518084D01*
X488012Y519193D01*
X485140Y519571D01*
D02*
G37*
G36*
X459740D02*
X456868Y519193D01*
X454193Y518084D01*
X451895Y516321D01*
X450131Y514024D01*
X449023Y511348D01*
X448645Y508476D01*
Y504476D01*
X449023Y501604D01*
X450131Y498928D01*
X451895Y496631D01*
X454193Y494868D01*
X456868Y493759D01*
X459740Y493381D01*
X462612Y493759D01*
X465288Y494868D01*
X467585Y496631D01*
X469348Y498928D01*
X470457Y501604D01*
X470835Y504476D01*
Y508476D01*
X470457Y511348D01*
X469348Y514024D01*
X467585Y516321D01*
X465288Y518084D01*
X462612Y519193D01*
X459740Y519571D01*
D02*
G37*
G36*
X396748D02*
X393876Y519193D01*
X391200Y518084D01*
X388903Y516321D01*
X387140Y514024D01*
X386031Y511348D01*
X385653Y508476D01*
Y504476D01*
X386031Y501604D01*
X387140Y498928D01*
X388903Y496631D01*
X391200Y494868D01*
X393876Y493759D01*
X396748Y493381D01*
X399620Y493759D01*
X402295Y494868D01*
X404593Y496631D01*
X406357Y498928D01*
X407465Y501604D01*
X407843Y504476D01*
Y508476D01*
X407465Y511348D01*
X406357Y514024D01*
X404593Y516321D01*
X402295Y518084D01*
X399620Y519193D01*
X396748Y519571D01*
D02*
G37*
G36*
X371348D02*
X368476Y519193D01*
X365801Y518084D01*
X363503Y516321D01*
X361740Y514024D01*
X360631Y511348D01*
X360253Y508476D01*
Y504476D01*
X360631Y501604D01*
X361740Y498928D01*
X363503Y496631D01*
X365801Y494868D01*
X368476Y493759D01*
X371348Y493381D01*
X374220Y493759D01*
X376895Y494868D01*
X379193Y496631D01*
X380956Y498928D01*
X382065Y501604D01*
X382443Y504476D01*
Y508476D01*
X382065Y511348D01*
X380956Y514024D01*
X379193Y516321D01*
X376895Y518084D01*
X374220Y519193D01*
X371348Y519571D01*
D02*
G37*
G36*
X345948D02*
X343076Y519193D01*
X340401Y518084D01*
X338103Y516321D01*
X336339Y514024D01*
X335231Y511348D01*
X334853Y508476D01*
Y504476D01*
X335231Y501604D01*
X336339Y498928D01*
X338103Y496631D01*
X340401Y494868D01*
X343076Y493759D01*
X345948Y493381D01*
X348820Y493759D01*
X351496Y494868D01*
X353793Y496631D01*
X355556Y498928D01*
X356665Y501604D01*
X357043Y504476D01*
Y508476D01*
X356665Y511348D01*
X355556Y514024D01*
X353793Y516321D01*
X351496Y518084D01*
X348820Y519193D01*
X345948Y519571D01*
D02*
G37*
G36*
X320548D02*
X317676Y519193D01*
X315000Y518084D01*
X312703Y516321D01*
X310940Y514024D01*
X309831Y511348D01*
X309453Y508476D01*
Y504476D01*
X309831Y501604D01*
X309905Y501426D01*
X290729Y482250D01*
X288367D01*
X286161Y481337D01*
X284473Y479649D01*
X283560Y477444D01*
Y475056D01*
X284473Y472851D01*
X286161Y471163D01*
X288367Y470250D01*
X290753D01*
X292959Y471163D01*
X294647Y472851D01*
X295560Y475056D01*
Y475546D01*
X314933Y494919D01*
X315000Y494868D01*
X317676Y493759D01*
X320548Y493381D01*
X323420Y493759D01*
X326096Y494868D01*
X328393Y496631D01*
X330157Y498928D01*
X331265Y501604D01*
X331643Y504476D01*
Y508476D01*
X331265Y511348D01*
X330157Y514024D01*
X328393Y516321D01*
X326096Y518084D01*
X323420Y519193D01*
X320548Y519571D01*
D02*
G37*
G36*
X295148D02*
X292276Y519193D01*
X289601Y518084D01*
X287303Y516321D01*
X285539Y514024D01*
X284431Y511348D01*
X284053Y508476D01*
Y504476D01*
X284431Y501604D01*
X285539Y498928D01*
X287303Y496631D01*
X289601Y494868D01*
X292276Y493759D01*
X295148Y493381D01*
X298020Y493759D01*
X300695Y494868D01*
X302993Y496631D01*
X304757Y498928D01*
X305865Y501604D01*
X306243Y504476D01*
Y508476D01*
X305865Y511348D01*
X304757Y514024D01*
X302993Y516321D01*
X300695Y518084D01*
X298020Y519193D01*
X295148Y519571D01*
D02*
G37*
G36*
X81524Y397072D02*
X78496D01*
X75571Y396288D01*
X72949Y394774D01*
X70808Y392633D01*
X69294Y390011D01*
X68510Y387086D01*
Y384058D01*
X69294Y381133D01*
X70808Y378511D01*
X72949Y376370D01*
X75571Y374856D01*
X78496Y374072D01*
X81524D01*
X84449Y374856D01*
X87071Y376370D01*
X89212Y378511D01*
X90726Y381133D01*
X91510Y384058D01*
Y387086D01*
X90726Y390011D01*
X89212Y392633D01*
X87071Y394774D01*
X84449Y396288D01*
X81524Y397072D01*
D02*
G37*
G36*
X118034Y364140D02*
X115646D01*
X113441Y363227D01*
X111349D01*
X109143Y364140D01*
X106756D01*
X104551Y363227D01*
X102863Y361539D01*
X101950Y359333D01*
Y356946D01*
X102863Y354741D01*
X104183Y353422D01*
Y316957D01*
X103486Y316261D01*
X102573Y314056D01*
Y311668D01*
X103486Y309463D01*
X105174Y307775D01*
X107380Y306862D01*
X109767D01*
X111492Y307577D01*
X112762Y306906D01*
Y276009D01*
X111992Y275240D01*
X110567D01*
X108361Y274327D01*
X106673Y272639D01*
X105760Y270434D01*
Y268046D01*
X106673Y265841D01*
X108361Y264153D01*
X110567Y263240D01*
X112954D01*
X115159Y264153D01*
X116847Y265841D01*
X117760Y268046D01*
Y269472D01*
X119724Y271436D01*
X119724Y271436D01*
X120608Y272759D01*
X120918Y274320D01*
X120918Y274320D01*
Y353733D01*
X121927Y354741D01*
X122840Y356946D01*
Y359333D01*
X121927Y361539D01*
X120239Y363227D01*
X118034Y364140D01*
D02*
G37*
G36*
X331394Y270160D02*
X329007D01*
X326801Y269247D01*
X325113Y267559D01*
X324200Y265354D01*
Y262966D01*
X325113Y260761D01*
X326801Y259073D01*
X327392Y258829D01*
Y214369D01*
X326122Y213991D01*
X324063Y215571D01*
X321388Y216679D01*
X318516Y217057D01*
X315644Y216679D01*
X312969Y215571D01*
X310671Y213807D01*
X310281Y213299D01*
X309078Y213708D01*
Y226343D01*
X309336Y226601D01*
X310250Y228806D01*
Y231194D01*
X309336Y233399D01*
X307649Y235087D01*
X305443Y236000D01*
X303057D01*
X300851Y235087D01*
X299163Y233399D01*
X298250Y231194D01*
Y228806D01*
X299163Y226601D01*
X300851Y224913D01*
X300922Y224884D01*
Y215273D01*
X299783Y214712D01*
X298664Y215571D01*
X295988Y216679D01*
X293116Y217057D01*
X290244Y216679D01*
X287568Y215571D01*
X285271Y213807D01*
X283507Y211509D01*
X282399Y208834D01*
X282284Y207957D01*
X281141Y207730D01*
X279818Y206846D01*
X256772Y183800D01*
X255347D01*
X253141Y182887D01*
X251453Y181199D01*
X250540Y178993D01*
Y176607D01*
X251453Y174401D01*
X253141Y172713D01*
X255347Y171800D01*
X257733D01*
X259939Y172713D01*
X261627Y174401D01*
X262540Y176607D01*
Y178032D01*
X281942Y197434D01*
X283188Y197187D01*
X283507Y196415D01*
X285271Y194117D01*
X287568Y192353D01*
X290244Y191245D01*
X293116Y190867D01*
X295988Y191245D01*
X298664Y192353D01*
X299783Y193212D01*
X300922Y192651D01*
Y180281D01*
X299300Y178659D01*
X298386Y176453D01*
Y174067D01*
X299300Y171861D01*
X300987Y170173D01*
X303193Y169260D01*
X305579D01*
X307785Y170173D01*
X309473Y171861D01*
X310386Y174067D01*
Y176453D01*
X309473Y178659D01*
X309078Y179053D01*
Y194216D01*
X310281Y194625D01*
X310671Y194117D01*
X312969Y192353D01*
X315644Y191245D01*
X318516Y190867D01*
X321388Y191245D01*
X324063Y192353D01*
X326122Y193933D01*
X327392Y193555D01*
Y179667D01*
X326383Y178659D01*
X325470Y176453D01*
Y174067D01*
X326383Y171861D01*
X328071Y170173D01*
X330276Y169260D01*
X332663D01*
X334869Y170173D01*
X336557Y171861D01*
X337470Y174067D01*
Y176453D01*
X336557Y178659D01*
X335548Y179667D01*
Y192917D01*
X336818Y193543D01*
X338368Y192353D01*
X341044Y191245D01*
X343916Y190867D01*
X346788Y191245D01*
X349464Y192353D01*
X351761Y194117D01*
X353525Y196415D01*
X354633Y199090D01*
X355011Y201962D01*
Y205962D01*
X354633Y208834D01*
X353525Y211509D01*
X351761Y213807D01*
X349464Y215571D01*
X346788Y216679D01*
X343916Y217057D01*
X341044Y216679D01*
X338368Y215571D01*
X336818Y214381D01*
X335548Y215007D01*
Y261393D01*
X336200Y262966D01*
Y265354D01*
X335287Y267559D01*
X333599Y269247D01*
X331394Y270160D01*
D02*
G37*
G36*
X120574Y218090D02*
X118187D01*
X115981Y217177D01*
X114293Y215489D01*
X113380Y213284D01*
Y210896D01*
X114293Y208691D01*
X115981Y207003D01*
X118187Y206090D01*
X119612D01*
X121703Y203999D01*
X121962Y202697D01*
X122846Y201374D01*
X123894Y200326D01*
X123894Y200326D01*
X124893Y199658D01*
X124508Y198388D01*
X122517D01*
X121509Y199397D01*
X119304Y200310D01*
X116917D01*
X114711Y199397D01*
X113023Y197709D01*
X112110Y195504D01*
Y193116D01*
X113023Y190911D01*
X114711Y189223D01*
X116917Y188310D01*
X119304D01*
X121509Y189223D01*
X122517Y190232D01*
X156874D01*
X156874Y190232D01*
X158434Y190542D01*
X158538Y190611D01*
X158806Y190500D01*
X161194D01*
X163399Y191413D01*
X165087Y193101D01*
X165388Y193829D01*
X166446Y193390D01*
X168834D01*
X171039Y194303D01*
X172727Y195991D01*
X173640Y198197D01*
Y200583D01*
X172727Y202789D01*
X171039Y204477D01*
X168834Y205390D01*
X166471D01*
X165768Y206094D01*
X164445Y206978D01*
X162884Y207288D01*
X162884Y207288D01*
X129500D01*
X129498Y207301D01*
X128614Y208624D01*
X128614Y208624D01*
X125380Y211858D01*
Y213284D01*
X124467Y215489D01*
X122779Y217177D01*
X120574Y218090D01*
D02*
G37*
G36*
X547116Y217057D02*
X544244Y216679D01*
X541568Y215571D01*
X539271Y213807D01*
X537508Y211509D01*
X536399Y208834D01*
X536021Y205962D01*
Y201962D01*
X536399Y199090D01*
X537508Y196415D01*
X539271Y194117D01*
X541568Y192353D01*
X544244Y191245D01*
X547116Y190867D01*
X549988Y191245D01*
X552663Y192353D01*
X554961Y194117D01*
X556725Y196415D01*
X557833Y199090D01*
X558211Y201962D01*
Y205962D01*
X557833Y208834D01*
X556725Y211509D01*
X554961Y213807D01*
X552663Y215571D01*
X549988Y216679D01*
X547116Y217057D01*
D02*
G37*
G36*
X521716D02*
X518844Y216679D01*
X516169Y215571D01*
X513871Y213807D01*
X512108Y211509D01*
X510999Y208834D01*
X510621Y205962D01*
Y201962D01*
X510999Y199090D01*
X512108Y196415D01*
X513871Y194117D01*
X516169Y192353D01*
X518844Y191245D01*
X521716Y190867D01*
X524588Y191245D01*
X527263Y192353D01*
X529561Y194117D01*
X531325Y196415D01*
X532433Y199090D01*
X532811Y201962D01*
Y205962D01*
X532433Y208834D01*
X531325Y211509D01*
X529561Y213807D01*
X527263Y215571D01*
X524588Y216679D01*
X521716Y217057D01*
D02*
G37*
G36*
X496316D02*
X493444Y216679D01*
X490769Y215571D01*
X488471Y213807D01*
X486707Y211509D01*
X485599Y208834D01*
X485221Y205962D01*
Y201962D01*
X485599Y199090D01*
X486707Y196415D01*
X488471Y194117D01*
X490769Y192353D01*
X493444Y191245D01*
X496316Y190867D01*
X499188Y191245D01*
X501864Y192353D01*
X504161Y194117D01*
X505924Y196415D01*
X507033Y199090D01*
X507411Y201962D01*
Y205962D01*
X507033Y208834D01*
X505924Y211509D01*
X504161Y213807D01*
X501864Y215571D01*
X499188Y216679D01*
X496316Y217057D01*
D02*
G37*
G36*
X470916D02*
X468044Y216679D01*
X465368Y215571D01*
X463071Y213807D01*
X461307Y211509D01*
X460199Y208834D01*
X459821Y205962D01*
Y201962D01*
X460199Y199090D01*
X461307Y196415D01*
X463071Y194117D01*
X465368Y192353D01*
X468044Y191245D01*
X470916Y190867D01*
X473788Y191245D01*
X476464Y192353D01*
X478761Y194117D01*
X480524Y196415D01*
X481633Y199090D01*
X482011Y201962D01*
Y205962D01*
X481633Y208834D01*
X480524Y211509D01*
X478761Y213807D01*
X476464Y215571D01*
X473788Y216679D01*
X470916Y217057D01*
D02*
G37*
G36*
X420116D02*
X417244Y216679D01*
X414568Y215571D01*
X412271Y213807D01*
X410508Y211509D01*
X409399Y208834D01*
X409021Y205962D01*
Y201962D01*
X409399Y199090D01*
X410508Y196415D01*
X412271Y194117D01*
X414568Y192353D01*
X417244Y191245D01*
X420116Y190867D01*
X422988Y191245D01*
X425663Y192353D01*
X427961Y194117D01*
X429725Y196415D01*
X430833Y199090D01*
X431211Y201962D01*
Y205962D01*
X430833Y208834D01*
X429725Y211509D01*
X427961Y213807D01*
X425663Y215571D01*
X422988Y216679D01*
X420116Y217057D01*
D02*
G37*
G36*
X394716D02*
X391844Y216679D01*
X389169Y215571D01*
X386871Y213807D01*
X385107Y211509D01*
X383999Y208834D01*
X383621Y205962D01*
Y201962D01*
X383999Y199090D01*
X385107Y196415D01*
X386871Y194117D01*
X389169Y192353D01*
X391844Y191245D01*
X394716Y190867D01*
X397588Y191245D01*
X400263Y192353D01*
X402561Y194117D01*
X404324Y196415D01*
X405433Y199090D01*
X405811Y201962D01*
Y205962D01*
X405433Y208834D01*
X404324Y211509D01*
X402561Y213807D01*
X400263Y215571D01*
X397588Y216679D01*
X394716Y217057D01*
D02*
G37*
G36*
X369316D02*
X366444Y216679D01*
X363769Y215571D01*
X361471Y213807D01*
X359707Y211509D01*
X358599Y208834D01*
X358221Y205962D01*
Y201962D01*
X358599Y199090D01*
X359707Y196415D01*
X361471Y194117D01*
X363769Y192353D01*
X366444Y191245D01*
X369316Y190867D01*
X372188Y191245D01*
X374864Y192353D01*
X377161Y194117D01*
X378924Y196415D01*
X380033Y199090D01*
X380411Y201962D01*
Y205962D01*
X380033Y208834D01*
X378924Y211509D01*
X377161Y213807D01*
X374864Y215571D01*
X372188Y216679D01*
X369316Y217057D01*
D02*
G37*
G36*
X219710Y209317D02*
X219119Y209200D01*
X218517D01*
X217960Y208969D01*
X217369Y208852D01*
X216868Y208517D01*
X216311Y208287D01*
X215885Y207861D01*
X215384Y207526D01*
X215226Y207288D01*
X210608Y202671D01*
X209282Y200686D01*
X209150Y200021D01*
X208286Y199158D01*
X189230D01*
X188639Y199040D01*
X188036D01*
X187480Y198809D01*
X186889Y198692D01*
X186388Y198357D01*
X185831Y198127D01*
X185405Y197701D01*
X184904Y197366D01*
X184569Y196865D01*
X184143Y196439D01*
X183913Y195882D01*
X183578Y195381D01*
X183461Y194790D01*
X183230Y194233D01*
Y193631D01*
X183113Y193040D01*
X183230Y192449D01*
Y191847D01*
X183461Y191290D01*
X183578Y190699D01*
X183913Y190198D01*
X184143Y189641D01*
X184569Y189215D01*
X184904Y188714D01*
X185405Y188379D01*
X185831Y187953D01*
X186388Y187723D01*
X186889Y187388D01*
X187480Y187271D01*
X188036Y187040D01*
X188639D01*
X189230Y186922D01*
X210820D01*
X213161Y187388D01*
X215146Y188714D01*
X219260Y192828D01*
X220586Y194813D01*
X220718Y195478D01*
X224036Y198796D01*
X224529Y199534D01*
X224797Y199801D01*
X224941Y200151D01*
X225362Y200780D01*
X225510Y201523D01*
X225710Y202006D01*
Y202530D01*
X225828Y203121D01*
Y203200D01*
X225710Y203791D01*
Y204394D01*
X225479Y204950D01*
X225362Y205541D01*
X225027Y206042D01*
X224797Y206599D01*
X224370Y207025D01*
X224036Y207526D01*
X223535Y207861D01*
X223109Y208287D01*
X222552Y208517D01*
X222051Y208852D01*
X221460Y208969D01*
X220903Y209200D01*
X220301D01*
X219710Y209317D01*
D02*
G37*
G36*
X572516Y140857D02*
X569644Y140479D01*
X566968Y139370D01*
X564671Y137607D01*
X562907Y135309D01*
X561799Y132634D01*
X561421Y129762D01*
Y125762D01*
X561799Y122890D01*
X562907Y120215D01*
X564671Y117917D01*
X566968Y116153D01*
X569644Y115045D01*
X572516Y114667D01*
X575388Y115045D01*
X578064Y116153D01*
X580361Y117917D01*
X582124Y120215D01*
X583233Y122890D01*
X583611Y125762D01*
Y129762D01*
X583233Y132634D01*
X582124Y135309D01*
X580361Y137607D01*
X578064Y139370D01*
X575388Y140479D01*
X572516Y140857D01*
D02*
G37*
G36*
X547116D02*
X544244Y140479D01*
X541568Y139370D01*
X539271Y137607D01*
X537508Y135309D01*
X536399Y132634D01*
X536021Y129762D01*
Y125762D01*
X536399Y122890D01*
X537508Y120215D01*
X539271Y117917D01*
X541568Y116153D01*
X544244Y115045D01*
X547116Y114667D01*
X549988Y115045D01*
X552663Y116153D01*
X554961Y117917D01*
X556725Y120215D01*
X557833Y122890D01*
X558211Y125762D01*
Y129762D01*
X557833Y132634D01*
X556725Y135309D01*
X554961Y137607D01*
X552663Y139370D01*
X549988Y140479D01*
X547116Y140857D01*
D02*
G37*
G36*
X508250Y159809D02*
X459500D01*
X458330Y159576D01*
X457337Y158913D01*
X456674Y157921D01*
X456441Y156750D01*
Y155253D01*
X456280Y154864D01*
Y152477D01*
X456441Y152087D01*
Y151000D01*
X456674Y149830D01*
X457337Y148837D01*
X458330Y148174D01*
X459500Y147941D01*
X460233D01*
X469590Y138584D01*
X469923Y138362D01*
X470224Y138098D01*
X470415Y138033D01*
X470583Y137921D01*
X470975Y137843D01*
X471354Y137714D01*
X472989Y137499D01*
X474921Y136699D01*
X476580Y135426D01*
X477853Y133767D01*
X478653Y131835D01*
X478952Y129562D01*
Y125962D01*
X478653Y123689D01*
X477853Y121757D01*
X477823Y121719D01*
X477646Y121360D01*
X477424Y121027D01*
X477385Y120829D01*
X477295Y120648D01*
X477269Y120249D01*
X477191Y119857D01*
Y93250D01*
X477424Y92079D01*
X478087Y91087D01*
X486087Y83087D01*
X487080Y82424D01*
X488250Y82191D01*
X488250Y82191D01*
X510091D01*
X510835Y82339D01*
X511261Y82424D01*
X512253Y83087D01*
X512651Y83682D01*
X512917Y84079D01*
X513403Y85253D01*
X513635Y86423D01*
X513403Y87594D01*
X512740Y88586D01*
X511309Y90017D01*
Y119169D01*
X512579Y119600D01*
X513871Y117917D01*
X516169Y116153D01*
X518844Y115045D01*
X521716Y114667D01*
X524588Y115045D01*
X527263Y116153D01*
X529561Y117917D01*
X531325Y120215D01*
X532433Y122890D01*
X532811Y125762D01*
Y129762D01*
X532433Y132634D01*
X531325Y135309D01*
X529561Y137607D01*
X527263Y139370D01*
X524588Y140479D01*
X521716Y140857D01*
X518844Y140479D01*
X516169Y139370D01*
X513871Y137607D01*
X512579Y135924D01*
X511309Y136355D01*
Y156750D01*
X511076Y157921D01*
X510413Y158913D01*
X509421Y159576D01*
X508250Y159809D01*
D02*
G37*
G36*
X445516Y140857D02*
X442644Y140479D01*
X439968Y139370D01*
X437671Y137607D01*
X435908Y135309D01*
X434799Y132634D01*
X434421Y129762D01*
Y125762D01*
X434799Y122890D01*
X435908Y120215D01*
X437671Y117917D01*
X439968Y116153D01*
X442644Y115045D01*
X445516Y114667D01*
X448388Y115045D01*
X451063Y116153D01*
X453361Y117917D01*
X455125Y120215D01*
X456233Y122890D01*
X456611Y125762D01*
Y129762D01*
X456233Y132634D01*
X455125Y135309D01*
X453361Y137607D01*
X451063Y139370D01*
X448388Y140479D01*
X445516Y140857D01*
D02*
G37*
G36*
X420116D02*
X417244Y140479D01*
X414568Y139370D01*
X412271Y137607D01*
X410508Y135309D01*
X409399Y132634D01*
X409021Y129762D01*
Y125762D01*
X409399Y122890D01*
X410508Y120215D01*
X412271Y117917D01*
X414568Y116153D01*
X417244Y115045D01*
X420116Y114667D01*
X422988Y115045D01*
X425663Y116153D01*
X427961Y117917D01*
X429725Y120215D01*
X430833Y122890D01*
X431211Y125762D01*
Y129762D01*
X430833Y132634D01*
X429725Y135309D01*
X427961Y137607D01*
X425663Y139370D01*
X422988Y140479D01*
X420116Y140857D01*
D02*
G37*
G36*
X394716D02*
X391844Y140479D01*
X389169Y139370D01*
X386871Y137607D01*
X385107Y135309D01*
X383999Y132634D01*
X383621Y129762D01*
Y125762D01*
X383999Y122890D01*
X385107Y120215D01*
X386871Y117917D01*
X389169Y116153D01*
X391844Y115045D01*
X394716Y114667D01*
X397588Y115045D01*
X400263Y116153D01*
X402561Y117917D01*
X404324Y120215D01*
X405433Y122890D01*
X405811Y125762D01*
Y129762D01*
X405433Y132634D01*
X404324Y135309D01*
X402561Y137607D01*
X400263Y139370D01*
X397588Y140479D01*
X394716Y140857D01*
D02*
G37*
G36*
X369316D02*
X366444Y140479D01*
X363769Y139370D01*
X361471Y137607D01*
X359707Y135309D01*
X358599Y132634D01*
X358221Y129762D01*
Y125762D01*
X358599Y122890D01*
X359707Y120215D01*
X361471Y117917D01*
X363769Y116153D01*
X366444Y115045D01*
X369316Y114667D01*
X372188Y115045D01*
X374864Y116153D01*
X377161Y117917D01*
X378924Y120215D01*
X380033Y122890D01*
X380411Y125762D01*
Y129762D01*
X380033Y132634D01*
X378924Y135309D01*
X377161Y137607D01*
X374864Y139370D01*
X372188Y140479D01*
X369316Y140857D01*
D02*
G37*
G36*
X343916D02*
X341044Y140479D01*
X338368Y139370D01*
X336071Y137607D01*
X334308Y135309D01*
X333199Y132634D01*
X332821Y129762D01*
Y125762D01*
X333199Y122890D01*
X334308Y120215D01*
X336071Y117917D01*
X338368Y116153D01*
X341044Y115045D01*
X343916Y114667D01*
X346788Y115045D01*
X349464Y116153D01*
X351761Y117917D01*
X353525Y120215D01*
X354633Y122890D01*
X355011Y125762D01*
Y129762D01*
X354633Y132634D01*
X353525Y135309D01*
X351761Y137607D01*
X349464Y139370D01*
X346788Y140479D01*
X343916Y140857D01*
D02*
G37*
G36*
X318516D02*
X315644Y140479D01*
X312969Y139370D01*
X310671Y137607D01*
X308908Y135309D01*
X307799Y132634D01*
X307421Y129762D01*
Y125762D01*
X307799Y122890D01*
X308908Y120215D01*
X310671Y117917D01*
X312969Y116153D01*
X315644Y115045D01*
X318516Y114667D01*
X321388Y115045D01*
X324063Y116153D01*
X326361Y117917D01*
X328125Y120215D01*
X329233Y122890D01*
X329611Y125762D01*
Y129762D01*
X329233Y132634D01*
X328125Y135309D01*
X326361Y137607D01*
X324063Y139370D01*
X321388Y140479D01*
X318516Y140857D01*
D02*
G37*
G36*
X293116D02*
X290244Y140479D01*
X287568Y139370D01*
X285271Y137607D01*
X283507Y135309D01*
X282399Y132634D01*
X282021Y129762D01*
Y125762D01*
X282399Y122890D01*
X283507Y120215D01*
X285271Y117917D01*
X287568Y116153D01*
X290244Y115045D01*
X293116Y114667D01*
X295988Y115045D01*
X298664Y116153D01*
X300961Y117917D01*
X302724Y120215D01*
X303833Y122890D01*
X304211Y125762D01*
Y129762D01*
X303833Y132634D01*
X302724Y135309D01*
X300961Y137607D01*
X298664Y139370D01*
X295988Y140479D01*
X293116Y140857D01*
D02*
G37*
%LPD*%
G36*
X508250Y132872D02*
X507033Y132634D01*
X505924Y135309D01*
X504161Y137607D01*
X501864Y139370D01*
X499188Y140479D01*
X496316Y140857D01*
X493444Y140479D01*
X490769Y139370D01*
X488471Y137607D01*
X486707Y135309D01*
X485599Y132634D01*
X485221Y129762D01*
Y125762D01*
X485599Y122890D01*
X486707Y120215D01*
X488471Y117917D01*
X490769Y116153D01*
X493444Y115045D01*
X496316Y114667D01*
X499188Y115045D01*
X501864Y116153D01*
X504161Y117917D01*
X505924Y120215D01*
X507033Y122890D01*
X508250Y122652D01*
Y89250D01*
X508000Y89000D01*
X510577Y86423D01*
X510091Y85250D01*
X488250D01*
X480250Y93250D01*
Y119857D01*
X480524Y120215D01*
X481633Y122890D01*
X482011Y125762D01*
Y129762D01*
X481633Y132634D01*
X480524Y135309D01*
X478761Y137607D01*
X476464Y139370D01*
X473788Y140479D01*
X471753Y140747D01*
X461500Y151000D01*
X459500D01*
Y156750D01*
X508250D01*
Y132872D01*
D02*
G37*
%LPC*%
G36*
X156432Y424607D02*
X152432D01*
X149560Y424229D01*
X146884Y423120D01*
X144587Y421357D01*
X142823Y419059D01*
X141715Y416384D01*
X141337Y413512D01*
X141715Y410640D01*
X142823Y407965D01*
X144587Y405667D01*
X146884Y403904D01*
X149560Y402795D01*
X152432Y402417D01*
X156432D01*
X159304Y402795D01*
X161980Y403904D01*
X164277Y405667D01*
X166040Y407965D01*
X167149Y410640D01*
X167527Y413512D01*
X167149Y416384D01*
X166040Y419059D01*
X164277Y421357D01*
X161980Y423120D01*
X159304Y424229D01*
X156432Y424607D01*
D02*
G37*
G36*
X40710Y481400D02*
X17710D01*
Y471414D01*
Y458400D01*
X40710D01*
Y481400D01*
D02*
G37*
G36*
Y397072D02*
X17710D01*
Y387086D01*
Y374072D01*
X40710D01*
Y397072D01*
D02*
G37*
G36*
X37074Y353384D02*
X34046D01*
X31121Y352600D01*
X28499Y351086D01*
X26358Y348945D01*
X24844Y346323D01*
X24060Y343398D01*
Y340370D01*
X24844Y337445D01*
X26358Y334823D01*
X28499Y332682D01*
X31121Y331168D01*
X34046Y330384D01*
X37074D01*
X39999Y331168D01*
X42621Y332682D01*
X44762Y334823D01*
X46276Y337445D01*
X47060Y340370D01*
Y343398D01*
X46276Y346323D01*
X44762Y348945D01*
X42621Y351086D01*
X39999Y352600D01*
X37074Y353384D01*
D02*
G37*
G36*
Y327984D02*
X34046D01*
X31121Y327200D01*
X28499Y325686D01*
X26358Y323545D01*
X24844Y320923D01*
X24060Y317998D01*
Y314970D01*
X24844Y312045D01*
X26358Y309423D01*
X28499Y307282D01*
X31121Y305768D01*
X34046Y304984D01*
X37074D01*
X39999Y305768D01*
X42621Y307282D01*
X44762Y309423D01*
X46276Y312045D01*
X47060Y314970D01*
Y317998D01*
X46276Y320923D01*
X44762Y323545D01*
X42621Y325686D01*
X39999Y327200D01*
X37074Y327984D01*
D02*
G37*
G36*
X177038Y87866D02*
X175477Y87556D01*
X174154Y86672D01*
X173270Y85349D01*
X172960Y83788D01*
Y81788D01*
X173270Y80227D01*
X174154Y78904D01*
X175477Y78020D01*
X177038Y77710D01*
X178599Y78020D01*
X179922Y78904D01*
X180806Y80227D01*
X181116Y81788D01*
Y83788D01*
X180806Y85349D01*
X179922Y86672D01*
X178599Y87556D01*
X177038Y87866D01*
D02*
G37*
G36*
X361696Y28430D02*
X360135Y28120D01*
X358812Y27236D01*
X357928Y25913D01*
X357618Y24352D01*
Y22352D01*
X357928Y20791D01*
X358812Y19468D01*
X360135Y18584D01*
X361696Y18274D01*
X363257Y18584D01*
X364580Y19468D01*
X365464Y20791D01*
X365774Y22352D01*
Y24352D01*
X365464Y25913D01*
X364580Y27236D01*
X363257Y28120D01*
X361696Y28430D01*
D02*
G37*
%LPD*%
D10*
X132968Y73058D02*
X136942D01*
X144330Y65670D02*
X180590D01*
X136942Y73058D02*
X144330Y65670D01*
X568000Y433750D02*
X573500Y428250D01*
X329000Y433750D02*
X568000D01*
X328750Y424500D02*
X562564D01*
X565564Y421500D01*
X330200Y263224D02*
Y264160D01*
Y263224D02*
X331470Y261954D01*
Y175260D02*
Y261954D01*
X304250Y230000D02*
X304912Y229338D01*
Y226891D02*
Y229338D01*
X305000Y175874D02*
Y226803D01*
X304912Y226891D02*
X305000Y226803D01*
X304386Y175260D02*
X305000Y175874D01*
X118110Y194310D02*
X156874D01*
X159064Y196500D01*
X126778Y203210D02*
X162884D01*
X166704Y199390D02*
X167640D01*
X125730Y204258D02*
X126778Y203210D01*
X159064Y196500D02*
X160000D01*
X162884Y203210D02*
X166704Y199390D01*
X125730Y204258D02*
Y205740D01*
X664000Y175250D02*
Y201388D01*
X603954Y261434D02*
X664000Y201388D01*
X633250Y144500D02*
X664000Y175250D01*
X600844Y144500D02*
X633250D01*
X597916Y141572D02*
X600844Y144500D01*
X623316Y127762D02*
X673100Y177546D01*
Y230150D01*
X597916Y127762D02*
Y141572D01*
X656590Y256540D02*
Y256660D01*
X634680Y278570D02*
Y447694D01*
Y278570D02*
X656590Y256660D01*
X630140Y273110D02*
Y444303D01*
Y273110D02*
X673100Y230150D01*
X656590Y256540D02*
X678180Y234950D01*
Y160020D02*
Y234950D01*
X625600Y392850D02*
Y441298D01*
X603954Y315399D02*
Y371204D01*
X625600Y392850D01*
X606648Y460250D02*
X624856Y442042D01*
X625600Y441298D01*
X626190Y448310D02*
Y448310D01*
X269160Y464900D02*
X609600D01*
X626190Y448310D01*
Y448310D02*
X626190Y448310D01*
Y448253D02*
Y448310D01*
X565564Y421500D02*
X566500D01*
X583323Y441250D02*
X585119Y439454D01*
Y439317D02*
X588500Y435936D01*
X585119Y439317D02*
Y439454D01*
X588500Y435000D02*
Y435936D01*
X253440Y441250D02*
X583323D01*
X237490Y457200D02*
X253440Y441250D01*
X447687Y405210D02*
X455976Y413500D01*
X578500D01*
X235835Y490870D02*
X266456Y460250D01*
X606648D01*
X218948Y492666D02*
X220744Y490870D01*
X235835D01*
X632460Y449914D02*
X634680Y447694D01*
X632460Y449914D02*
Y450850D01*
X303473Y405210D02*
X447687D01*
X626190Y448253D02*
X630140Y444303D01*
X603954Y261434D02*
X603954Y315399D01*
X623316Y127762D02*
Y127762D01*
X265332Y408940D02*
X266682Y407590D01*
X301093D01*
X303473Y405210D01*
X224790Y408940D02*
X265332D01*
X257810Y476250D02*
X269160Y464900D01*
X156432Y438912D02*
X174720Y457200D01*
X154432Y438912D02*
X156432D01*
X174720Y457200D02*
X237490D01*
X177038Y81788D02*
Y83788D01*
X180590Y65670D02*
X243720Y2540D01*
X370840D01*
X108261Y313174D02*
X108573Y312862D01*
X108261Y313174D02*
Y357828D01*
X107950Y358140D02*
X108261Y357828D01*
X116840Y274320D02*
Y358140D01*
X111760Y269240D02*
X116840Y274320D01*
X282702Y203962D02*
X293116D01*
X256540Y177800D02*
X282702Y203962D01*
X361696Y22352D02*
Y24352D01*
X370840Y2540D02*
X387096Y18796D01*
Y22352D01*
X126238Y79788D02*
X132968Y73058D01*
X100267Y53817D02*
X126238Y79788D01*
X81026Y30734D02*
X100267Y49975D01*
X126238Y79788D02*
Y81788D01*
X100267Y49975D02*
Y53817D01*
X27178Y30734D02*
X81026D01*
X119380Y212090D02*
X125730Y205740D01*
X290496Y476250D02*
X320548Y506302D01*
Y506476D01*
X289560Y476250D02*
X290496D01*
X110998Y438912D02*
X154432D01*
X80010Y469900D02*
X110998Y438912D01*
X218948Y492666D02*
Y506476D01*
X193548Y508476D02*
X208312Y523240D01*
X247650D01*
X193548Y506476D02*
Y508476D01*
X257810Y476250D02*
Y513080D01*
X247650Y523240D02*
X257810Y513080D01*
D11*
X585016Y196784D02*
Y211140D01*
X584500Y196268D02*
X585016Y196784D01*
X584500Y211656D02*
X585016Y211140D01*
X584500Y177537D02*
Y196268D01*
X584200Y176530D02*
X584391Y176721D01*
X584500Y223250D02*
X588500Y227250D01*
X584391Y176721D02*
Y177428D01*
X584500Y211656D02*
Y223250D01*
X584391Y177428D02*
X584500Y177537D01*
D27*
X248560Y80760D02*
D03*
D64*
X681724Y267568D02*
D03*
D65*
X203560Y80760D02*
D03*
Y15760D02*
D03*
X248560D02*
D03*
X681724Y312568D02*
D03*
X616724D02*
D03*
Y267568D02*
D03*
D71*
X214934Y198345D02*
X219710Y203121D01*
X214934Y197154D02*
Y198345D01*
X210820Y193040D02*
X214934Y197154D01*
X189230Y193040D02*
X210820D01*
X219710Y203121D02*
Y203200D01*
D73*
X594481Y318561D02*
G03*
X595684Y323316I-8797J4756D01*
G01*
X595684D02*
X595684Y323316D01*
X602500Y427500D02*
Y444992D01*
X595684Y323316D02*
Y420684D01*
X602500Y427500D01*
X588500Y307498D02*
X594481Y318561D01*
X596642Y450850D02*
X602500Y444992D01*
X256540Y450850D02*
X596642D01*
X588500Y227250D02*
Y307498D01*
X232410Y474980D02*
X256540Y450850D01*
X232410Y474980D02*
Y482600D01*
D74*
X157988Y506476D02*
D03*
D75*
X27178Y136906D02*
D03*
Y30734D02*
D03*
D76*
X193548Y506476D02*
D03*
X218948D02*
D03*
X244348D02*
D03*
X269748D02*
D03*
X295148D02*
D03*
X345948D02*
D03*
X371348D02*
D03*
X396748D02*
D03*
X320548D02*
D03*
X535940D02*
D03*
X612140D02*
D03*
X586740D02*
D03*
X561340D02*
D03*
X510540D02*
D03*
X485140D02*
D03*
X459740D02*
D03*
X387096Y22352D02*
D03*
X310896D02*
D03*
X336296D02*
D03*
X361696D02*
D03*
X412496D02*
D03*
X437896D02*
D03*
X463296D02*
D03*
X615188Y22606D02*
D03*
X538988D02*
D03*
X564388D02*
D03*
X589788D02*
D03*
X640588D02*
D03*
X177038Y81788D02*
D03*
X151638D02*
D03*
X318516Y127762D02*
D03*
X293116D02*
D03*
X343916D02*
D03*
X369316D02*
D03*
X394716D02*
D03*
X420116D02*
D03*
X445516D02*
D03*
X470916D02*
D03*
X496316D02*
D03*
X521716D02*
D03*
X547116D02*
D03*
X572516D02*
D03*
X597916D02*
D03*
X623316D02*
D03*
X293116Y203962D02*
D03*
X318516D02*
D03*
X343916D02*
D03*
X369316D02*
D03*
X394716D02*
D03*
X420116D02*
D03*
X445516D02*
D03*
X470916D02*
D03*
X496316D02*
D03*
X521716D02*
D03*
X547116D02*
D03*
X572516D02*
D03*
X597916D02*
D03*
D77*
X422148Y506476D02*
D03*
X637540D02*
D03*
X285496Y22352D02*
D03*
X513588Y22606D02*
D03*
X126238Y81788D02*
D03*
X623316Y203962D02*
D03*
D78*
X152400Y25400D02*
D03*
X685800Y76200D02*
D03*
Y361950D02*
D03*
D79*
X29210Y469900D02*
D03*
Y385572D02*
D03*
X60960Y341884D02*
D03*
D80*
X54610Y469900D02*
D03*
X80010D02*
D03*
X29210Y495300D02*
D03*
X54610D02*
D03*
X80010D02*
D03*
X54610Y385572D02*
D03*
X80010D02*
D03*
X29210Y410972D02*
D03*
X54610D02*
D03*
X80010D02*
D03*
X35560Y341884D02*
D03*
X60960Y316484D02*
D03*
X35560D02*
D03*
D81*
X154432Y362712D02*
D03*
Y388112D02*
D03*
Y413512D02*
D03*
X670306Y416560D02*
D03*
Y441960D02*
D03*
D82*
X154432Y438912D02*
D03*
X670306Y467360D02*
D03*
D83*
X22860Y166410D02*
D03*
Y232410D02*
D03*
D84*
X200660Y113030D02*
D03*
X149606Y127762D02*
D03*
X163830Y128270D02*
D03*
X314953Y428401D02*
D03*
X329000Y433750D02*
D03*
X328750Y424500D02*
D03*
X131500Y169250D02*
D03*
X98000Y142250D02*
D03*
X107250Y142500D02*
D03*
X116750D02*
D03*
X124750D02*
D03*
X141500Y161000D02*
D03*
Y169250D02*
D03*
X141750Y177500D02*
D03*
X414500Y471750D02*
D03*
X414250Y480750D02*
D03*
X405500Y480500D02*
D03*
X414500Y386750D02*
D03*
X405000D02*
D03*
X414500Y396000D02*
D03*
X330200Y264160D02*
D03*
X304250Y230000D02*
D03*
X331000Y64000D02*
D03*
X580000Y382750D02*
D03*
Y392000D02*
D03*
X637000Y56500D02*
D03*
Y67500D02*
D03*
X414500Y57750D02*
D03*
X407000D02*
D03*
X323000Y64000D02*
D03*
X119750Y409500D02*
D03*
X127250Y414250D02*
D03*
X127000Y405130D02*
D03*
X214250Y434250D02*
D03*
X201000Y280750D02*
D03*
X160000Y196500D02*
D03*
X573500Y428250D02*
D03*
X566500Y421500D02*
D03*
X588500Y435000D02*
D03*
X578500Y413500D02*
D03*
X66000Y449500D02*
D03*
X85090Y285750D02*
D03*
X405130Y396240D02*
D03*
X405000Y471500D02*
D03*
X580390Y401320D02*
D03*
X445770Y220980D02*
D03*
X478790Y254000D02*
D03*
X402590Y255270D02*
D03*
X115570Y246380D02*
D03*
X138750Y217500D02*
D03*
X165100Y264160D02*
D03*
X181610Y201930D02*
D03*
X203200Y204470D02*
D03*
X245110Y195580D02*
D03*
X264160Y224790D02*
D03*
X232410Y245110D02*
D03*
X231140Y328930D02*
D03*
X278130Y351790D02*
D03*
X196850Y420370D02*
D03*
X57150Y518160D02*
D03*
X645160Y181610D02*
D03*
X647700Y172720D02*
D03*
X693420Y125730D02*
D03*
X477520Y85090D02*
D03*
X462280Y111760D02*
D03*
X422910Y57150D02*
D03*
X402590Y76200D02*
D03*
X403860Y109220D02*
D03*
X372110Y64770D02*
D03*
X307340Y77470D02*
D03*
X195580Y138430D02*
D03*
X233680Y130810D02*
D03*
X83820Y246380D02*
D03*
Y226060D02*
D03*
Y181610D02*
D03*
X233680Y444500D02*
D03*
X185420Y419100D02*
D03*
X16510Y285750D02*
D03*
X50800Y283210D02*
D03*
X289560Y63500D02*
D03*
X472440Y40640D02*
D03*
X450850Y44450D02*
D03*
X107950Y358140D02*
D03*
X108573Y312862D02*
D03*
X111760Y269240D02*
D03*
X116840Y358140D02*
D03*
X256540Y177800D02*
D03*
X488950Y88900D02*
D03*
X462280Y153670D02*
D03*
X219710Y203200D02*
D03*
X189230Y193040D02*
D03*
X90170Y115570D02*
D03*
Y105410D02*
D03*
X62230Y220980D02*
D03*
Y232410D02*
D03*
X167640Y199390D02*
D03*
X118110Y194310D02*
D03*
X119380Y212090D02*
D03*
X289560Y476250D02*
D03*
X584200Y176530D02*
D03*
X232410Y482600D02*
D03*
X224790Y408940D02*
D03*
X331470Y175260D02*
D03*
X678180Y160020D02*
D03*
X632460Y450850D02*
D03*
X304386Y175260D02*
D03*
M02*
